<mxfile host="app.diagrams.net" agent="Mozilla/5.0 (Windows NT 10.0; Win64; x64) AppleWebKit/537.36 (KHTML, like Gecko) Chrome/136.0.0.0 Safari/537.36" version="27.0.6">
  <diagram name="第 1 页" id="BoXAOjVS5sgpGQKroE5v">
    <mxGraphModel dx="4084" dy="823" grid="0" gridSize="10" guides="0" tooltips="1" connect="1" arrows="1" fold="1" page="1" pageScale="1" pageWidth="827" pageHeight="1169" math="0" shadow="0">
      <root>
        <mxCell id="0" />
        <mxCell id="1" parent="0" />
        <mxCell id="kj8fbqeVFcNUevWfHqB0-1" value="" style="whiteSpace=wrap;strokeWidth=2;fontSize=17;fontFamily=KaiTi;" parent="1" vertex="1">
          <mxGeometry x="-1268" y="7997" width="798" height="798" as="geometry" />
        </mxCell>
        <mxCell id="kj8fbqeVFcNUevWfHqB0-2" value="用户" style="whiteSpace=wrap;strokeWidth=2;html=1;shape=label;fontSize=14;fontFamily=KaiTi;" parent="1" vertex="1">
          <mxGeometry x="685" y="285" width="92" height="54" as="geometry" />
        </mxCell>
        <mxCell id="kj8fbqeVFcNUevWfHqB0-3" value="用户主键ID" style="strokeWidth=2;whiteSpace=wrap;rounded=0;html=1;shape=ellipse;perimeter=ellipsePerimeter;fontSize=14;fontFamily=KaiTi;" parent="1" vertex="1">
          <mxGeometry x="617" y="382" width="120" height="50" as="geometry" />
        </mxCell>
        <mxCell id="kj8fbqeVFcNUevWfHqB0-4" value="用户昵称" style="strokeWidth=2;whiteSpace=wrap;rounded=0;html=1;shape=ellipse;perimeter=ellipsePerimeter;fontSize=14;fontFamily=KaiTi;" parent="1" vertex="1">
          <mxGeometry x="508" y="329" width="120" height="50" as="geometry" />
        </mxCell>
        <mxCell id="kj8fbqeVFcNUevWfHqB0-5" value="登录名称" style="strokeWidth=2;whiteSpace=wrap;rounded=0;html=1;shape=ellipse;perimeter=ellipsePerimeter;fontSize=14;fontFamily=KaiTi;" parent="1" vertex="1">
          <mxGeometry x="499" y="258" width="120" height="50" as="geometry" />
        </mxCell>
        <mxCell id="kj8fbqeVFcNUevWfHqB0-6" value="密码" style="strokeWidth=2;whiteSpace=wrap;rounded=0;html=1;shape=ellipse;perimeter=ellipsePerimeter;fontSize=14;fontFamily=KaiTi;" parent="1" vertex="1">
          <mxGeometry x="541" y="168" width="120" height="50" as="geometry" />
        </mxCell>
        <mxCell id="kj8fbqeVFcNUevWfHqB0-7" value="个性签名" style="strokeWidth=2;whiteSpace=wrap;rounded=0;html=1;shape=ellipse;perimeter=ellipsePerimeter;fontSize=14;fontFamily=KaiTi;" parent="1" vertex="1">
          <mxGeometry x="670" y="164" width="120" height="50" as="geometry" />
        </mxCell>
        <mxCell id="kj8fbqeVFcNUevWfHqB0-8" value="收货地址" style="strokeWidth=2;whiteSpace=wrap;rounded=0;html=1;shape=ellipse;perimeter=ellipsePerimeter;fontSize=14;fontFamily=KaiTi;" parent="1" vertex="1">
          <mxGeometry x="799" y="164" width="120" height="50" as="geometry" />
        </mxCell>
        <mxCell id="kj8fbqeVFcNUevWfHqB0-9" value="注销标识" style="strokeWidth=2;whiteSpace=wrap;rounded=0;html=1;shape=ellipse;perimeter=ellipsePerimeter;fontSize=14;fontFamily=KaiTi;" parent="1" vertex="1">
          <mxGeometry x="853" y="232" width="120" height="50" as="geometry" />
        </mxCell>
        <mxCell id="kj8fbqeVFcNUevWfHqB0-10" value="注册时间" style="strokeWidth=2;whiteSpace=wrap;rounded=0;html=1;shape=ellipse;perimeter=ellipsePerimeter;fontSize=14;fontFamily=KaiTi;" parent="1" vertex="1">
          <mxGeometry x="765" y="382" width="120" height="50" as="geometry" />
        </mxCell>
        <mxCell id="kj8fbqeVFcNUevWfHqB0-11" value="" style="curved=1;startArrow=none;endArrow=none;exitX=0.5;exitY=0;entryX=0.25;entryY=1;rounded=0;exitDx=0;exitDy=0;html=1;entryDx=0;entryDy=0;fontSize=14;fontFamily=KaiTi;strokeWidth=2;" parent="1" source="kj8fbqeVFcNUevWfHqB0-3" target="kj8fbqeVFcNUevWfHqB0-2" edge="1">
          <mxGeometry relative="1" as="geometry" />
        </mxCell>
        <mxCell id="kj8fbqeVFcNUevWfHqB0-12" value="" style="curved=1;startArrow=none;endArrow=none;exitX=1;exitY=0.5;entryX=0;entryY=0.42;rounded=0;exitDx=0;exitDy=0;html=1;fontSize=14;fontFamily=KaiTi;strokeWidth=2;" parent="1" source="kj8fbqeVFcNUevWfHqB0-4" target="kj8fbqeVFcNUevWfHqB0-2" edge="1">
          <mxGeometry relative="1" as="geometry" />
        </mxCell>
        <mxCell id="kj8fbqeVFcNUevWfHqB0-13" value="" style="curved=1;startArrow=none;endArrow=none;exitX=1;exitY=0.5;entryX=0;entryY=0.38;rounded=0;html=1;exitDx=0;exitDy=0;fontSize=14;fontFamily=KaiTi;strokeWidth=2;" parent="1" source="kj8fbqeVFcNUevWfHqB0-5" target="kj8fbqeVFcNUevWfHqB0-2" edge="1">
          <mxGeometry relative="1" as="geometry" />
        </mxCell>
        <mxCell id="kj8fbqeVFcNUevWfHqB0-14" value="" style="curved=1;startArrow=none;endArrow=none;exitX=0.5;exitY=1;entryX=0;entryY=0.22;rounded=0;html=1;fontSize=14;fontFamily=KaiTi;strokeWidth=2;" parent="1" source="kj8fbqeVFcNUevWfHqB0-6" target="kj8fbqeVFcNUevWfHqB0-2" edge="1">
          <mxGeometry relative="1" as="geometry" />
        </mxCell>
        <mxCell id="kj8fbqeVFcNUevWfHqB0-15" value="" style="curved=1;startArrow=none;endArrow=none;exitX=0.5;exitY=1;entryX=0.5;entryY=0;rounded=0;html=1;fontSize=14;fontFamily=KaiTi;strokeWidth=2;" parent="1" source="kj8fbqeVFcNUevWfHqB0-7" target="kj8fbqeVFcNUevWfHqB0-2" edge="1">
          <mxGeometry relative="1" as="geometry" />
        </mxCell>
        <mxCell id="kj8fbqeVFcNUevWfHqB0-16" value="" style="curved=1;startArrow=none;endArrow=none;exitX=0.5;exitY=1;entryX=1;entryY=0.16;rounded=0;html=1;fontSize=14;fontFamily=KaiTi;strokeWidth=2;" parent="1" source="kj8fbqeVFcNUevWfHqB0-8" target="kj8fbqeVFcNUevWfHqB0-2" edge="1">
          <mxGeometry relative="1" as="geometry" />
        </mxCell>
        <mxCell id="kj8fbqeVFcNUevWfHqB0-17" value="" style="curved=1;startArrow=none;endArrow=none;exitX=0.5;exitY=1;entryX=1;entryY=0.36;rounded=0;html=1;fontSize=14;fontFamily=KaiTi;strokeWidth=2;" parent="1" source="kj8fbqeVFcNUevWfHqB0-9" target="kj8fbqeVFcNUevWfHqB0-2" edge="1">
          <mxGeometry relative="1" as="geometry" />
        </mxCell>
        <mxCell id="kj8fbqeVFcNUevWfHqB0-18" value="" style="curved=1;startArrow=none;endArrow=none;exitX=0;exitY=0.5;entryX=1;entryY=0.44;rounded=0;html=1;exitDx=0;exitDy=0;fontSize=14;fontFamily=KaiTi;strokeWidth=2;" parent="1" source="kj8fbqeVFcNUevWfHqB0-20" target="kj8fbqeVFcNUevWfHqB0-2" edge="1">
          <mxGeometry relative="1" as="geometry" />
        </mxCell>
        <mxCell id="kj8fbqeVFcNUevWfHqB0-19" value="" style="curved=1;startArrow=none;endArrow=none;exitX=0.5;exitY=0;entryX=0.75;entryY=1;rounded=0;entryDx=0;entryDy=0;exitDx=0;exitDy=0;html=1;fontSize=14;fontFamily=KaiTi;strokeWidth=2;" parent="1" source="kj8fbqeVFcNUevWfHqB0-10" target="kj8fbqeVFcNUevWfHqB0-2" edge="1">
          <mxGeometry relative="1" as="geometry">
            <mxPoint x="1518" y="214" as="sourcePoint" />
            <mxPoint x="777" y="309" as="targetPoint" />
          </mxGeometry>
        </mxCell>
        <mxCell id="kj8fbqeVFcNUevWfHqB0-20" value="锁定标识" style="strokeWidth=2;whiteSpace=wrap;rounded=0;html=1;shape=ellipse;perimeter=ellipsePerimeter;fontSize=14;fontFamily=KaiTi;" parent="1" vertex="1">
          <mxGeometry x="862" y="314" width="120" height="50" as="geometry" />
        </mxCell>
        <mxCell id="kj8fbqeVFcNUevWfHqB0-21" value="管理员" style="whiteSpace=wrap;strokeWidth=2;fontSize=14;fontFamily=KaiTi;" parent="1" vertex="1">
          <mxGeometry x="706" y="655" width="108" height="54" as="geometry" />
        </mxCell>
        <mxCell id="kj8fbqeVFcNUevWfHqB0-22" value="管理员ID" style="ellipse;strokeWidth=2;whiteSpace=wrap;fontSize=14;fontFamily=KaiTi;" parent="1" vertex="1">
          <mxGeometry x="523" y="655" width="120" height="50" as="geometry" />
        </mxCell>
        <mxCell id="kj8fbqeVFcNUevWfHqB0-23" value="管理员登录名称" style="ellipse;strokeWidth=2;whiteSpace=wrap;fontSize=14;fontFamily=KaiTi;" parent="1" vertex="1">
          <mxGeometry x="574" y="577" width="120" height="50" as="geometry" />
        </mxCell>
        <mxCell id="kj8fbqeVFcNUevWfHqB0-24" value="管理员登录密码" style="ellipse;strokeWidth=2;whiteSpace=wrap;fontSize=14;fontFamily=KaiTi;" parent="1" vertex="1">
          <mxGeometry x="699" y="562" width="120" height="50" as="geometry" />
        </mxCell>
        <mxCell id="kj8fbqeVFcNUevWfHqB0-25" value="管理员显示昵称" style="ellipse;strokeWidth=2;whiteSpace=wrap;fontSize=14;fontFamily=KaiTi;" parent="1" vertex="1">
          <mxGeometry x="847" y="577" width="120" height="50" as="geometry" />
        </mxCell>
        <mxCell id="kj8fbqeVFcNUevWfHqB0-26" value="是否锁定" style="ellipse;strokeWidth=2;whiteSpace=wrap;fontSize=14;fontFamily=KaiTi;" parent="1" vertex="1">
          <mxGeometry x="874" y="651" width="120" height="50" as="geometry" />
        </mxCell>
        <mxCell id="kj8fbqeVFcNUevWfHqB0-27" value="" style="curved=1;startArrow=none;endArrow=none;exitX=1;exitY=0.5;entryX=0;entryY=0.34;rounded=0;exitDx=0;exitDy=0;html=1;fontSize=14;fontFamily=KaiTi;strokeWidth=2;" parent="1" source="kj8fbqeVFcNUevWfHqB0-22" target="kj8fbqeVFcNUevWfHqB0-21" edge="1">
          <mxGeometry relative="1" as="geometry" />
        </mxCell>
        <mxCell id="kj8fbqeVFcNUevWfHqB0-28" value="" style="curved=1;startArrow=none;endArrow=none;exitX=0.5;exitY=1;entryX=0;entryY=0.21;rounded=0;html=1;fontSize=14;fontFamily=KaiTi;strokeWidth=2;" parent="1" source="kj8fbqeVFcNUevWfHqB0-23" target="kj8fbqeVFcNUevWfHqB0-21" edge="1">
          <mxGeometry relative="1" as="geometry" />
        </mxCell>
        <mxCell id="kj8fbqeVFcNUevWfHqB0-29" value="" style="curved=1;startArrow=none;endArrow=none;exitX=0.5;exitY=1;entryX=0.5;entryY=0;rounded=0;html=1;fontSize=14;fontFamily=KaiTi;strokeWidth=2;" parent="1" source="kj8fbqeVFcNUevWfHqB0-24" target="kj8fbqeVFcNUevWfHqB0-21" edge="1">
          <mxGeometry relative="1" as="geometry" />
        </mxCell>
        <mxCell id="kj8fbqeVFcNUevWfHqB0-30" value="" style="curved=1;startArrow=none;endArrow=none;exitX=0;exitY=1;entryX=1;entryY=0.21;rounded=0;exitDx=0;exitDy=0;html=1;fontSize=14;fontFamily=KaiTi;strokeWidth=2;" parent="1" source="kj8fbqeVFcNUevWfHqB0-25" target="kj8fbqeVFcNUevWfHqB0-21" edge="1">
          <mxGeometry relative="1" as="geometry" />
        </mxCell>
        <mxCell id="kj8fbqeVFcNUevWfHqB0-31" value="" style="curved=1;startArrow=none;endArrow=none;exitX=0;exitY=0.5;entryX=1;entryY=0.37;rounded=0;exitDx=0;exitDy=0;html=1;fontSize=14;fontFamily=KaiTi;strokeWidth=2;" parent="1" source="kj8fbqeVFcNUevWfHqB0-26" target="kj8fbqeVFcNUevWfHqB0-21" edge="1">
          <mxGeometry relative="1" as="geometry" />
        </mxCell>
        <mxCell id="kj8fbqeVFcNUevWfHqB0-32" value="首页轮播图" style="whiteSpace=wrap;strokeWidth=2;fontSize=14;fontFamily=KaiTi;" parent="1" vertex="1">
          <mxGeometry x="697" y="915" width="140" height="54" as="geometry" />
        </mxCell>
        <mxCell id="kj8fbqeVFcNUevWfHqB0-33" value="主键ID" style="ellipse;strokeWidth=2;whiteSpace=wrap;fontSize=14;fontFamily=KaiTi;" parent="1" vertex="1">
          <mxGeometry x="707" y="1024" width="120" height="50" as="geometry" />
        </mxCell>
        <mxCell id="kj8fbqeVFcNUevWfHqB0-34" value="跳转地址" style="ellipse;strokeWidth=2;whiteSpace=wrap;fontSize=14;fontFamily=KaiTi;" parent="1" vertex="1">
          <mxGeometry x="516" y="913" width="120" height="50" as="geometry" />
        </mxCell>
        <mxCell id="kj8fbqeVFcNUevWfHqB0-35" value="排序值" style="ellipse;strokeWidth=2;whiteSpace=wrap;fontSize=14;fontFamily=KaiTi;" parent="1" vertex="1">
          <mxGeometry x="559" y="822" width="120" height="50" as="geometry" />
        </mxCell>
        <mxCell id="kj8fbqeVFcNUevWfHqB0-36" value="删除标识" style="ellipse;strokeWidth=2;whiteSpace=wrap;fontSize=14;fontFamily=KaiTi;" parent="1" vertex="1">
          <mxGeometry x="693" y="814" width="120" height="50" as="geometry" />
        </mxCell>
        <mxCell id="kj8fbqeVFcNUevWfHqB0-37" value="创建时间" style="ellipse;strokeWidth=2;whiteSpace=wrap;fontSize=14;fontFamily=KaiTi;" parent="1" vertex="1">
          <mxGeometry x="819" y="810" width="120" height="50" as="geometry" />
        </mxCell>
        <mxCell id="kj8fbqeVFcNUevWfHqB0-38" value="创建者ID" style="ellipse;strokeWidth=2;whiteSpace=wrap;fontSize=14;fontFamily=KaiTi;" parent="1" vertex="1">
          <mxGeometry x="922" y="844" width="120" height="50" as="geometry" />
        </mxCell>
        <mxCell id="kj8fbqeVFcNUevWfHqB0-39" value="修改时间" style="ellipse;strokeWidth=2;whiteSpace=wrap;fontSize=14;fontFamily=KaiTi;" parent="1" vertex="1">
          <mxGeometry x="962" y="941" width="120" height="50" as="geometry" />
        </mxCell>
        <mxCell id="kj8fbqeVFcNUevWfHqB0-40" value="修改者ID" style="ellipse;strokeWidth=2;whiteSpace=wrap;fontSize=14;fontFamily=KaiTi;" parent="1" vertex="1">
          <mxGeometry x="859" y="1024" width="120" height="50" as="geometry" />
        </mxCell>
        <mxCell id="kj8fbqeVFcNUevWfHqB0-41" value="" style="curved=1;startArrow=none;endArrow=none;exitX=1;exitY=0;entryX=0.25;entryY=1;rounded=0;entryDx=0;entryDy=0;exitDx=0;exitDy=0;html=1;fontSize=14;fontFamily=KaiTi;strokeWidth=2;" parent="1" source="kj8fbqeVFcNUevWfHqB0-50" target="kj8fbqeVFcNUevWfHqB0-32" edge="1">
          <mxGeometry relative="1" as="geometry" />
        </mxCell>
        <mxCell id="kj8fbqeVFcNUevWfHqB0-42" value="" style="curved=1;startArrow=none;endArrow=none;exitX=1;exitY=0.5;entryX=0;entryY=0.37;rounded=0;exitDx=0;exitDy=0;html=1;fontSize=14;fontFamily=KaiTi;strokeWidth=2;" parent="1" source="kj8fbqeVFcNUevWfHqB0-34" target="kj8fbqeVFcNUevWfHqB0-32" edge="1">
          <mxGeometry relative="1" as="geometry" />
        </mxCell>
        <mxCell id="kj8fbqeVFcNUevWfHqB0-43" value="" style="curved=1;startArrow=none;endArrow=none;exitX=0.5;exitY=1;entryX=0;entryY=0.24;rounded=0;html=1;fontSize=14;fontFamily=KaiTi;strokeWidth=2;" parent="1" source="kj8fbqeVFcNUevWfHqB0-35" target="kj8fbqeVFcNUevWfHqB0-32" edge="1">
          <mxGeometry relative="1" as="geometry" />
        </mxCell>
        <mxCell id="kj8fbqeVFcNUevWfHqB0-44" value="" style="curved=1;startArrow=none;endArrow=none;exitX=0.5;exitY=1;entryX=0.5;entryY=0;rounded=0;html=1;fontSize=14;fontFamily=KaiTi;strokeWidth=2;" parent="1" source="kj8fbqeVFcNUevWfHqB0-36" target="kj8fbqeVFcNUevWfHqB0-32" edge="1">
          <mxGeometry relative="1" as="geometry" />
        </mxCell>
        <mxCell id="kj8fbqeVFcNUevWfHqB0-45" value="" style="curved=1;startArrow=none;endArrow=none;exitX=0.5;exitY=1;entryX=1;entryY=0.16;rounded=0;html=1;fontSize=14;fontFamily=KaiTi;strokeWidth=2;" parent="1" source="kj8fbqeVFcNUevWfHqB0-37" target="kj8fbqeVFcNUevWfHqB0-32" edge="1">
          <mxGeometry relative="1" as="geometry" />
        </mxCell>
        <mxCell id="kj8fbqeVFcNUevWfHqB0-46" value="" style="curved=1;startArrow=none;endArrow=none;exitX=0.51;exitY=1;entryX=1;entryY=0.29;rounded=0;html=1;fontSize=14;fontFamily=KaiTi;strokeWidth=2;" parent="1" source="kj8fbqeVFcNUevWfHqB0-38" target="kj8fbqeVFcNUevWfHqB0-32" edge="1">
          <mxGeometry relative="1" as="geometry" />
        </mxCell>
        <mxCell id="kj8fbqeVFcNUevWfHqB0-47" value="" style="curved=1;startArrow=none;endArrow=none;exitX=0;exitY=0.5;entryX=1;entryY=0.35;rounded=0;exitDx=0;exitDy=0;html=1;fontSize=14;fontFamily=KaiTi;strokeWidth=2;" parent="1" source="kj8fbqeVFcNUevWfHqB0-39" target="kj8fbqeVFcNUevWfHqB0-32" edge="1">
          <mxGeometry relative="1" as="geometry" />
        </mxCell>
        <mxCell id="kj8fbqeVFcNUevWfHqB0-48" value="" style="curved=1;startArrow=none;endArrow=none;exitX=0.5;exitY=0;entryX=0.75;entryY=1;rounded=0;entryDx=0;entryDy=0;exitDx=0;exitDy=0;html=1;fontSize=14;fontFamily=KaiTi;strokeWidth=2;" parent="1" source="kj8fbqeVFcNUevWfHqB0-40" target="kj8fbqeVFcNUevWfHqB0-32" edge="1">
          <mxGeometry relative="1" as="geometry" />
        </mxCell>
        <mxCell id="kj8fbqeVFcNUevWfHqB0-49" value="" style="curved=1;startArrow=none;endArrow=none;exitX=0.5;exitY=0;entryX=0.5;entryY=1;rounded=0;entryDx=0;entryDy=0;exitDx=0;exitDy=0;html=1;fontSize=14;fontFamily=KaiTi;strokeWidth=2;" parent="1" source="kj8fbqeVFcNUevWfHqB0-33" target="kj8fbqeVFcNUevWfHqB0-32" edge="1">
          <mxGeometry relative="1" as="geometry">
            <mxPoint x="-60" y="855" as="sourcePoint" />
            <mxPoint x="697" y="938" as="targetPoint" />
          </mxGeometry>
        </mxCell>
        <mxCell id="kj8fbqeVFcNUevWfHqB0-50" value="轮播图" style="ellipse;strokeWidth=2;whiteSpace=wrap;fontSize=14;fontFamily=KaiTi;" parent="1" vertex="1">
          <mxGeometry x="546" y="1018" width="120" height="50" as="geometry" />
        </mxCell>
        <mxCell id="kj8fbqeVFcNUevWfHqB0-51" value="商品分类" style="whiteSpace=wrap;strokeWidth=2;fontSize=14;fontFamily=KaiTi;" parent="1" vertex="1">
          <mxGeometry x="712" y="1268" width="124" height="54" as="geometry" />
        </mxCell>
        <mxCell id="kj8fbqeVFcNUevWfHqB0-52" value="分类ID" style="ellipse;strokeWidth=2;whiteSpace=wrap;fontSize=14;fontFamily=KaiTi;" parent="1" vertex="1">
          <mxGeometry x="669" y="1349" width="120" height="50" as="geometry" />
        </mxCell>
        <mxCell id="kj8fbqeVFcNUevWfHqB0-53" value="分类级别" style="ellipse;strokeWidth=2;whiteSpace=wrap;fontSize=14;fontFamily=KaiTi;" parent="1" vertex="1">
          <mxGeometry x="577" y="1317" width="120" height="50" as="geometry" />
        </mxCell>
        <mxCell id="kj8fbqeVFcNUevWfHqB0-54" value="父分类ID" style="ellipse;strokeWidth=2;whiteSpace=wrap;fontSize=14;fontFamily=KaiTi;" parent="1" vertex="1">
          <mxGeometry x="557" y="1262" width="120" height="50" as="geometry" />
        </mxCell>
        <mxCell id="kj8fbqeVFcNUevWfHqB0-55" value="分类名称" style="ellipse;strokeWidth=2;whiteSpace=wrap;fontSize=14;fontFamily=KaiTi;" parent="1" vertex="1">
          <mxGeometry x="589" y="1204" width="120" height="50" as="geometry" />
        </mxCell>
        <mxCell id="kj8fbqeVFcNUevWfHqB0-56" value="排序值" style="ellipse;strokeWidth=2;whiteSpace=wrap;fontSize=14;fontFamily=KaiTi;" parent="1" vertex="1">
          <mxGeometry x="677" y="1174" width="120" height="50" as="geometry" />
        </mxCell>
        <mxCell id="kj8fbqeVFcNUevWfHqB0-57" value="删除标识" style="ellipse;strokeWidth=2;whiteSpace=wrap;fontSize=14;fontFamily=KaiTi;" parent="1" vertex="1">
          <mxGeometry x="784" y="1170" width="120" height="50" as="geometry" />
        </mxCell>
        <mxCell id="kj8fbqeVFcNUevWfHqB0-58" value="创建时间" style="ellipse;strokeWidth=2;whiteSpace=wrap;fontSize=14;fontFamily=KaiTi;" parent="1" vertex="1">
          <mxGeometry x="866" y="1212" width="120" height="50" as="geometry" />
        </mxCell>
        <mxCell id="kj8fbqeVFcNUevWfHqB0-59" value="创建者ID" style="ellipse;strokeWidth=2;whiteSpace=wrap;fontSize=14;fontFamily=KaiTi;" parent="1" vertex="1">
          <mxGeometry x="892" y="1272" width="120" height="50" as="geometry" />
        </mxCell>
        <mxCell id="kj8fbqeVFcNUevWfHqB0-60" value="修改时间" style="ellipse;strokeWidth=2;whiteSpace=wrap;fontSize=14;fontFamily=KaiTi;" parent="1" vertex="1">
          <mxGeometry x="767" y="1346" width="120" height="50" as="geometry" />
        </mxCell>
        <mxCell id="kj8fbqeVFcNUevWfHqB0-61" value="修改者ID" style="ellipse;strokeWidth=2;whiteSpace=wrap;fontSize=14;fontFamily=KaiTi;" parent="1" vertex="1">
          <mxGeometry x="874" y="1331" width="120" height="50" as="geometry" />
        </mxCell>
        <mxCell id="kj8fbqeVFcNUevWfHqB0-62" value="" style="curved=1;startArrow=none;endArrow=none;exitX=0.5;exitY=0;entryX=0.5;entryY=1;rounded=0;entryDx=0;entryDy=0;exitDx=0;exitDy=0;html=1;fontSize=14;fontFamily=KaiTi;strokeWidth=2;" parent="1" source="kj8fbqeVFcNUevWfHqB0-52" target="kj8fbqeVFcNUevWfHqB0-51" edge="1">
          <mxGeometry relative="1" as="geometry" />
        </mxCell>
        <mxCell id="kj8fbqeVFcNUevWfHqB0-63" value="" style="curved=1;startArrow=none;endArrow=none;exitX=1;exitY=0;entryX=0;entryY=0.75;rounded=0;entryDx=0;entryDy=0;exitDx=0;exitDy=0;html=1;fontSize=14;fontFamily=KaiTi;strokeWidth=2;" parent="1" source="kj8fbqeVFcNUevWfHqB0-53" target="kj8fbqeVFcNUevWfHqB0-51" edge="1">
          <mxGeometry relative="1" as="geometry" />
        </mxCell>
        <mxCell id="kj8fbqeVFcNUevWfHqB0-64" value="" style="curved=1;startArrow=none;endArrow=none;exitX=1;exitY=0.5;entryX=0;entryY=0.37;rounded=0;exitDx=0;exitDy=0;html=1;fontSize=14;fontFamily=KaiTi;strokeWidth=2;" parent="1" source="kj8fbqeVFcNUevWfHqB0-54" target="kj8fbqeVFcNUevWfHqB0-51" edge="1">
          <mxGeometry relative="1" as="geometry" />
        </mxCell>
        <mxCell id="kj8fbqeVFcNUevWfHqB0-65" value="" style="curved=1;startArrow=none;endArrow=none;exitX=1;exitY=1;entryX=0.25;entryY=0;rounded=0;entryDx=0;entryDy=0;exitDx=0;exitDy=0;html=1;fontSize=14;fontFamily=KaiTi;strokeWidth=2;" parent="1" source="kj8fbqeVFcNUevWfHqB0-55" target="kj8fbqeVFcNUevWfHqB0-51" edge="1">
          <mxGeometry relative="1" as="geometry" />
        </mxCell>
        <mxCell id="kj8fbqeVFcNUevWfHqB0-66" value="" style="curved=1;startArrow=none;endArrow=none;exitX=0.5;exitY=1;entryX=0.5;entryY=0;rounded=0;entryDx=0;entryDy=0;html=1;fontSize=14;fontFamily=KaiTi;strokeWidth=2;" parent="1" source="kj8fbqeVFcNUevWfHqB0-56" target="kj8fbqeVFcNUevWfHqB0-51" edge="1">
          <mxGeometry relative="1" as="geometry" />
        </mxCell>
        <mxCell id="kj8fbqeVFcNUevWfHqB0-67" value="" style="curved=1;startArrow=none;endArrow=none;exitX=0.5;exitY=1;entryX=0.75;entryY=0;rounded=0;entryDx=0;entryDy=0;html=1;fontSize=14;fontFamily=KaiTi;strokeWidth=2;" parent="1" source="kj8fbqeVFcNUevWfHqB0-57" target="kj8fbqeVFcNUevWfHqB0-51" edge="1">
          <mxGeometry relative="1" as="geometry" />
        </mxCell>
        <mxCell id="kj8fbqeVFcNUevWfHqB0-68" value="" style="curved=1;startArrow=none;endArrow=none;exitX=0;exitY=1;entryX=1;entryY=0.32;rounded=0;exitDx=0;exitDy=0;html=1;fontSize=14;fontFamily=KaiTi;strokeWidth=2;" parent="1" source="kj8fbqeVFcNUevWfHqB0-58" target="kj8fbqeVFcNUevWfHqB0-51" edge="1">
          <mxGeometry relative="1" as="geometry" />
        </mxCell>
        <mxCell id="kj8fbqeVFcNUevWfHqB0-69" value="" style="curved=1;startArrow=none;endArrow=none;exitX=0;exitY=0.5;entryX=1;entryY=0.5;rounded=0;exitDx=0;exitDy=0;html=1;entryDx=0;entryDy=0;fontSize=14;fontFamily=KaiTi;strokeWidth=2;" parent="1" source="kj8fbqeVFcNUevWfHqB0-59" target="kj8fbqeVFcNUevWfHqB0-51" edge="1">
          <mxGeometry relative="1" as="geometry" />
        </mxCell>
        <mxCell id="kj8fbqeVFcNUevWfHqB0-70" value="" style="curved=1;startArrow=none;endArrow=none;exitX=0.5;exitY=0;entryX=0.75;entryY=1;rounded=0;exitDx=0;exitDy=0;entryDx=0;entryDy=0;html=1;fontSize=14;fontFamily=KaiTi;strokeWidth=2;" parent="1" source="kj8fbqeVFcNUevWfHqB0-60" target="kj8fbqeVFcNUevWfHqB0-51" edge="1">
          <mxGeometry relative="1" as="geometry" />
        </mxCell>
        <mxCell id="kj8fbqeVFcNUevWfHqB0-71" value="" style="curved=1;startArrow=none;endArrow=none;exitX=0;exitY=0;entryX=1;entryY=0.75;rounded=0;exitDx=0;exitDy=0;html=1;entryDx=0;entryDy=0;fontSize=14;fontFamily=KaiTi;strokeWidth=2;" parent="1" source="kj8fbqeVFcNUevWfHqB0-61" target="kj8fbqeVFcNUevWfHqB0-51" edge="1">
          <mxGeometry relative="1" as="geometry" />
        </mxCell>
        <mxCell id="kj8fbqeVFcNUevWfHqB0-72" value="商品信息" style="whiteSpace=wrap;strokeWidth=2;fontSize=14;fontFamily=KaiTi;" parent="1" vertex="1">
          <mxGeometry x="749" y="1689" width="124" height="54" as="geometry" />
        </mxCell>
        <mxCell id="kj8fbqeVFcNUevWfHqB0-73" value="商品表主键ID" style="ellipse;strokeWidth=2;whiteSpace=wrap;fontSize=14;fontFamily=KaiTi;" parent="1" vertex="1">
          <mxGeometry x="523" y="1689" width="120" height="50" as="geometry" />
        </mxCell>
        <mxCell id="kj8fbqeVFcNUevWfHqB0-74" value="商品名" style="ellipse;strokeWidth=2;whiteSpace=wrap;fontSize=14;fontFamily=KaiTi;" parent="1" vertex="1">
          <mxGeometry x="539" y="1739" width="120" height="50" as="geometry" />
        </mxCell>
        <mxCell id="kj8fbqeVFcNUevWfHqB0-75" value="商品简介" style="ellipse;strokeWidth=2;whiteSpace=wrap;fontSize=14;fontFamily=KaiTi;" parent="1" vertex="1">
          <mxGeometry x="581" y="1782" width="120" height="50" as="geometry" />
        </mxCell>
        <mxCell id="kj8fbqeVFcNUevWfHqB0-76" value="关联分类ID" style="ellipse;strokeWidth=2;whiteSpace=wrap;fontSize=14;fontFamily=KaiTi;" parent="1" vertex="1">
          <mxGeometry x="686" y="1793" width="120" height="50" as="geometry" />
        </mxCell>
        <mxCell id="kj8fbqeVFcNUevWfHqB0-77" value="商品主图" style="ellipse;strokeWidth=2;whiteSpace=wrap;fontSize=14;fontFamily=KaiTi;" parent="1" vertex="1">
          <mxGeometry x="791" y="1793" width="120" height="50" as="geometry" />
        </mxCell>
        <mxCell id="kj8fbqeVFcNUevWfHqB0-78" value="商品轮播图" style="ellipse;strokeWidth=2;whiteSpace=wrap;fontSize=14;fontFamily=KaiTi;" parent="1" vertex="1">
          <mxGeometry x="537" y="1639" width="120" height="50" as="geometry" />
        </mxCell>
        <mxCell id="kj8fbqeVFcNUevWfHqB0-79" value="商品详情" style="ellipse;strokeWidth=2;whiteSpace=wrap;fontSize=14;fontFamily=KaiTi;" parent="1" vertex="1">
          <mxGeometry x="586" y="1593" width="120" height="50" as="geometry" />
        </mxCell>
        <mxCell id="kj8fbqeVFcNUevWfHqB0-80" value="商品价格" style="ellipse;strokeWidth=2;whiteSpace=wrap;fontSize=14;fontFamily=KaiTi;" parent="1" vertex="1">
          <mxGeometry x="671" y="1564" width="120" height="50" as="geometry" />
        </mxCell>
        <mxCell id="kj8fbqeVFcNUevWfHqB0-81" value="商品实际售价" style="ellipse;strokeWidth=2;whiteSpace=wrap;fontSize=14;fontFamily=KaiTi;" parent="1" vertex="1">
          <mxGeometry x="763" y="1564" width="112" height="50" as="geometry" />
        </mxCell>
        <mxCell id="kj8fbqeVFcNUevWfHqB0-82" value="商品库存数量" style="ellipse;strokeWidth=2;whiteSpace=wrap;fontSize=14;fontFamily=KaiTi;" parent="1" vertex="1">
          <mxGeometry x="860" y="1564" width="120" height="50" as="geometry" />
        </mxCell>
        <mxCell id="kj8fbqeVFcNUevWfHqB0-83" value="商品标签" style="ellipse;strokeWidth=2;whiteSpace=wrap;fontSize=14;fontFamily=KaiTi;" parent="1" vertex="1">
          <mxGeometry x="929" y="1587" width="120" height="50" as="geometry" />
        </mxCell>
        <mxCell id="kj8fbqeVFcNUevWfHqB0-84" value="商品上架状态" style="ellipse;strokeWidth=2;whiteSpace=wrap;fontSize=14;fontFamily=KaiTi;" parent="1" vertex="1">
          <mxGeometry x="982" y="1629" width="120" height="50" as="geometry" />
        </mxCell>
        <mxCell id="kj8fbqeVFcNUevWfHqB0-85" value="添加者主键ID" style="ellipse;strokeWidth=2;whiteSpace=wrap;fontSize=14;fontFamily=KaiTi;" parent="1" vertex="1">
          <mxGeometry x="985" y="1683" width="120" height="50" as="geometry" />
        </mxCell>
        <mxCell id="kj8fbqeVFcNUevWfHqB0-86" value="商品添加时间" style="ellipse;strokeWidth=2;whiteSpace=wrap;fontSize=14;fontFamily=KaiTi;" parent="1" vertex="1">
          <mxGeometry x="985" y="1727" width="120" height="50" as="geometry" />
        </mxCell>
        <mxCell id="kj8fbqeVFcNUevWfHqB0-87" value="修改者主键ID" style="ellipse;strokeWidth=2;whiteSpace=wrap;fontSize=14;fontFamily=KaiTi;" parent="1" vertex="1">
          <mxGeometry x="975" y="1770" width="120" height="50" as="geometry" />
        </mxCell>
        <mxCell id="kj8fbqeVFcNUevWfHqB0-88" value="商品修改时间" style="ellipse;strokeWidth=2;whiteSpace=wrap;fontSize=14;fontFamily=KaiTi;" parent="1" vertex="1">
          <mxGeometry x="892" y="1793" width="120" height="50" as="geometry" />
        </mxCell>
        <mxCell id="kj8fbqeVFcNUevWfHqB0-89" value="" style="curved=1;startArrow=none;endArrow=none;exitX=0.5;exitY=1;entryX=0;entryY=0.44;rounded=0;html=1;fontSize=14;fontFamily=KaiTi;strokeWidth=2;" parent="1" source="kj8fbqeVFcNUevWfHqB0-73" target="kj8fbqeVFcNUevWfHqB0-72" edge="1">
          <mxGeometry relative="1" as="geometry" />
        </mxCell>
        <mxCell id="kj8fbqeVFcNUevWfHqB0-90" value="" style="curved=1;startArrow=none;endArrow=none;exitX=1;exitY=0;entryX=0;entryY=0.75;rounded=0;html=1;exitDx=0;exitDy=0;entryDx=0;entryDy=0;fontSize=14;fontFamily=KaiTi;strokeWidth=2;" parent="1" source="kj8fbqeVFcNUevWfHqB0-74" target="kj8fbqeVFcNUevWfHqB0-72" edge="1">
          <mxGeometry relative="1" as="geometry" />
        </mxCell>
        <mxCell id="kj8fbqeVFcNUevWfHqB0-91" value="" style="curved=1;startArrow=none;endArrow=none;exitX=0.5;exitY=0;entryX=0;entryY=1;rounded=0;html=1;exitDx=0;exitDy=0;entryDx=0;entryDy=0;fontSize=14;fontFamily=KaiTi;strokeWidth=2;" parent="1" source="kj8fbqeVFcNUevWfHqB0-75" target="kj8fbqeVFcNUevWfHqB0-72" edge="1">
          <mxGeometry relative="1" as="geometry" />
        </mxCell>
        <mxCell id="kj8fbqeVFcNUevWfHqB0-92" value="" style="curved=1;startArrow=none;endArrow=none;exitX=0.5;exitY=0;entryX=0.25;entryY=1;rounded=0;html=1;entryDx=0;entryDy=0;exitDx=0;exitDy=0;fontSize=14;fontFamily=KaiTi;strokeWidth=2;" parent="1" source="kj8fbqeVFcNUevWfHqB0-76" target="kj8fbqeVFcNUevWfHqB0-72" edge="1">
          <mxGeometry relative="1" as="geometry" />
        </mxCell>
        <mxCell id="kj8fbqeVFcNUevWfHqB0-93" value="" style="curved=1;startArrow=none;endArrow=none;exitX=0.5;exitY=0;entryX=0.5;entryY=1;rounded=0;html=1;entryDx=0;entryDy=0;exitDx=0;exitDy=0;fontSize=14;fontFamily=KaiTi;strokeWidth=2;" parent="1" source="kj8fbqeVFcNUevWfHqB0-77" target="kj8fbqeVFcNUevWfHqB0-72" edge="1">
          <mxGeometry relative="1" as="geometry" />
        </mxCell>
        <mxCell id="kj8fbqeVFcNUevWfHqB0-94" value="" style="curved=1;startArrow=none;endArrow=none;exitX=1;exitY=1;entryX=0;entryY=0.32;rounded=0;html=1;exitDx=0;exitDy=0;fontSize=14;fontFamily=KaiTi;strokeWidth=2;" parent="1" source="kj8fbqeVFcNUevWfHqB0-78" target="kj8fbqeVFcNUevWfHqB0-72" edge="1">
          <mxGeometry relative="1" as="geometry" />
        </mxCell>
        <mxCell id="kj8fbqeVFcNUevWfHqB0-95" value="" style="curved=1;startArrow=none;endArrow=none;exitX=0.49;exitY=1;entryX=0;entryY=0;rounded=0;html=1;entryDx=0;entryDy=0;fontSize=14;fontFamily=KaiTi;strokeWidth=2;" parent="1" source="kj8fbqeVFcNUevWfHqB0-79" target="kj8fbqeVFcNUevWfHqB0-72" edge="1">
          <mxGeometry relative="1" as="geometry" />
        </mxCell>
        <mxCell id="kj8fbqeVFcNUevWfHqB0-96" value="" style="curved=1;startArrow=none;endArrow=none;exitX=0.49;exitY=1;entryX=0.25;entryY=0;rounded=0;html=1;entryDx=0;entryDy=0;fontSize=14;fontFamily=KaiTi;strokeWidth=2;" parent="1" source="kj8fbqeVFcNUevWfHqB0-80" target="kj8fbqeVFcNUevWfHqB0-72" edge="1">
          <mxGeometry relative="1" as="geometry" />
        </mxCell>
        <mxCell id="kj8fbqeVFcNUevWfHqB0-97" value="" style="curved=1;startArrow=none;endArrow=none;exitX=0.5;exitY=1;entryX=0.5;entryY=0;rounded=0;html=1;entryDx=0;entryDy=0;fontSize=14;fontFamily=KaiTi;strokeWidth=2;" parent="1" source="kj8fbqeVFcNUevWfHqB0-81" target="kj8fbqeVFcNUevWfHqB0-72" edge="1">
          <mxGeometry relative="1" as="geometry" />
        </mxCell>
        <mxCell id="kj8fbqeVFcNUevWfHqB0-98" value="" style="curved=1;startArrow=none;endArrow=none;exitX=0.5;exitY=1;entryX=0.75;entryY=0;rounded=0;html=1;entryDx=0;entryDy=0;fontSize=14;fontFamily=KaiTi;strokeWidth=2;" parent="1" source="kj8fbqeVFcNUevWfHqB0-82" target="kj8fbqeVFcNUevWfHqB0-72" edge="1">
          <mxGeometry relative="1" as="geometry" />
        </mxCell>
        <mxCell id="kj8fbqeVFcNUevWfHqB0-99" value="" style="curved=1;startArrow=none;endArrow=none;exitX=0;exitY=1;entryX=1;entryY=0.34;rounded=0;html=1;exitDx=0;exitDy=0;fontSize=14;fontFamily=KaiTi;strokeWidth=2;" parent="1" source="kj8fbqeVFcNUevWfHqB0-83" target="kj8fbqeVFcNUevWfHqB0-72" edge="1">
          <mxGeometry relative="1" as="geometry" />
        </mxCell>
        <mxCell id="kj8fbqeVFcNUevWfHqB0-100" value="" style="curved=1;startArrow=none;endArrow=none;exitX=0;exitY=1;entryX=1;entryY=0.4;rounded=0;html=1;exitDx=0;exitDy=0;fontSize=14;fontFamily=KaiTi;strokeWidth=2;" parent="1" source="kj8fbqeVFcNUevWfHqB0-84" target="kj8fbqeVFcNUevWfHqB0-72" edge="1">
          <mxGeometry relative="1" as="geometry" />
        </mxCell>
        <mxCell id="kj8fbqeVFcNUevWfHqB0-101" value="" style="curved=1;startArrow=none;endArrow=none;exitX=0;exitY=0.5;entryX=1;entryY=0.5;rounded=0;html=1;exitDx=0;exitDy=0;entryDx=0;entryDy=0;fontSize=14;fontFamily=KaiTi;strokeWidth=2;" parent="1" source="kj8fbqeVFcNUevWfHqB0-85" target="kj8fbqeVFcNUevWfHqB0-72" edge="1">
          <mxGeometry relative="1" as="geometry" />
        </mxCell>
        <mxCell id="kj8fbqeVFcNUevWfHqB0-102" value="" style="curved=1;startArrow=none;endArrow=none;exitX=0;exitY=0;entryX=1;entryY=0.75;rounded=0;html=1;exitDx=0;exitDy=0;entryDx=0;entryDy=0;fontSize=14;fontFamily=KaiTi;strokeWidth=2;" parent="1" source="kj8fbqeVFcNUevWfHqB0-86" target="kj8fbqeVFcNUevWfHqB0-72" edge="1">
          <mxGeometry relative="1" as="geometry" />
        </mxCell>
        <mxCell id="kj8fbqeVFcNUevWfHqB0-103" value="" style="curved=1;startArrow=none;endArrow=none;exitX=0;exitY=0;entryX=1;entryY=0.75;rounded=0;html=1;exitDx=0;exitDy=0;entryDx=0;entryDy=0;fontSize=14;fontFamily=KaiTi;strokeWidth=2;" parent="1" source="kj8fbqeVFcNUevWfHqB0-87" target="kj8fbqeVFcNUevWfHqB0-72" edge="1">
          <mxGeometry relative="1" as="geometry" />
        </mxCell>
        <mxCell id="kj8fbqeVFcNUevWfHqB0-104" value="" style="curved=1;startArrow=none;endArrow=none;exitX=0.5;exitY=0;entryX=1;entryY=1;rounded=0;html=1;exitDx=0;exitDy=0;entryDx=0;entryDy=0;fontSize=14;fontFamily=KaiTi;strokeWidth=2;" parent="1" source="kj8fbqeVFcNUevWfHqB0-88" target="kj8fbqeVFcNUevWfHqB0-72" edge="1">
          <mxGeometry relative="1" as="geometry" />
        </mxCell>
        <mxCell id="kj8fbqeVFcNUevWfHqB0-105" value="首页配置" style="whiteSpace=wrap;strokeWidth=2;fontSize=14;fontFamily=KaiTi;" parent="1" vertex="1">
          <mxGeometry x="1394" y="1667" width="124" height="54" as="geometry" />
        </mxCell>
        <mxCell id="kj8fbqeVFcNUevWfHqB0-106" value="主键ID" style="ellipse;strokeWidth=2;whiteSpace=wrap;fontSize=14;fontFamily=KaiTi;" parent="1" vertex="1">
          <mxGeometry x="1241" y="1647" width="120" height="50" as="geometry" />
        </mxCell>
        <mxCell id="kj8fbqeVFcNUevWfHqB0-107" value="显示字符" style="ellipse;strokeWidth=2;whiteSpace=wrap;fontSize=14;fontFamily=KaiTi;" parent="1" vertex="1">
          <mxGeometry x="1251" y="1697" width="120" height="50" as="geometry" />
        </mxCell>
        <mxCell id="kj8fbqeVFcNUevWfHqB0-108" value="配置类型" style="ellipse;strokeWidth=2;whiteSpace=wrap;fontSize=14;fontFamily=KaiTi;" parent="1" vertex="1">
          <mxGeometry x="1277" y="1740" width="120" height="50" as="geometry" />
        </mxCell>
        <mxCell id="kj8fbqeVFcNUevWfHqB0-109" value="商品ID" style="ellipse;strokeWidth=2;whiteSpace=wrap;fontSize=14;fontFamily=KaiTi;" parent="1" vertex="1">
          <mxGeometry x="1287" y="1602" width="120" height="50" as="geometry" />
        </mxCell>
        <mxCell id="kj8fbqeVFcNUevWfHqB0-110" value="跳转地址" style="ellipse;strokeWidth=2;whiteSpace=wrap;fontSize=14;fontFamily=KaiTi;" parent="1" vertex="1">
          <mxGeometry x="1394" y="1587" width="120" height="50" as="geometry" />
        </mxCell>
        <mxCell id="kj8fbqeVFcNUevWfHqB0-111" value="排序值" style="ellipse;strokeWidth=2;whiteSpace=wrap;fontSize=14;fontFamily=KaiTi;" parent="1" vertex="1">
          <mxGeometry x="1508" y="1587" width="120" height="50" as="geometry" />
        </mxCell>
        <mxCell id="kj8fbqeVFcNUevWfHqB0-112" value="删除标识" style="ellipse;strokeWidth=2;whiteSpace=wrap;fontSize=14;fontFamily=KaiTi;" parent="1" vertex="1">
          <mxGeometry x="1562" y="1631" width="120" height="50" as="geometry" />
        </mxCell>
        <mxCell id="kj8fbqeVFcNUevWfHqB0-113" value="创建时间" style="ellipse;strokeWidth=2;whiteSpace=wrap;fontSize=14;fontFamily=KaiTi;" parent="1" vertex="1">
          <mxGeometry x="1359" y="1761" width="120" height="50" as="geometry" />
        </mxCell>
        <mxCell id="kj8fbqeVFcNUevWfHqB0-114" value="创建者ID" style="ellipse;strokeWidth=2;whiteSpace=wrap;fontSize=14;fontFamily=KaiTi;" parent="1" vertex="1">
          <mxGeometry x="1460" y="1761" width="120" height="50" as="geometry" />
        </mxCell>
        <mxCell id="kj8fbqeVFcNUevWfHqB0-115" value="最新修改时间" style="ellipse;strokeWidth=2;whiteSpace=wrap;fontSize=14;fontFamily=KaiTi;" parent="1" vertex="1">
          <mxGeometry x="1551" y="1740" width="120" height="50" as="geometry" />
        </mxCell>
        <mxCell id="kj8fbqeVFcNUevWfHqB0-116" value="修改者ID" style="ellipse;strokeWidth=2;whiteSpace=wrap;fontSize=14;fontFamily=KaiTi;" parent="1" vertex="1">
          <mxGeometry x="1562" y="1690" width="120" height="50" as="geometry" />
        </mxCell>
        <mxCell id="kj8fbqeVFcNUevWfHqB0-117" value="" style="curved=1;startArrow=none;endArrow=none;exitX=1;exitY=0.5;entryX=0;entryY=0.25;rounded=0;exitDx=0;exitDy=0;entryDx=0;entryDy=0;html=1;fontSize=14;fontFamily=KaiTi;strokeWidth=2;" parent="1" source="kj8fbqeVFcNUevWfHqB0-106" target="kj8fbqeVFcNUevWfHqB0-105" edge="1">
          <mxGeometry relative="1" as="geometry" />
        </mxCell>
        <mxCell id="kj8fbqeVFcNUevWfHqB0-118" value="" style="curved=1;startArrow=none;endArrow=none;exitX=1;exitY=0.5;entryX=0;entryY=0.75;rounded=0;exitDx=0;exitDy=0;html=1;entryDx=0;entryDy=0;fontSize=14;fontFamily=KaiTi;strokeWidth=2;" parent="1" source="kj8fbqeVFcNUevWfHqB0-107" target="kj8fbqeVFcNUevWfHqB0-105" edge="1">
          <mxGeometry relative="1" as="geometry" />
        </mxCell>
        <mxCell id="kj8fbqeVFcNUevWfHqB0-119" value="" style="curved=1;startArrow=none;endArrow=none;exitX=1;exitY=0;entryX=0.25;entryY=1;rounded=0;entryDx=0;entryDy=0;exitDx=0;exitDy=0;html=1;fontSize=14;fontFamily=KaiTi;strokeWidth=2;" parent="1" source="kj8fbqeVFcNUevWfHqB0-108" target="kj8fbqeVFcNUevWfHqB0-105" edge="1">
          <mxGeometry relative="1" as="geometry" />
        </mxCell>
        <mxCell id="kj8fbqeVFcNUevWfHqB0-120" value="" style="curved=1;startArrow=none;endArrow=none;exitX=1;exitY=1;entryX=0.25;entryY=0;rounded=0;entryDx=0;entryDy=0;exitDx=0;exitDy=0;html=1;fontSize=14;fontFamily=KaiTi;strokeWidth=2;" parent="1" source="kj8fbqeVFcNUevWfHqB0-109" target="kj8fbqeVFcNUevWfHqB0-105" edge="1">
          <mxGeometry relative="1" as="geometry" />
        </mxCell>
        <mxCell id="kj8fbqeVFcNUevWfHqB0-121" value="" style="curved=1;startArrow=none;endArrow=none;exitX=0.5;exitY=1;entryX=0.5;entryY=0;rounded=0;entryDx=0;entryDy=0;html=1;fontSize=14;fontFamily=KaiTi;strokeWidth=2;" parent="1" source="kj8fbqeVFcNUevWfHqB0-110" target="kj8fbqeVFcNUevWfHqB0-105" edge="1">
          <mxGeometry relative="1" as="geometry" />
        </mxCell>
        <mxCell id="kj8fbqeVFcNUevWfHqB0-122" value="" style="curved=1;startArrow=none;endArrow=none;exitX=0;exitY=1;entryX=0.75;entryY=0;rounded=0;html=1;entryDx=0;entryDy=0;exitDx=0;exitDy=0;fontSize=14;fontFamily=KaiTi;strokeWidth=2;" parent="1" source="kj8fbqeVFcNUevWfHqB0-111" target="kj8fbqeVFcNUevWfHqB0-105" edge="1">
          <mxGeometry relative="1" as="geometry" />
        </mxCell>
        <mxCell id="kj8fbqeVFcNUevWfHqB0-123" value="" style="curved=1;startArrow=none;endArrow=none;exitX=0;exitY=1;entryX=1;entryY=0.27;rounded=0;exitDx=0;exitDy=0;html=1;fontSize=14;fontFamily=KaiTi;strokeWidth=2;" parent="1" source="kj8fbqeVFcNUevWfHqB0-112" target="kj8fbqeVFcNUevWfHqB0-105" edge="1">
          <mxGeometry relative="1" as="geometry" />
        </mxCell>
        <mxCell id="kj8fbqeVFcNUevWfHqB0-124" value="" style="curved=1;startArrow=none;endArrow=none;exitX=0.5;exitY=0;entryX=0.5;entryY=1;rounded=0;entryDx=0;entryDy=0;exitDx=0;exitDy=0;html=1;fontSize=14;fontFamily=KaiTi;strokeWidth=2;" parent="1" source="kj8fbqeVFcNUevWfHqB0-113" target="kj8fbqeVFcNUevWfHqB0-105" edge="1">
          <mxGeometry relative="1" as="geometry" />
        </mxCell>
        <mxCell id="kj8fbqeVFcNUevWfHqB0-125" value="" style="curved=1;startArrow=none;endArrow=none;exitX=0.5;exitY=0;rounded=0;exitDx=0;exitDy=0;entryX=0.75;entryY=1;entryDx=0;entryDy=0;html=1;fontSize=14;fontFamily=KaiTi;strokeWidth=2;" parent="1" source="kj8fbqeVFcNUevWfHqB0-114" target="kj8fbqeVFcNUevWfHqB0-105" edge="1">
          <mxGeometry relative="1" as="geometry">
            <mxPoint x="1561" y="1665" as="targetPoint" />
          </mxGeometry>
        </mxCell>
        <mxCell id="kj8fbqeVFcNUevWfHqB0-126" value="" style="curved=1;startArrow=none;endArrow=none;exitX=0;exitY=0;entryX=1;entryY=0.75;rounded=0;exitDx=0;exitDy=0;entryDx=0;entryDy=0;html=1;fontSize=14;fontFamily=KaiTi;strokeWidth=2;" parent="1" source="kj8fbqeVFcNUevWfHqB0-115" target="kj8fbqeVFcNUevWfHqB0-105" edge="1">
          <mxGeometry relative="1" as="geometry" />
        </mxCell>
        <mxCell id="kj8fbqeVFcNUevWfHqB0-127" value="" style="curved=1;startArrow=none;endArrow=none;exitX=0;exitY=0;entryX=1;entryY=0.43;rounded=0;exitDx=0;exitDy=0;html=1;fontSize=14;fontFamily=KaiTi;strokeWidth=2;" parent="1" source="kj8fbqeVFcNUevWfHqB0-116" target="kj8fbqeVFcNUevWfHqB0-105" edge="1">
          <mxGeometry relative="1" as="geometry" />
        </mxCell>
        <mxCell id="kj8fbqeVFcNUevWfHqB0-128" value="订单" style="whiteSpace=wrap;strokeWidth=2;fontSize=14;fontFamily=KaiTi;" parent="1" vertex="1">
          <mxGeometry x="774" y="2022" width="92" height="54" as="geometry" />
        </mxCell>
        <mxCell id="kj8fbqeVFcNUevWfHqB0-129" value="主键ID" style="ellipse;strokeWidth=2;whiteSpace=wrap;fontSize=14;fontFamily=KaiTi;" parent="1" vertex="1">
          <mxGeometry x="568" y="1970" width="120" height="50" as="geometry" />
        </mxCell>
        <mxCell id="kj8fbqeVFcNUevWfHqB0-130" value="订单号" style="ellipse;strokeWidth=2;whiteSpace=wrap;fontSize=14;fontFamily=KaiTi;" parent="1" vertex="1">
          <mxGeometry x="539" y="2016" width="120" height="50" as="geometry" />
        </mxCell>
        <mxCell id="kj8fbqeVFcNUevWfHqB0-131" value="用户主键ID" style="ellipse;strokeWidth=2;whiteSpace=wrap;fontSize=14;fontFamily=KaiTi;" parent="1" vertex="1">
          <mxGeometry x="553" y="2066" width="120" height="50" as="geometry" />
        </mxCell>
        <mxCell id="kj8fbqeVFcNUevWfHqB0-132" value="订单总价" style="ellipse;strokeWidth=2;whiteSpace=wrap;fontSize=14;fontFamily=KaiTi;" parent="1" vertex="1">
          <mxGeometry x="611" y="2106" width="120" height="50" as="geometry" />
        </mxCell>
        <mxCell id="kj8fbqeVFcNUevWfHqB0-133" value="支付状态" style="ellipse;strokeWidth=2;whiteSpace=wrap;fontSize=14;fontFamily=KaiTi;" parent="1" vertex="1">
          <mxGeometry x="673" y="2140" width="120" height="50" as="geometry" />
        </mxCell>
        <mxCell id="kj8fbqeVFcNUevWfHqB0-134" value="支付方式" style="ellipse;strokeWidth=2;whiteSpace=wrap;fontSize=14;fontFamily=KaiTi;" parent="1" vertex="1">
          <mxGeometry x="640" y="1938" width="120" height="50" as="geometry" />
        </mxCell>
        <mxCell id="kj8fbqeVFcNUevWfHqB0-135" value="支付时间" style="ellipse;strokeWidth=2;whiteSpace=wrap;fontSize=14;fontFamily=KaiTi;" parent="1" vertex="1">
          <mxGeometry x="722" y="1923" width="120" height="50" as="geometry" />
        </mxCell>
        <mxCell id="kj8fbqeVFcNUevWfHqB0-136" value="订单状态" style="ellipse;strokeWidth=2;whiteSpace=wrap;fontSize=14;fontFamily=KaiTi;" parent="1" vertex="1">
          <mxGeometry x="816" y="1927" width="120" height="50" as="geometry" />
        </mxCell>
        <mxCell id="kj8fbqeVFcNUevWfHqB0-137" value="订单内容" style="ellipse;strokeWidth=2;whiteSpace=wrap;fontSize=14;fontFamily=KaiTi;" parent="1" vertex="1">
          <mxGeometry x="912" y="1932" width="120" height="50" as="geometry" />
        </mxCell>
        <mxCell id="kj8fbqeVFcNUevWfHqB0-138" value="收货人姓名" style="ellipse;strokeWidth=2;whiteSpace=wrap;fontSize=14;fontFamily=KaiTi;" parent="1" vertex="1">
          <mxGeometry x="983" y="1966" width="120" height="50" as="geometry" />
        </mxCell>
        <mxCell id="kj8fbqeVFcNUevWfHqB0-139" value="收货人手机号" style="ellipse;strokeWidth=2;whiteSpace=wrap;fontSize=14;fontFamily=KaiTi;" parent="1" vertex="1">
          <mxGeometry x="760" y="2140" width="120" height="50" as="geometry" />
        </mxCell>
        <mxCell id="kj8fbqeVFcNUevWfHqB0-140" value="收货人收货地址" style="ellipse;strokeWidth=2;whiteSpace=wrap;fontSize=14;fontFamily=KaiTi;" parent="1" vertex="1">
          <mxGeometry x="856" y="2140" width="120" height="50" as="geometry" />
        </mxCell>
        <mxCell id="kj8fbqeVFcNUevWfHqB0-141" value="删除标识" style="ellipse;strokeWidth=2;whiteSpace=wrap;fontSize=14;fontFamily=KaiTi;" parent="1" vertex="1">
          <mxGeometry x="957" y="2130" width="120" height="50" as="geometry" />
        </mxCell>
        <mxCell id="kj8fbqeVFcNUevWfHqB0-142" value="创建时间" style="ellipse;strokeWidth=2;whiteSpace=wrap;fontSize=14;fontFamily=KaiTi;" parent="1" vertex="1">
          <mxGeometry x="976" y="2073" width="120" height="50" as="geometry" />
        </mxCell>
        <mxCell id="kj8fbqeVFcNUevWfHqB0-143" value="最新修改时间" style="ellipse;strokeWidth=2;whiteSpace=wrap;fontSize=14;fontFamily=KaiTi;" parent="1" vertex="1">
          <mxGeometry x="976" y="2020" width="120" height="50" as="geometry" />
        </mxCell>
        <mxCell id="kj8fbqeVFcNUevWfHqB0-144" value="" style="curved=1;startArrow=none;endArrow=none;exitX=1;exitY=0.5;entryX=0;entryY=0.46;rounded=0;html=1;exitDx=0;exitDy=0;fontSize=14;fontFamily=KaiTi;strokeWidth=2;" parent="1" source="kj8fbqeVFcNUevWfHqB0-130" target="kj8fbqeVFcNUevWfHqB0-128" edge="1">
          <mxGeometry relative="1" as="geometry" />
        </mxCell>
        <mxCell id="kj8fbqeVFcNUevWfHqB0-145" value="" style="curved=1;startArrow=none;endArrow=none;exitX=1;exitY=1;entryX=0;entryY=0.46;rounded=0;html=1;exitDx=0;exitDy=0;fontSize=14;fontFamily=KaiTi;strokeWidth=2;" parent="1" source="kj8fbqeVFcNUevWfHqB0-129" target="kj8fbqeVFcNUevWfHqB0-128" edge="1">
          <mxGeometry relative="1" as="geometry" />
        </mxCell>
        <mxCell id="kj8fbqeVFcNUevWfHqB0-146" value="" style="curved=1;startArrow=none;endArrow=none;exitX=1;exitY=0;entryX=0;entryY=0.5;rounded=0;exitDx=0;exitDy=0;html=1;entryDx=0;entryDy=0;fontSize=14;fontFamily=KaiTi;strokeWidth=2;" parent="1" source="kj8fbqeVFcNUevWfHqB0-131" target="kj8fbqeVFcNUevWfHqB0-128" edge="1">
          <mxGeometry relative="1" as="geometry" />
        </mxCell>
        <mxCell id="kj8fbqeVFcNUevWfHqB0-147" value="" style="curved=1;startArrow=none;endArrow=none;exitX=0.5;exitY=0;entryX=0;entryY=0.75;rounded=0;exitDx=0;exitDy=0;html=1;entryDx=0;entryDy=0;fontSize=14;fontFamily=KaiTi;strokeWidth=2;" parent="1" source="kj8fbqeVFcNUevWfHqB0-132" target="kj8fbqeVFcNUevWfHqB0-128" edge="1">
          <mxGeometry relative="1" as="geometry" />
        </mxCell>
        <mxCell id="kj8fbqeVFcNUevWfHqB0-148" value="" style="curved=1;startArrow=none;endArrow=none;exitX=0.5;exitY=0;entryX=0.25;entryY=1;rounded=0;exitDx=0;exitDy=0;html=1;entryDx=0;entryDy=0;fontSize=14;fontFamily=KaiTi;strokeWidth=2;" parent="1" source="kj8fbqeVFcNUevWfHqB0-133" target="kj8fbqeVFcNUevWfHqB0-128" edge="1">
          <mxGeometry relative="1" as="geometry">
            <Array as="points">
              <mxPoint x="740" y="2142" />
            </Array>
          </mxGeometry>
        </mxCell>
        <mxCell id="kj8fbqeVFcNUevWfHqB0-149" value="" style="curved=1;startArrow=none;endArrow=none;exitX=0.5;exitY=1;entryX=0;entryY=0;rounded=0;html=1;entryDx=0;entryDy=0;fontSize=14;fontFamily=KaiTi;strokeWidth=2;" parent="1" source="kj8fbqeVFcNUevWfHqB0-134" target="kj8fbqeVFcNUevWfHqB0-128" edge="1">
          <mxGeometry relative="1" as="geometry" />
        </mxCell>
        <mxCell id="kj8fbqeVFcNUevWfHqB0-150" value="" style="curved=1;startArrow=none;endArrow=none;exitX=0.49;exitY=1;entryX=0.25;entryY=0;rounded=0;html=1;entryDx=0;entryDy=0;fontSize=14;fontFamily=KaiTi;strokeWidth=2;" parent="1" source="kj8fbqeVFcNUevWfHqB0-135" target="kj8fbqeVFcNUevWfHqB0-128" edge="1">
          <mxGeometry relative="1" as="geometry" />
        </mxCell>
        <mxCell id="kj8fbqeVFcNUevWfHqB0-151" value="" style="curved=1;startArrow=none;endArrow=none;exitX=0.5;exitY=1;entryX=0.5;entryY=0;rounded=0;html=1;fontSize=14;fontFamily=KaiTi;strokeWidth=2;" parent="1" source="kj8fbqeVFcNUevWfHqB0-136" target="kj8fbqeVFcNUevWfHqB0-128" edge="1">
          <mxGeometry relative="1" as="geometry" />
        </mxCell>
        <mxCell id="kj8fbqeVFcNUevWfHqB0-152" value="" style="curved=1;startArrow=none;endArrow=none;exitX=0.5;exitY=1;entryX=1;entryY=0.28;rounded=0;html=1;fontSize=14;fontFamily=KaiTi;strokeWidth=2;" parent="1" source="kj8fbqeVFcNUevWfHqB0-137" target="kj8fbqeVFcNUevWfHqB0-128" edge="1">
          <mxGeometry relative="1" as="geometry" />
        </mxCell>
        <mxCell id="kj8fbqeVFcNUevWfHqB0-153" value="" style="curved=1;startArrow=none;endArrow=none;exitX=0;exitY=1;entryX=1;entryY=0.37;rounded=0;exitDx=0;exitDy=0;html=1;fontSize=14;fontFamily=KaiTi;strokeWidth=2;" parent="1" source="kj8fbqeVFcNUevWfHqB0-138" target="kj8fbqeVFcNUevWfHqB0-128" edge="1">
          <mxGeometry relative="1" as="geometry" />
        </mxCell>
        <mxCell id="kj8fbqeVFcNUevWfHqB0-154" value="" style="curved=1;startArrow=none;endArrow=none;exitX=0.5;exitY=0;entryX=0.5;entryY=1;rounded=0;entryDx=0;entryDy=0;exitDx=0;exitDy=0;html=1;fontSize=14;fontFamily=KaiTi;strokeWidth=2;" parent="1" source="kj8fbqeVFcNUevWfHqB0-139" target="kj8fbqeVFcNUevWfHqB0-128" edge="1">
          <mxGeometry relative="1" as="geometry" />
        </mxCell>
        <mxCell id="kj8fbqeVFcNUevWfHqB0-155" value="" style="curved=1;startArrow=none;endArrow=none;exitX=0.5;exitY=0;entryX=0.75;entryY=1;rounded=0;exitDx=0;exitDy=0;entryDx=0;entryDy=0;html=1;fontSize=14;fontFamily=KaiTi;strokeWidth=2;" parent="1" source="kj8fbqeVFcNUevWfHqB0-140" target="kj8fbqeVFcNUevWfHqB0-128" edge="1">
          <mxGeometry relative="1" as="geometry" />
        </mxCell>
        <mxCell id="kj8fbqeVFcNUevWfHqB0-156" value="" style="curved=1;startArrow=none;endArrow=none;exitX=0;exitY=0;entryX=1;entryY=0.75;rounded=0;exitDx=0;exitDy=0;html=1;entryDx=0;entryDy=0;fontSize=14;fontFamily=KaiTi;strokeWidth=2;" parent="1" source="kj8fbqeVFcNUevWfHqB0-141" target="kj8fbqeVFcNUevWfHqB0-128" edge="1">
          <mxGeometry relative="1" as="geometry" />
        </mxCell>
        <mxCell id="kj8fbqeVFcNUevWfHqB0-157" value="" style="curved=1;startArrow=none;endArrow=none;exitX=0;exitY=0;entryX=1;entryY=0.75;rounded=0;exitDx=0;exitDy=0;html=1;entryDx=0;entryDy=0;fontSize=14;fontFamily=KaiTi;strokeWidth=2;" parent="1" source="kj8fbqeVFcNUevWfHqB0-142" target="kj8fbqeVFcNUevWfHqB0-128" edge="1">
          <mxGeometry relative="1" as="geometry" />
        </mxCell>
        <mxCell id="kj8fbqeVFcNUevWfHqB0-158" value="" style="curved=1;startArrow=none;endArrow=none;exitX=0;exitY=0.5;rounded=0;exitDx=0;exitDy=0;html=1;fontSize=14;fontFamily=KaiTi;strokeWidth=2;" parent="1" source="kj8fbqeVFcNUevWfHqB0-143" edge="1">
          <mxGeometry relative="1" as="geometry">
            <mxPoint x="866" y="2047" as="targetPoint" />
          </mxGeometry>
        </mxCell>
        <mxCell id="kj8fbqeVFcNUevWfHqB0-159" value="订单商品" style="whiteSpace=wrap;strokeWidth=2;fontSize=14;fontFamily=KaiTi;" parent="1" vertex="1">
          <mxGeometry x="784" y="2409" width="92" height="54" as="geometry" />
        </mxCell>
        <mxCell id="kj8fbqeVFcNUevWfHqB0-160" value="主键id" style="ellipse;strokeWidth=2;whiteSpace=wrap;fontSize=14;fontFamily=KaiTi;" parent="1" vertex="1">
          <mxGeometry x="601" y="2422" width="120" height="50" as="geometry" />
        </mxCell>
        <mxCell id="kj8fbqeVFcNUevWfHqB0-161" value="关联商品id" style="ellipse;strokeWidth=2;whiteSpace=wrap;fontSize=14;fontFamily=KaiTi;" parent="1" vertex="1">
          <mxGeometry x="633" y="2479" width="120" height="50" as="geometry" />
        </mxCell>
        <mxCell id="kj8fbqeVFcNUevWfHqB0-162" value="下单时商品名称" style="ellipse;strokeWidth=2;whiteSpace=wrap;fontSize=14;fontFamily=KaiTi;" parent="1" vertex="1">
          <mxGeometry x="745" y="2510" width="120" height="50" as="geometry" />
        </mxCell>
        <mxCell id="kj8fbqeVFcNUevWfHqB0-163" value="下单时商品主图" style="ellipse;strokeWidth=2;whiteSpace=wrap;fontSize=14;fontFamily=KaiTi;" parent="1" vertex="1">
          <mxGeometry x="616" y="2363" width="120" height="50" as="geometry" />
        </mxCell>
        <mxCell id="kj8fbqeVFcNUevWfHqB0-164" value="下单时商品价格" style="ellipse;strokeWidth=2;whiteSpace=wrap;fontSize=14;fontFamily=KaiTi;" parent="1" vertex="1">
          <mxGeometry x="697" y="2319" width="120" height="50" as="geometry" />
        </mxCell>
        <mxCell id="kj8fbqeVFcNUevWfHqB0-165" value="数量" style="ellipse;strokeWidth=2;whiteSpace=wrap;fontSize=14;fontFamily=KaiTi;" parent="1" vertex="1">
          <mxGeometry x="819" y="2319" width="120" height="50" as="geometry" />
        </mxCell>
        <mxCell id="kj8fbqeVFcNUevWfHqB0-166" value="创建时间" style="ellipse;strokeWidth=2;whiteSpace=wrap;fontSize=14;fontFamily=KaiTi;" parent="1" vertex="1">
          <mxGeometry x="927" y="2341" width="120" height="50" as="geometry" />
        </mxCell>
        <mxCell id="kj8fbqeVFcNUevWfHqB0-167" value="评价内容" style="ellipse;strokeWidth=2;whiteSpace=wrap;fontSize=14;fontFamily=KaiTi;" parent="1" vertex="1">
          <mxGeometry x="876" y="2514" width="120" height="50" as="geometry" />
        </mxCell>
        <mxCell id="kj8fbqeVFcNUevWfHqB0-168" value="评价分数" style="ellipse;strokeWidth=2;whiteSpace=wrap;fontSize=14;fontFamily=KaiTi;" parent="1" vertex="1">
          <mxGeometry x="954" y="2454" width="120" height="50" as="geometry" />
        </mxCell>
        <mxCell id="kj8fbqeVFcNUevWfHqB0-169" value="评价图片" style="ellipse;strokeWidth=2;whiteSpace=wrap;fontSize=14;fontFamily=KaiTi;" parent="1" vertex="1">
          <mxGeometry x="967" y="2393" width="120" height="50" as="geometry" />
        </mxCell>
        <mxCell id="kj8fbqeVFcNUevWfHqB0-170" value="" style="curved=1;startArrow=none;endArrow=none;exitX=1;exitY=0.5;entryX=0;entryY=0.44;rounded=0;exitDx=0;exitDy=0;html=1;fontSize=14;fontFamily=KaiTi;strokeWidth=2;" parent="1" source="kj8fbqeVFcNUevWfHqB0-160" target="kj8fbqeVFcNUevWfHqB0-159" edge="1">
          <mxGeometry relative="1" as="geometry" />
        </mxCell>
        <mxCell id="kj8fbqeVFcNUevWfHqB0-171" value="" style="curved=1;startArrow=none;endArrow=none;exitX=1;exitY=0;entryX=0;entryY=0.42;rounded=0;exitDx=0;exitDy=0;html=1;fontSize=14;fontFamily=KaiTi;strokeWidth=2;" parent="1" source="kj8fbqeVFcNUevWfHqB0-161" target="kj8fbqeVFcNUevWfHqB0-159" edge="1">
          <mxGeometry relative="1" as="geometry" />
        </mxCell>
        <mxCell id="kj8fbqeVFcNUevWfHqB0-172" value="" style="curved=1;startArrow=none;endArrow=none;exitX=0.5;exitY=0;entryX=0.5;entryY=1;rounded=0;entryDx=0;entryDy=0;exitDx=0;exitDy=0;html=1;fontSize=14;fontFamily=KaiTi;strokeWidth=2;" parent="1" source="kj8fbqeVFcNUevWfHqB0-162" target="kj8fbqeVFcNUevWfHqB0-159" edge="1">
          <mxGeometry relative="1" as="geometry" />
        </mxCell>
        <mxCell id="kj8fbqeVFcNUevWfHqB0-173" value="" style="curved=1;startArrow=none;endArrow=none;exitX=1;exitY=1;entryX=0;entryY=0.32;rounded=0;exitDx=0;exitDy=0;html=1;fontSize=14;fontFamily=KaiTi;strokeWidth=2;" parent="1" source="kj8fbqeVFcNUevWfHqB0-163" target="kj8fbqeVFcNUevWfHqB0-159" edge="1">
          <mxGeometry relative="1" as="geometry" />
        </mxCell>
        <mxCell id="kj8fbqeVFcNUevWfHqB0-174" value="" style="curved=1;startArrow=none;endArrow=none;exitX=0.5;exitY=1;entryX=0.11;entryY=0;rounded=0;html=1;fontSize=14;fontFamily=KaiTi;strokeWidth=2;" parent="1" source="kj8fbqeVFcNUevWfHqB0-164" target="kj8fbqeVFcNUevWfHqB0-159" edge="1">
          <mxGeometry relative="1" as="geometry" />
        </mxCell>
        <mxCell id="kj8fbqeVFcNUevWfHqB0-175" value="" style="curved=1;startArrow=none;endArrow=none;exitX=0.5;exitY=1;entryX=0.89;entryY=0;rounded=0;html=1;fontSize=14;fontFamily=KaiTi;strokeWidth=2;" parent="1" source="kj8fbqeVFcNUevWfHqB0-165" target="kj8fbqeVFcNUevWfHqB0-159" edge="1">
          <mxGeometry relative="1" as="geometry" />
        </mxCell>
        <mxCell id="kj8fbqeVFcNUevWfHqB0-176" value="" style="curved=1;startArrow=none;endArrow=none;exitX=0.5;exitY=1;entryX=1;entryY=0.26;rounded=0;html=1;fontSize=14;fontFamily=KaiTi;strokeWidth=2;" parent="1" source="kj8fbqeVFcNUevWfHqB0-166" target="kj8fbqeVFcNUevWfHqB0-159" edge="1">
          <mxGeometry relative="1" as="geometry" />
        </mxCell>
        <mxCell id="kj8fbqeVFcNUevWfHqB0-177" value="" style="curved=1;startArrow=none;endArrow=none;exitX=0.5;exitY=0;entryX=0.75;entryY=1;rounded=0;exitDx=0;exitDy=0;entryDx=0;entryDy=0;html=1;fontSize=14;fontFamily=KaiTi;strokeWidth=2;" parent="1" source="kj8fbqeVFcNUevWfHqB0-167" target="kj8fbqeVFcNUevWfHqB0-159" edge="1">
          <mxGeometry relative="1" as="geometry" />
        </mxCell>
        <mxCell id="kj8fbqeVFcNUevWfHqB0-178" value="" style="curved=1;startArrow=none;endArrow=none;exitX=0;exitY=0.5;entryX=1;entryY=0.75;rounded=0;exitDx=0;exitDy=0;entryDx=0;entryDy=0;html=1;fontSize=14;fontFamily=KaiTi;strokeWidth=2;" parent="1" source="kj8fbqeVFcNUevWfHqB0-168" target="kj8fbqeVFcNUevWfHqB0-159" edge="1">
          <mxGeometry relative="1" as="geometry" />
        </mxCell>
        <mxCell id="kj8fbqeVFcNUevWfHqB0-179" value="" style="curved=1;startArrow=none;endArrow=none;exitX=0.5;exitY=1;entryX=1;entryY=0.42;rounded=0;html=1;fontSize=14;fontFamily=KaiTi;strokeWidth=2;" parent="1" source="kj8fbqeVFcNUevWfHqB0-169" target="kj8fbqeVFcNUevWfHqB0-159" edge="1">
          <mxGeometry relative="1" as="geometry" />
        </mxCell>
        <mxCell id="kj8fbqeVFcNUevWfHqB0-180" value="购物项" style="whiteSpace=wrap;strokeWidth=2;fontSize=14;fontFamily=KaiTi;" parent="1" vertex="1">
          <mxGeometry x="854.5" y="2764" width="108" height="54" as="geometry" />
        </mxCell>
        <mxCell id="kj8fbqeVFcNUevWfHqB0-181" value="购物项主键id" style="ellipse;strokeWidth=2;whiteSpace=wrap;fontSize=14;fontFamily=KaiTi;" parent="1" vertex="1">
          <mxGeometry x="691.5" y="2788" width="120" height="50" as="geometry" />
        </mxCell>
        <mxCell id="kj8fbqeVFcNUevWfHqB0-182" value="用户主键id" style="ellipse;strokeWidth=2;whiteSpace=wrap;fontSize=14;fontFamily=KaiTi;" parent="1" vertex="1">
          <mxGeometry x="791.5" y="2856" width="120" height="50" as="geometry" />
        </mxCell>
        <mxCell id="kj8fbqeVFcNUevWfHqB0-183" value="关联商品id" style="ellipse;strokeWidth=2;whiteSpace=wrap;fontSize=14;fontFamily=KaiTi;" parent="1" vertex="1">
          <mxGeometry x="706.5" y="2694" width="120" height="50" as="geometry" />
        </mxCell>
        <mxCell id="kj8fbqeVFcNUevWfHqB0-184" value="数量" style="ellipse;strokeWidth=2;whiteSpace=wrap;fontSize=14;fontFamily=KaiTi;" parent="1" vertex="1">
          <mxGeometry x="848.5" y="2683" width="120" height="50" as="geometry" />
        </mxCell>
        <mxCell id="kj8fbqeVFcNUevWfHqB0-185" value="删除标识" style="ellipse;strokeWidth=2;whiteSpace=wrap;fontSize=14;fontFamily=KaiTi;" parent="1" vertex="1">
          <mxGeometry x="990.5" y="2689" width="120" height="50" as="geometry" />
        </mxCell>
        <mxCell id="kj8fbqeVFcNUevWfHqB0-186" value="创建时间" style="ellipse;strokeWidth=2;whiteSpace=wrap;fontSize=14;fontFamily=KaiTi;" parent="1" vertex="1">
          <mxGeometry x="929.5" y="2852" width="120" height="50" as="geometry" />
        </mxCell>
        <mxCell id="kj8fbqeVFcNUevWfHqB0-187" value="最新修改时间" style="ellipse;strokeWidth=2;whiteSpace=wrap;fontSize=14;fontFamily=KaiTi;" parent="1" vertex="1">
          <mxGeometry x="1014.5" y="2796" width="120" height="50" as="geometry" />
        </mxCell>
        <mxCell id="kj8fbqeVFcNUevWfHqB0-188" value="" style="curved=1;startArrow=none;endArrow=none;exitX=1;exitY=0;entryX=0;entryY=0.39;rounded=0;exitDx=0;exitDy=0;html=1;fontSize=14;fontFamily=KaiTi;strokeWidth=2;" parent="1" source="kj8fbqeVFcNUevWfHqB0-181" target="kj8fbqeVFcNUevWfHqB0-180" edge="1">
          <mxGeometry relative="1" as="geometry" />
        </mxCell>
        <mxCell id="kj8fbqeVFcNUevWfHqB0-189" value="" style="curved=1;startArrow=none;endArrow=none;exitX=0.5;exitY=0;entryX=0.322;entryY=0.967;rounded=0;exitDx=0;exitDy=0;entryDx=0;entryDy=0;entryPerimeter=0;html=1;fontSize=14;fontFamily=KaiTi;strokeWidth=2;" parent="1" source="kj8fbqeVFcNUevWfHqB0-182" target="kj8fbqeVFcNUevWfHqB0-180" edge="1">
          <mxGeometry relative="1" as="geometry" />
        </mxCell>
        <mxCell id="kj8fbqeVFcNUevWfHqB0-190" value="" style="curved=1;startArrow=none;endArrow=none;exitX=0.5;exitY=1.01;entryX=0;entryY=0.18;rounded=0;html=1;fontSize=14;fontFamily=KaiTi;strokeWidth=2;" parent="1" source="kj8fbqeVFcNUevWfHqB0-183" target="kj8fbqeVFcNUevWfHqB0-180" edge="1">
          <mxGeometry relative="1" as="geometry" />
        </mxCell>
        <mxCell id="kj8fbqeVFcNUevWfHqB0-191" value="" style="curved=1;startArrow=none;endArrow=none;exitX=0.5;exitY=1;entryX=0.5;entryY=0;rounded=0;html=1;fontSize=14;fontFamily=KaiTi;strokeWidth=2;" parent="1" source="kj8fbqeVFcNUevWfHqB0-184" target="kj8fbqeVFcNUevWfHqB0-180" edge="1">
          <mxGeometry relative="1" as="geometry" />
        </mxCell>
        <mxCell id="kj8fbqeVFcNUevWfHqB0-192" value="" style="curved=1;startArrow=none;endArrow=none;exitX=0.5;exitY=1;entryX=1;entryY=0.27;rounded=0;html=1;fontSize=14;fontFamily=KaiTi;strokeWidth=2;" parent="1" source="kj8fbqeVFcNUevWfHqB0-185" target="kj8fbqeVFcNUevWfHqB0-180" edge="1">
          <mxGeometry relative="1" as="geometry" />
        </mxCell>
        <mxCell id="kj8fbqeVFcNUevWfHqB0-193" value="" style="curved=1;startArrow=none;endArrow=none;exitX=0.5;exitY=0;entryX=0.75;entryY=1;rounded=0;exitDx=0;exitDy=0;entryDx=0;entryDy=0;html=1;fontSize=14;fontFamily=KaiTi;strokeWidth=2;" parent="1" source="kj8fbqeVFcNUevWfHqB0-186" target="kj8fbqeVFcNUevWfHqB0-180" edge="1">
          <mxGeometry relative="1" as="geometry" />
        </mxCell>
        <mxCell id="kj8fbqeVFcNUevWfHqB0-194" value="" style="curved=1;startArrow=none;endArrow=none;exitX=0;exitY=0;entryX=1;entryY=0.41;rounded=0;exitDx=0;exitDy=0;html=1;fontSize=14;fontFamily=KaiTi;strokeWidth=2;" parent="1" source="kj8fbqeVFcNUevWfHqB0-187" target="kj8fbqeVFcNUevWfHqB0-180" edge="1">
          <mxGeometry relative="1" as="geometry" />
        </mxCell>
        <mxCell id="kj8fbqeVFcNUevWfHqB0-195" value="评论" style="whiteSpace=wrap;strokeWidth=2;fontSize=14;fontFamily=KaiTi;" parent="1" vertex="1">
          <mxGeometry x="889" y="3060" width="92" height="54" as="geometry" />
        </mxCell>
        <mxCell id="kj8fbqeVFcNUevWfHqB0-196" value="评论ID" style="ellipse;strokeWidth=2;whiteSpace=wrap;fontSize=14;fontFamily=KaiTi;" parent="1" vertex="1">
          <mxGeometry x="813" y="3147" width="120" height="50" as="geometry" />
        </mxCell>
        <mxCell id="kj8fbqeVFcNUevWfHqB0-197" value="帖子ID" style="ellipse;strokeWidth=2;whiteSpace=wrap;fontSize=14;fontFamily=KaiTi;" parent="1" vertex="1">
          <mxGeometry x="734" y="3082" width="120" height="50" as="geometry" />
        </mxCell>
        <mxCell id="kj8fbqeVFcNUevWfHqB0-198" value="评论用户ID" style="ellipse;strokeWidth=2;whiteSpace=wrap;fontSize=14;fontFamily=KaiTi;" parent="1" vertex="1">
          <mxGeometry x="746" y="2995" width="120" height="50" as="geometry" />
        </mxCell>
        <mxCell id="kj8fbqeVFcNUevWfHqB0-199" value="评论内容" style="ellipse;strokeWidth=2;whiteSpace=wrap;fontSize=14;fontFamily=KaiTi;" parent="1" vertex="1">
          <mxGeometry x="874" y="2970" width="120" height="50" as="geometry" />
        </mxCell>
        <mxCell id="kj8fbqeVFcNUevWfHqB0-200" value="点赞数" style="ellipse;strokeWidth=2;whiteSpace=wrap;fontSize=14;fontFamily=KaiTi;" parent="1" vertex="1">
          <mxGeometry x="994" y="2978" width="120" height="50" as="geometry" />
        </mxCell>
        <mxCell id="kj8fbqeVFcNUevWfHqB0-201" value="是否删除" style="ellipse;strokeWidth=2;whiteSpace=wrap;fontSize=14;fontFamily=KaiTi;" parent="1" vertex="1">
          <mxGeometry x="1033" y="3082" width="120" height="50" as="geometry" />
        </mxCell>
        <mxCell id="kj8fbqeVFcNUevWfHqB0-202" value="创建时间" style="ellipse;strokeWidth=2;whiteSpace=wrap;fontSize=14;fontFamily=KaiTi;" parent="1" vertex="1">
          <mxGeometry x="972" y="3159" width="120" height="50" as="geometry" />
        </mxCell>
        <mxCell id="kj8fbqeVFcNUevWfHqB0-203" value="" style="curved=1;startArrow=none;endArrow=none;exitX=0.5;exitY=0;entryX=0.25;entryY=1;rounded=0;entryDx=0;entryDy=0;exitDx=0;exitDy=0;html=1;fontSize=14;fontFamily=KaiTi;strokeWidth=2;" parent="1" source="kj8fbqeVFcNUevWfHqB0-196" target="kj8fbqeVFcNUevWfHqB0-195" edge="1">
          <mxGeometry relative="1" as="geometry" />
        </mxCell>
        <mxCell id="kj8fbqeVFcNUevWfHqB0-204" value="" style="curved=1;startArrow=none;endArrow=none;exitX=1;exitY=0.5;entryX=0;entryY=0.33;rounded=0;exitDx=0;exitDy=0;html=1;fontSize=14;fontFamily=KaiTi;strokeWidth=2;" parent="1" source="kj8fbqeVFcNUevWfHqB0-197" target="kj8fbqeVFcNUevWfHqB0-195" edge="1">
          <mxGeometry relative="1" as="geometry" />
        </mxCell>
        <mxCell id="kj8fbqeVFcNUevWfHqB0-205" value="" style="curved=1;startArrow=none;endArrow=none;exitX=0.5;exitY=1;entryX=0;entryY=0.17;rounded=0;html=1;fontSize=14;fontFamily=KaiTi;strokeWidth=2;" parent="1" source="kj8fbqeVFcNUevWfHqB0-198" target="kj8fbqeVFcNUevWfHqB0-195" edge="1">
          <mxGeometry relative="1" as="geometry" />
        </mxCell>
        <mxCell id="kj8fbqeVFcNUevWfHqB0-206" value="" style="curved=1;startArrow=none;endArrow=none;exitX=0.5;exitY=1;entryX=0.5;entryY=0;rounded=0;html=1;fontSize=14;fontFamily=KaiTi;strokeWidth=2;" parent="1" source="kj8fbqeVFcNUevWfHqB0-199" target="kj8fbqeVFcNUevWfHqB0-195" edge="1">
          <mxGeometry relative="1" as="geometry" />
        </mxCell>
        <mxCell id="kj8fbqeVFcNUevWfHqB0-207" value="" style="curved=1;startArrow=none;endArrow=none;exitX=0.5;exitY=1;entryX=1;entryY=0.13;rounded=0;html=1;fontSize=14;fontFamily=KaiTi;strokeWidth=2;" parent="1" source="kj8fbqeVFcNUevWfHqB0-200" target="kj8fbqeVFcNUevWfHqB0-195" edge="1">
          <mxGeometry relative="1" as="geometry" />
        </mxCell>
        <mxCell id="kj8fbqeVFcNUevWfHqB0-208" value="" style="curved=1;startArrow=none;endArrow=none;exitX=0;exitY=0;entryX=1;entryY=0.36;rounded=0;exitDx=0;exitDy=0;html=1;fontSize=14;fontFamily=KaiTi;strokeWidth=2;" parent="1" source="kj8fbqeVFcNUevWfHqB0-201" target="kj8fbqeVFcNUevWfHqB0-195" edge="1">
          <mxGeometry relative="1" as="geometry" />
        </mxCell>
        <mxCell id="kj8fbqeVFcNUevWfHqB0-209" value="" style="curved=1;startArrow=none;endArrow=none;exitX=0.5;exitY=0;entryX=0.75;entryY=1;rounded=0;entryDx=0;entryDy=0;exitDx=0;exitDy=0;html=1;fontSize=14;fontFamily=KaiTi;strokeWidth=2;" parent="1" source="kj8fbqeVFcNUevWfHqB0-202" target="kj8fbqeVFcNUevWfHqB0-195" edge="1">
          <mxGeometry relative="1" as="geometry" />
        </mxCell>
        <mxCell id="kj8fbqeVFcNUevWfHqB0-210" value="帖子" style="whiteSpace=wrap;strokeWidth=2;fontSize=14;fontFamily=KaiTi;" parent="1" vertex="1">
          <mxGeometry x="887.5" y="3358" width="92" height="54" as="geometry" />
        </mxCell>
        <mxCell id="kj8fbqeVFcNUevWfHqB0-211" value="帖子ID" style="ellipse;strokeWidth=2;whiteSpace=wrap;fontSize=14;fontFamily=KaiTi;" parent="1" vertex="1">
          <mxGeometry x="717.5" y="3414" width="120" height="50" as="geometry" />
        </mxCell>
        <mxCell id="kj8fbqeVFcNUevWfHqB0-212" value="发帖用户ID" style="ellipse;strokeWidth=2;whiteSpace=wrap;fontSize=14;fontFamily=KaiTi;" parent="1" vertex="1">
          <mxGeometry x="823.5" y="3456" width="120" height="50" as="geometry" />
        </mxCell>
        <mxCell id="kj8fbqeVFcNUevWfHqB0-213" value="帖子标题" style="ellipse;strokeWidth=2;whiteSpace=wrap;fontSize=14;fontFamily=KaiTi;" parent="1" vertex="1">
          <mxGeometry x="688" y="3352" width="120" height="50" as="geometry" />
        </mxCell>
        <mxCell id="kj8fbqeVFcNUevWfHqB0-214" value="帖子内容" style="ellipse;strokeWidth=2;whiteSpace=wrap;fontSize=14;fontFamily=KaiTi;" parent="1" vertex="1">
          <mxGeometry x="728.5" y="3292" width="120" height="50" as="geometry" />
        </mxCell>
        <mxCell id="kj8fbqeVFcNUevWfHqB0-215" value="浏览量" style="ellipse;strokeWidth=2;whiteSpace=wrap;fontSize=14;fontFamily=KaiTi;" parent="1" vertex="1">
          <mxGeometry x="830.5" y="3271" width="120" height="50" as="geometry" />
        </mxCell>
        <mxCell id="kj8fbqeVFcNUevWfHqB0-216" value="评论数" style="ellipse;strokeWidth=2;whiteSpace=wrap;fontSize=14;fontFamily=KaiTi;" parent="1" vertex="1">
          <mxGeometry x="943.5" y="3271" width="120" height="50" as="geometry" />
        </mxCell>
        <mxCell id="kj8fbqeVFcNUevWfHqB0-217" value="点赞数" style="ellipse;strokeWidth=2;whiteSpace=wrap;fontSize=14;fontFamily=KaiTi;" parent="1" vertex="1">
          <mxGeometry x="1041.5" y="3297" width="120" height="50" as="geometry" />
        </mxCell>
        <mxCell id="kj8fbqeVFcNUevWfHqB0-218" value="是否删除" style="ellipse;strokeWidth=2;whiteSpace=wrap;fontSize=14;fontFamily=KaiTi;" parent="1" vertex="1">
          <mxGeometry x="1073.5" y="3360" width="120" height="50" as="geometry" />
        </mxCell>
        <mxCell id="kj8fbqeVFcNUevWfHqB0-219" value="创建时间" style="ellipse;strokeWidth=2;whiteSpace=wrap;fontSize=14;fontFamily=KaiTi;" parent="1" vertex="1">
          <mxGeometry x="937.5" y="3456" width="120" height="50" as="geometry" />
        </mxCell>
        <mxCell id="kj8fbqeVFcNUevWfHqB0-220" value="修改时间" style="ellipse;strokeWidth=2;whiteSpace=wrap;fontSize=14;fontFamily=KaiTi;" parent="1" vertex="1">
          <mxGeometry x="1020.5" y="3423" width="120" height="50" as="geometry" />
        </mxCell>
        <mxCell id="kj8fbqeVFcNUevWfHqB0-221" value="" style="curved=1;startArrow=none;endArrow=none;exitX=1;exitY=0;entryX=0;entryY=0.42;rounded=0;exitDx=0;exitDy=0;html=1;fontSize=14;fontFamily=KaiTi;strokeWidth=2;" parent="1" source="kj8fbqeVFcNUevWfHqB0-211" target="kj8fbqeVFcNUevWfHqB0-210" edge="1">
          <mxGeometry relative="1" as="geometry" />
        </mxCell>
        <mxCell id="kj8fbqeVFcNUevWfHqB0-222" value="" style="curved=1;startArrow=none;endArrow=none;exitX=0.5;exitY=0;entryX=0.25;entryY=1;rounded=0;entryDx=0;entryDy=0;exitDx=0;exitDy=0;html=1;fontSize=14;fontFamily=KaiTi;strokeWidth=2;" parent="1" source="kj8fbqeVFcNUevWfHqB0-212" target="kj8fbqeVFcNUevWfHqB0-210" edge="1">
          <mxGeometry relative="1" as="geometry" />
        </mxCell>
        <mxCell id="kj8fbqeVFcNUevWfHqB0-223" value="" style="curved=1;startArrow=none;endArrow=none;exitX=0.49;exitY=1;entryX=0;entryY=0.36;rounded=0;html=1;fontSize=14;fontFamily=KaiTi;strokeWidth=2;" parent="1" source="kj8fbqeVFcNUevWfHqB0-213" target="kj8fbqeVFcNUevWfHqB0-210" edge="1">
          <mxGeometry relative="1" as="geometry" />
        </mxCell>
        <mxCell id="kj8fbqeVFcNUevWfHqB0-224" value="" style="curved=1;startArrow=none;endArrow=none;exitX=0.49;exitY=1;entryX=0;entryY=0.25;rounded=0;html=1;fontSize=14;fontFamily=KaiTi;strokeWidth=2;" parent="1" source="kj8fbqeVFcNUevWfHqB0-214" target="kj8fbqeVFcNUevWfHqB0-210" edge="1">
          <mxGeometry relative="1" as="geometry" />
        </mxCell>
        <mxCell id="kj8fbqeVFcNUevWfHqB0-225" value="" style="curved=1;startArrow=none;endArrow=none;exitX=0.49;exitY=1;entryX=0.18;entryY=0;rounded=0;html=1;fontSize=14;fontFamily=KaiTi;strokeWidth=2;" parent="1" source="kj8fbqeVFcNUevWfHqB0-215" target="kj8fbqeVFcNUevWfHqB0-210" edge="1">
          <mxGeometry relative="1" as="geometry" />
        </mxCell>
        <mxCell id="kj8fbqeVFcNUevWfHqB0-226" value="" style="curved=1;startArrow=none;endArrow=none;exitX=0.49;exitY=1;entryX=0.81;entryY=0;rounded=0;html=1;fontSize=14;fontFamily=KaiTi;strokeWidth=2;" parent="1" source="kj8fbqeVFcNUevWfHqB0-216" target="kj8fbqeVFcNUevWfHqB0-210" edge="1">
          <mxGeometry relative="1" as="geometry" />
        </mxCell>
        <mxCell id="kj8fbqeVFcNUevWfHqB0-227" value="" style="curved=1;startArrow=none;endArrow=none;exitX=0.49;exitY=1;entryX=1;entryY=0.24;rounded=0;html=1;fontSize=14;fontFamily=KaiTi;strokeWidth=2;" parent="1" source="kj8fbqeVFcNUevWfHqB0-217" target="kj8fbqeVFcNUevWfHqB0-210" edge="1">
          <mxGeometry relative="1" as="geometry" />
        </mxCell>
        <mxCell id="kj8fbqeVFcNUevWfHqB0-228" value="" style="curved=1;startArrow=none;endArrow=none;exitX=0;exitY=0.5;entryX=1;entryY=0.38;rounded=0;exitDx=0;exitDy=0;html=1;fontSize=14;fontFamily=KaiTi;strokeWidth=2;" parent="1" source="kj8fbqeVFcNUevWfHqB0-218" target="kj8fbqeVFcNUevWfHqB0-210" edge="1">
          <mxGeometry relative="1" as="geometry" />
        </mxCell>
        <mxCell id="kj8fbqeVFcNUevWfHqB0-229" value="" style="curved=1;startArrow=none;endArrow=none;exitX=0.5;exitY=0;entryX=0.75;entryY=1;rounded=0;exitDx=0;exitDy=0;entryDx=0;entryDy=0;html=1;fontSize=14;fontFamily=KaiTi;strokeWidth=2;" parent="1" source="kj8fbqeVFcNUevWfHqB0-219" target="kj8fbqeVFcNUevWfHqB0-210" edge="1">
          <mxGeometry relative="1" as="geometry" />
        </mxCell>
        <mxCell id="kj8fbqeVFcNUevWfHqB0-230" value="" style="curved=1;startArrow=none;endArrow=none;exitX=0.5;exitY=0;entryX=1;entryY=0.44;rounded=0;exitDx=0;exitDy=0;html=1;fontSize=14;fontFamily=KaiTi;strokeWidth=2;" parent="1" source="kj8fbqeVFcNUevWfHqB0-220" target="kj8fbqeVFcNUevWfHqB0-210" edge="1">
          <mxGeometry relative="1" as="geometry" />
        </mxCell>
        <mxCell id="kj8fbqeVFcNUevWfHqB0-231" value="帖子-用户关系" style="whiteSpace=wrap;strokeWidth=2;fontSize=14;fontFamily=KaiTi;" parent="1" vertex="1">
          <mxGeometry x="1352" y="3100" width="162" height="54" as="geometry" />
        </mxCell>
        <mxCell id="kj8fbqeVFcNUevWfHqB0-232" value="帖子ID" style="ellipse;strokeWidth=2;whiteSpace=wrap;fontSize=14;fontFamily=KaiTi;" parent="1" vertex="1">
          <mxGeometry x="1316" y="2989" width="120" height="50" as="geometry" />
        </mxCell>
        <mxCell id="kj8fbqeVFcNUevWfHqB0-233" value="用户ID" style="ellipse;strokeWidth=2;whiteSpace=wrap;fontSize=14;fontFamily=KaiTi;" parent="1" vertex="1">
          <mxGeometry x="1458" y="2989" width="120" height="50" as="geometry" />
        </mxCell>
        <mxCell id="kj8fbqeVFcNUevWfHqB0-234" value="" style="curved=1;startArrow=none;endArrow=none;exitX=0.5;exitY=1;entryX=0.32;entryY=0.01;rounded=0;html=1;fontSize=14;fontFamily=KaiTi;strokeWidth=2;" parent="1" source="kj8fbqeVFcNUevWfHqB0-232" target="kj8fbqeVFcNUevWfHqB0-231" edge="1">
          <mxGeometry relative="1" as="geometry" />
        </mxCell>
        <mxCell id="kj8fbqeVFcNUevWfHqB0-235" value="" style="curved=1;startArrow=none;endArrow=none;exitX=0.51;exitY=1;entryX=0.68;entryY=0.01;rounded=0;html=1;fontSize=14;fontFamily=KaiTi;strokeWidth=2;" parent="1" source="kj8fbqeVFcNUevWfHqB0-233" target="kj8fbqeVFcNUevWfHqB0-231" edge="1">
          <mxGeometry relative="1" as="geometry" />
        </mxCell>
        <mxCell id="kj8fbqeVFcNUevWfHqB0-236" value="评论-用户关系" style="whiteSpace=wrap;strokeWidth=2;fontSize=14;fontFamily=KaiTi;" parent="1" vertex="1">
          <mxGeometry x="1352" y="3427" width="162" height="54" as="geometry" />
        </mxCell>
        <mxCell id="kj8fbqeVFcNUevWfHqB0-237" value="评论ID" style="ellipse;strokeWidth=2;whiteSpace=wrap;fontSize=14;fontFamily=KaiTi;" parent="1" vertex="1">
          <mxGeometry x="1325" y="3316" width="120" height="50" as="geometry" />
        </mxCell>
        <mxCell id="kj8fbqeVFcNUevWfHqB0-238" value="用户ID" style="ellipse;strokeWidth=2;whiteSpace=wrap;fontSize=14;fontFamily=KaiTi;" parent="1" vertex="1">
          <mxGeometry x="1458" y="3316" width="120" height="50" as="geometry" />
        </mxCell>
        <mxCell id="kj8fbqeVFcNUevWfHqB0-239" value="" style="curved=1;startArrow=none;endArrow=none;exitX=0.5;exitY=1;entryX=0.32;entryY=0.01;rounded=0;html=1;fontSize=14;fontFamily=KaiTi;strokeWidth=2;" parent="1" source="kj8fbqeVFcNUevWfHqB0-237" target="kj8fbqeVFcNUevWfHqB0-236" edge="1">
          <mxGeometry relative="1" as="geometry" />
        </mxCell>
        <mxCell id="kj8fbqeVFcNUevWfHqB0-240" value="" style="curved=1;startArrow=none;endArrow=none;exitX=0.51;exitY=1;entryX=0.68;entryY=0.01;rounded=0;html=1;fontSize=14;fontFamily=KaiTi;strokeWidth=2;" parent="1" source="kj8fbqeVFcNUevWfHqB0-238" target="kj8fbqeVFcNUevWfHqB0-236" edge="1">
          <mxGeometry relative="1" as="geometry" />
        </mxCell>
        <mxCell id="kj8fbqeVFcNUevWfHqB0-241" value="用户表" style="whiteSpace=wrap;strokeWidth=2;fontSize=14;fontFamily=KaiTi;" parent="1" vertex="1">
          <mxGeometry x="-400" y="3589" width="108" height="54" as="geometry" />
        </mxCell>
        <mxCell id="kj8fbqeVFcNUevWfHqB0-242" value="购物车项表" style="whiteSpace=wrap;strokeWidth=2;fontSize=14;fontFamily=KaiTi;" parent="1" vertex="1">
          <mxGeometry x="-200" y="4095" width="140" height="54" as="geometry" />
        </mxCell>
        <mxCell id="kj8fbqeVFcNUevWfHqB0-243" value="订单表" style="whiteSpace=wrap;strokeWidth=2;fontSize=14;fontFamily=KaiTi;" parent="1" vertex="1">
          <mxGeometry x="108" y="3715" width="108" height="54" as="geometry" />
        </mxCell>
        <mxCell id="kj8fbqeVFcNUevWfHqB0-244" value="帖子表" style="whiteSpace=wrap;strokeWidth=2;fontSize=14;fontFamily=KaiTi;" parent="1" vertex="1">
          <mxGeometry x="-454" y="3715" width="108" height="54" as="geometry" />
        </mxCell>
        <mxCell id="kj8fbqeVFcNUevWfHqB0-245" value="评论表" style="whiteSpace=wrap;strokeWidth=2;fontSize=14;fontFamily=KaiTi;" parent="1" vertex="1">
          <mxGeometry x="-313" y="3842" width="108" height="54" as="geometry" />
        </mxCell>
        <mxCell id="kj8fbqeVFcNUevWfHqB0-246" value="帖子点赞表" style="whiteSpace=wrap;strokeWidth=2;fontSize=14;fontFamily=KaiTi;" parent="1" vertex="1">
          <mxGeometry x="-533" y="3842" width="140" height="54" as="geometry" />
        </mxCell>
        <mxCell id="kj8fbqeVFcNUevWfHqB0-247" value="评论点赞表" style="whiteSpace=wrap;strokeWidth=2;fontSize=14;fontFamily=KaiTi;" parent="1" vertex="1">
          <mxGeometry x="-498" y="3968" width="140" height="54" as="geometry" />
        </mxCell>
        <mxCell id="kj8fbqeVFcNUevWfHqB0-248" value="商品分类表" style="whiteSpace=wrap;strokeWidth=2;fontSize=14;fontFamily=KaiTi;" parent="1" vertex="1">
          <mxGeometry x="-98" y="3842" width="140" height="54" as="geometry" />
        </mxCell>
        <mxCell id="kj8fbqeVFcNUevWfHqB0-249" value="商品信息表" style="whiteSpace=wrap;strokeWidth=2;fontSize=14;fontFamily=KaiTi;" parent="1" vertex="1">
          <mxGeometry x="52" y="3968" width="140" height="54" as="geometry" />
        </mxCell>
        <mxCell id="kj8fbqeVFcNUevWfHqB0-250" value="首页配置表" style="whiteSpace=wrap;strokeWidth=2;fontSize=14;fontFamily=KaiTi;" parent="1" vertex="1">
          <mxGeometry x="52" y="4095" width="140" height="54" as="geometry" />
        </mxCell>
        <mxCell id="kj8fbqeVFcNUevWfHqB0-251" value="订单明细表" style="whiteSpace=wrap;strokeWidth=2;fontSize=14;fontFamily=KaiTi;" parent="1" vertex="1">
          <mxGeometry x="92" y="3842" width="140" height="54" as="geometry" />
        </mxCell>
        <mxCell id="kj8fbqeVFcNUevWfHqB0-252" value="拥有" style="curved=1;startArrow=none;endArrow=block;exitX=1;exitY=0.83;entryX=0.44;entryY=-0.01;rounded=0;fontSize=14;fontFamily=KaiTi;" parent="1" source="kj8fbqeVFcNUevWfHqB0-241" target="kj8fbqeVFcNUevWfHqB0-242" edge="1">
          <mxGeometry relative="1" as="geometry">
            <Array as="points">
              <mxPoint x="-151" y="3679" />
              <mxPoint x="-151" y="4058" />
            </Array>
          </mxGeometry>
        </mxCell>
        <mxCell id="kj8fbqeVFcNUevWfHqB0-253" value="下单" style="curved=1;startArrow=none;endArrow=block;exitX=1;exitY=0.62;entryX=0.5;entryY=0.01;rounded=0;fontSize=14;fontFamily=KaiTi;" parent="1" source="kj8fbqeVFcNUevWfHqB0-241" target="kj8fbqeVFcNUevWfHqB0-243" edge="1">
          <mxGeometry relative="1" as="geometry">
            <Array as="points">
              <mxPoint x="162" y="3679" />
            </Array>
          </mxGeometry>
        </mxCell>
        <mxCell id="kj8fbqeVFcNUevWfHqB0-254" value="发布" style="curved=1;startArrow=none;endArrow=block;exitX=0.29;exitY=1;entryX=0.5;entryY=0.01;rounded=0;fontSize=14;fontFamily=KaiTi;" parent="1" source="kj8fbqeVFcNUevWfHqB0-241" target="kj8fbqeVFcNUevWfHqB0-244" edge="1">
          <mxGeometry relative="1" as="geometry">
            <Array as="points">
              <mxPoint x="-400" y="3679" />
            </Array>
          </mxGeometry>
        </mxCell>
        <mxCell id="kj8fbqeVFcNUevWfHqB0-255" value="评论" style="curved=1;startArrow=none;endArrow=block;exitX=0.71;exitY=1;entryX=0.37;entryY=0;rounded=0;fontSize=14;fontFamily=KaiTi;" parent="1" source="kj8fbqeVFcNUevWfHqB0-241" target="kj8fbqeVFcNUevWfHqB0-245" edge="1">
          <mxGeometry relative="1" as="geometry">
            <Array as="points">
              <mxPoint x="-292" y="3679" />
              <mxPoint x="-292" y="3806" />
            </Array>
          </mxGeometry>
        </mxCell>
        <mxCell id="kj8fbqeVFcNUevWfHqB0-256" value="点赞" style="curved=1;startArrow=none;endArrow=block;exitX=0;exitY=0.89;entryX=0.37;entryY=0;rounded=0;fontSize=14;fontFamily=KaiTi;" parent="1" source="kj8fbqeVFcNUevWfHqB0-241" target="kj8fbqeVFcNUevWfHqB0-246" edge="1">
          <mxGeometry relative="1" as="geometry">
            <Array as="points">
              <mxPoint x="-507" y="3679" />
              <mxPoint x="-507" y="3806" />
            </Array>
          </mxGeometry>
        </mxCell>
        <mxCell id="kj8fbqeVFcNUevWfHqB0-257" value="点赞" style="curved=1;startArrow=none;endArrow=block;exitX=0;exitY=0.77;entryX=0.04;entryY=0;rounded=0;fontSize=14;fontFamily=KaiTi;" parent="1" source="kj8fbqeVFcNUevWfHqB0-241" target="kj8fbqeVFcNUevWfHqB0-247" edge="1">
          <mxGeometry relative="1" as="geometry">
            <Array as="points">
              <mxPoint x="-579" y="3679" />
              <mxPoint x="-579" y="3932" />
            </Array>
          </mxGeometry>
        </mxCell>
        <mxCell id="kj8fbqeVFcNUevWfHqB0-258" value="分类" style="curved=1;startArrow=none;endArrow=block;exitX=0.5;exitY=1;entryX=0.04;entryY=0;rounded=0;fontSize=14;fontFamily=KaiTi;" parent="1" source="kj8fbqeVFcNUevWfHqB0-248" target="kj8fbqeVFcNUevWfHqB0-249" edge="1">
          <mxGeometry relative="1" as="geometry">
            <Array as="points">
              <mxPoint x="-28" y="3932" />
            </Array>
          </mxGeometry>
        </mxCell>
        <mxCell id="kj8fbqeVFcNUevWfHqB0-259" value="加入购物车" style="curved=1;startArrow=none;endArrow=block;exitX=0;exitY=0.96;entryX=0.72;entryY=-0.01;rounded=0;fontSize=14;fontFamily=KaiTi;" parent="1" source="kj8fbqeVFcNUevWfHqB0-249" target="kj8fbqeVFcNUevWfHqB0-242" edge="1">
          <mxGeometry relative="1" as="geometry">
            <Array as="points">
              <mxPoint x="-59" y="4058" />
            </Array>
          </mxGeometry>
        </mxCell>
        <mxCell id="kj8fbqeVFcNUevWfHqB0-260" value="首页配置" style="curved=1;startArrow=none;endArrow=block;exitX=0.5;exitY=1;entryX=0.5;entryY=-0.01;rounded=0;fontSize=14;fontFamily=KaiTi;" parent="1" source="kj8fbqeVFcNUevWfHqB0-249" target="kj8fbqeVFcNUevWfHqB0-250" edge="1">
          <mxGeometry relative="1" as="geometry">
            <Array as="points" />
          </mxGeometry>
        </mxCell>
        <mxCell id="kj8fbqeVFcNUevWfHqB0-261" value="出现在" style="curved=1;startArrow=none;endArrow=block;exitX=0.74;exitY=0;entryX=0.62;entryY=1;rounded=0;fontSize=14;fontFamily=KaiTi;" parent="1" source="kj8fbqeVFcNUevWfHqB0-249" target="kj8fbqeVFcNUevWfHqB0-251" edge="1">
          <mxGeometry relative="1" as="geometry">
            <Array as="points">
              <mxPoint x="202" y="3932" />
            </Array>
          </mxGeometry>
        </mxCell>
        <mxCell id="kj8fbqeVFcNUevWfHqB0-262" value="包含" style="curved=1;startArrow=none;endArrow=block;exitX=0.5;exitY=1.01;entryX=0.5;entryY=0;rounded=0;fontSize=14;fontFamily=KaiTi;" parent="1" source="kj8fbqeVFcNUevWfHqB0-243" target="kj8fbqeVFcNUevWfHqB0-251" edge="1">
          <mxGeometry relative="1" as="geometry">
            <Array as="points" />
          </mxGeometry>
        </mxCell>
        <mxCell id="kj8fbqeVFcNUevWfHqB0-263" value="包含商品" style="curved=1;startArrow=none;endArrow=block;exitX=0.38;exitY=1;entryX=0.5;entryY=0;rounded=0;fontSize=14;fontFamily=KaiTi;" parent="1" source="kj8fbqeVFcNUevWfHqB0-251" target="kj8fbqeVFcNUevWfHqB0-249" edge="1">
          <mxGeometry relative="1" as="geometry">
            <Array as="points">
              <mxPoint x="122" y="3932" />
            </Array>
          </mxGeometry>
        </mxCell>
        <mxCell id="kj8fbqeVFcNUevWfHqB0-264" value="被评论" style="curved=1;startArrow=none;endArrow=block;exitX=1;exitY=0.88;entryX=0.62;entryY=0;rounded=0;fontSize=14;fontFamily=KaiTi;" parent="1" source="kj8fbqeVFcNUevWfHqB0-244" target="kj8fbqeVFcNUevWfHqB0-245" edge="1">
          <mxGeometry relative="1" as="geometry">
            <Array as="points">
              <mxPoint x="-228" y="3806" />
            </Array>
          </mxGeometry>
        </mxCell>
        <mxCell id="kj8fbqeVFcNUevWfHqB0-265" value="被点赞" style="curved=1;startArrow=none;endArrow=block;exitX=0.5;exitY=1.01;entryX=0.69;entryY=0;rounded=0;fontSize=14;fontFamily=KaiTi;" parent="1" source="kj8fbqeVFcNUevWfHqB0-244" target="kj8fbqeVFcNUevWfHqB0-246" edge="1">
          <mxGeometry relative="1" as="geometry">
            <Array as="points">
              <mxPoint x="-400" y="3806" />
            </Array>
          </mxGeometry>
        </mxCell>
        <mxCell id="kj8fbqeVFcNUevWfHqB0-266" value="被点赞" style="curved=1;startArrow=none;endArrow=block;exitX=0.5;exitY=1;entryX=1;entryY=0.02;rounded=0;fontSize=14;fontFamily=KaiTi;" parent="1" source="kj8fbqeVFcNUevWfHqB0-245" target="kj8fbqeVFcNUevWfHqB0-247" edge="1">
          <mxGeometry relative="1" as="geometry">
            <Array as="points">
              <mxPoint x="-259" y="3932" />
            </Array>
          </mxGeometry>
        </mxCell>
        <mxCell id="kj8fbqeVFcNUevWfHqB0-267" value="用户" style="whiteSpace=wrap;strokeWidth=2;fontSize=22;fontFamily=KaiTi;" parent="1" vertex="1">
          <mxGeometry x="-70.5" y="4369" width="151" height="54" as="geometry" />
        </mxCell>
        <mxCell id="kj8fbqeVFcNUevWfHqB0-268" value="购物车项" style="whiteSpace=wrap;strokeWidth=2;fontSize=22;fontFamily=KaiTi;" parent="1" vertex="1">
          <mxGeometry x="322.5" y="5173" width="183" height="54" as="geometry" />
        </mxCell>
        <mxCell id="kj8fbqeVFcNUevWfHqB0-269" value="订单" style="whiteSpace=wrap;strokeWidth=2;fontSize=22;fontFamily=KaiTi;" parent="1" vertex="1">
          <mxGeometry x="485" y="4498" width="151" height="54" as="geometry" />
        </mxCell>
        <mxCell id="kj8fbqeVFcNUevWfHqB0-270" value="帖子" style="whiteSpace=wrap;strokeWidth=2;fontSize=22;fontFamily=KaiTi;" parent="1" vertex="1">
          <mxGeometry x="-70.5" y="4674" width="151" height="54" as="geometry" />
        </mxCell>
        <mxCell id="kj8fbqeVFcNUevWfHqB0-271" value="评论" style="whiteSpace=wrap;strokeWidth=2;fontSize=22;fontFamily=KaiTi;" parent="1" vertex="1">
          <mxGeometry x="115" y="4987" width="151" height="54" as="geometry" />
        </mxCell>
        <mxCell id="kj8fbqeVFcNUevWfHqB0-272" value="帖子点赞" style="whiteSpace=wrap;strokeWidth=2;fontSize=22;fontFamily=KaiTi;" parent="1" vertex="1">
          <mxGeometry x="-163" y="4950" width="183" height="54" as="geometry" />
        </mxCell>
        <mxCell id="kj8fbqeVFcNUevWfHqB0-273" value="评论点赞" style="whiteSpace=wrap;strokeWidth=2;fontSize=22;fontFamily=KaiTi;" parent="1" vertex="1">
          <mxGeometry x="-377" y="5137" width="183" height="54" as="geometry" />
        </mxCell>
        <mxCell id="kj8fbqeVFcNUevWfHqB0-274" value="商品分类" style="whiteSpace=wrap;strokeWidth=2;fontSize=22;fontFamily=KaiTi;" parent="1" vertex="1">
          <mxGeometry x="233" y="4540" width="183" height="54" as="geometry" />
        </mxCell>
        <mxCell id="kj8fbqeVFcNUevWfHqB0-275" value="商品信息" style="whiteSpace=wrap;strokeWidth=2;fontSize=22;fontFamily=KaiTi;" parent="1" vertex="1">
          <mxGeometry x="550.5" y="4899" width="183" height="54" as="geometry" />
        </mxCell>
        <mxCell id="kj8fbqeVFcNUevWfHqB0-276" value="首页配置表" style="whiteSpace=wrap;strokeWidth=2;fontSize=22;fontFamily=KaiTi;" parent="1" vertex="1">
          <mxGeometry x="542" y="5141" width="183" height="54" as="geometry" />
        </mxCell>
        <mxCell id="kj8fbqeVFcNUevWfHqB0-277" value="订单明细" style="whiteSpace=wrap;strokeWidth=2;fontSize=22;fontFamily=KaiTi;" parent="1" vertex="1">
          <mxGeometry x="479" y="4706" width="183" height="54" as="geometry" />
        </mxCell>
        <mxCell id="kj8fbqeVFcNUevWfHqB0-278" value="拥有" style="strokeWidth=2;whiteSpace=wrap;shape=rhombus;perimeter=rhombusPerimeter;html=1;fontSize=22;fontFamily=KaiTi;" parent="1" vertex="1">
          <mxGeometry x="271" y="5047" width="120" height="50" as="geometry" />
        </mxCell>
        <mxCell id="kj8fbqeVFcNUevWfHqB0-279" value="下单" style="aspect=fixed;strokeWidth=2;whiteSpace=wrap;shape=rhombus;perimeter=rhombusPerimeter;html=1;fontSize=22;fontFamily=KaiTi;" parent="1" vertex="1">
          <mxGeometry x="478" y="4374" width="144" height="60" as="geometry" />
        </mxCell>
        <mxCell id="kj8fbqeVFcNUevWfHqB0-280" value="发布" style="strokeWidth=2;whiteSpace=wrap;shape=rhombus;perimeter=rhombusPerimeter;html=1;fontSize=22;fontFamily=KaiTi;" parent="1" vertex="1">
          <mxGeometry x="-55" y="4520" width="120" height="50" as="geometry" />
        </mxCell>
        <mxCell id="kj8fbqeVFcNUevWfHqB0-281" value="点赞" style="strokeWidth=2;whiteSpace=wrap;shape=rhombus;perimeter=rhombusPerimeter;html=1;fontSize=22;fontFamily=KaiTi;" parent="1" vertex="1">
          <mxGeometry x="-203" y="4803" width="120" height="50" as="geometry" />
        </mxCell>
        <mxCell id="kj8fbqeVFcNUevWfHqB0-282" value="点赞" style="strokeWidth=2;whiteSpace=wrap;shape=rhombus;perimeter=rhombusPerimeter;html=1;fontSize=22;fontFamily=KaiTi;" parent="1" vertex="1">
          <mxGeometry x="-348" y="4937" width="120" height="50" as="geometry" />
        </mxCell>
        <mxCell id="kj8fbqeVFcNUevWfHqB0-283" value="属于" style="strokeWidth=2;whiteSpace=wrap;shape=rhombus;perimeter=rhombusPerimeter;html=1;fontSize=22;fontFamily=KaiTi;" parent="1" vertex="1">
          <mxGeometry x="264" y="4687" width="120" height="50" as="geometry" />
        </mxCell>
        <mxCell id="kj8fbqeVFcNUevWfHqB0-284" value="加入" style="strokeWidth=2;whiteSpace=wrap;shape=rhombus;perimeter=rhombusPerimeter;html=1;fontSize=22;fontFamily=KaiTi;" parent="1" vertex="1">
          <mxGeometry x="405" y="5045" width="120" height="50" as="geometry" />
        </mxCell>
        <mxCell id="kj8fbqeVFcNUevWfHqB0-285" value="配置" style="strokeWidth=2;whiteSpace=wrap;shape=rhombus;perimeter=rhombusPerimeter;html=1;fontSize=22;fontFamily=KaiTi;" parent="1" vertex="1">
          <mxGeometry x="573.5" y="5018" width="120" height="50" as="geometry" />
        </mxCell>
        <mxCell id="kj8fbqeVFcNUevWfHqB0-286" value="包含" style="strokeWidth=2;whiteSpace=wrap;shape=rhombus;perimeter=rhombusPerimeter;html=1;fontSize=22;fontFamily=KaiTi;" parent="1" vertex="1">
          <mxGeometry x="510" y="4599" width="120" height="50" as="geometry" />
        </mxCell>
        <mxCell id="kj8fbqeVFcNUevWfHqB0-287" value="包含" style="strokeWidth=2;whiteSpace=wrap;shape=rhombus;perimeter=rhombusPerimeter;html=1;fontSize=22;fontFamily=KaiTi;" parent="1" vertex="1">
          <mxGeometry x="544" y="4806" width="120" height="50" as="geometry" />
        </mxCell>
        <mxCell id="kj8fbqeVFcNUevWfHqB0-288" value="&amp;nbsp;被评论" style="strokeWidth=2;whiteSpace=wrap;shape=rhombus;perimeter=rhombusPerimeter;html=1;fontSize=22;fontFamily=KaiTi;" parent="1" vertex="1">
          <mxGeometry x="98" y="4806" width="120" height="50" as="geometry" />
        </mxCell>
        <mxCell id="kj8fbqeVFcNUevWfHqB0-289" value="被点赞" style="strokeWidth=2;whiteSpace=wrap;shape=rhombus;perimeter=rhombusPerimeter;html=1;fontSize=22;fontFamily=KaiTi;" parent="1" vertex="1">
          <mxGeometry x="-55" y="4803" width="120" height="50" as="geometry" />
        </mxCell>
        <mxCell id="kj8fbqeVFcNUevWfHqB0-290" value="被点赞" style="strokeWidth=2;whiteSpace=wrap;shape=rhombus;perimeter=rhombusPerimeter;html=1;fontSize=22;fontFamily=KaiTi;" parent="1" vertex="1">
          <mxGeometry x="130.5" y="5141" width="120" height="50" as="geometry" />
        </mxCell>
        <mxCell id="kj8fbqeVFcNUevWfHqB0-291" value="1" style="curved=1;startArrow=none;endArrow=none;exitX=1;exitY=0.77;entryX=0.5;entryY=0;rounded=0;fontSize=22;html=1;fontFamily=KaiTi;" parent="1" source="kj8fbqeVFcNUevWfHqB0-267" target="kj8fbqeVFcNUevWfHqB0-278" edge="1">
          <mxGeometry x="-0.2964" relative="1" as="geometry">
            <mxPoint as="offset" />
          </mxGeometry>
        </mxCell>
        <mxCell id="kj8fbqeVFcNUevWfHqB0-292" value="n" style="curved=1;startArrow=none;endArrow=none;exitX=0.5;exitY=1;entryX=0.39;entryY=0;rounded=0;exitDx=0;exitDy=0;fontSize=22;html=1;fontFamily=KaiTi;" parent="1" source="kj8fbqeVFcNUevWfHqB0-278" target="kj8fbqeVFcNUevWfHqB0-268" edge="1">
          <mxGeometry relative="1" as="geometry">
            <mxPoint x="337.5" y="5097" as="sourcePoint" />
          </mxGeometry>
        </mxCell>
        <mxCell id="kj8fbqeVFcNUevWfHqB0-293" value="1" style="curved=1;startArrow=none;endArrow=none;exitX=1;exitY=0.61;entryX=0;entryY=0.5;rounded=0;entryDx=0;entryDy=0;fontSize=22;html=1;fontFamily=KaiTi;" parent="1" source="kj8fbqeVFcNUevWfHqB0-267" target="kj8fbqeVFcNUevWfHqB0-279" edge="1">
          <mxGeometry relative="1" as="geometry" />
        </mxCell>
        <mxCell id="kj8fbqeVFcNUevWfHqB0-294" value="n" style="curved=1;startArrow=none;endArrow=none;exitX=0.5;exitY=1;entryX=0.5;entryY=-0.01;rounded=0;fontSize=22;html=1;fontFamily=KaiTi;" parent="1" source="kj8fbqeVFcNUevWfHqB0-279" target="kj8fbqeVFcNUevWfHqB0-269" edge="1">
          <mxGeometry relative="1" as="geometry" />
        </mxCell>
        <mxCell id="kj8fbqeVFcNUevWfHqB0-295" value="1" style="curved=1;startArrow=none;endArrow=none;exitX=0.5;exitY=1;entryX=0.5;entryY=0;rounded=0;exitDx=0;exitDy=0;fontSize=22;html=1;fontFamily=KaiTi;" parent="1" source="kj8fbqeVFcNUevWfHqB0-267" target="kj8fbqeVFcNUevWfHqB0-280" edge="1">
          <mxGeometry relative="1" as="geometry">
            <mxPoint x="-319.2099999999996" y="4459" as="sourcePoint" />
          </mxGeometry>
        </mxCell>
        <mxCell id="kj8fbqeVFcNUevWfHqB0-296" value="n" style="curved=1;startArrow=none;endArrow=none;exitX=0.5;exitY=1;entryX=0.5;entryY=-0.01;rounded=0;fontSize=22;html=1;fontFamily=KaiTi;" parent="1" source="kj8fbqeVFcNUevWfHqB0-280" target="kj8fbqeVFcNUevWfHqB0-270" edge="1">
          <mxGeometry relative="1" as="geometry" />
        </mxCell>
        <mxCell id="kj8fbqeVFcNUevWfHqB0-297" value="1" style="curved=1;startArrow=none;endArrow=none;exitX=0.25;exitY=1;entryX=0.5;entryY=0;rounded=0;exitDx=0;exitDy=0;fontSize=22;html=1;fontFamily=KaiTi;" parent="1" source="kj8fbqeVFcNUevWfHqB0-267" target="kj8fbqeVFcNUevWfHqB0-281" edge="1">
          <mxGeometry relative="1" as="geometry" />
        </mxCell>
        <mxCell id="kj8fbqeVFcNUevWfHqB0-298" value="n" style="curved=1;startArrow=none;endArrow=none;exitX=0.5;exitY=1;entryX=0.38;entryY=0;rounded=0;fontSize=22;html=1;fontFamily=KaiTi;" parent="1" source="kj8fbqeVFcNUevWfHqB0-281" target="kj8fbqeVFcNUevWfHqB0-272" edge="1">
          <mxGeometry relative="1" as="geometry" />
        </mxCell>
        <mxCell id="kj8fbqeVFcNUevWfHqB0-299" value="1" style="startArrow=none;endArrow=none;entryX=0.5;entryY=0;rounded=0;exitX=0;exitY=0.5;exitDx=0;exitDy=0;edgeStyle=orthogonalEdgeStyle;fontSize=22;html=1;fontFamily=KaiTi;" parent="1" source="kj8fbqeVFcNUevWfHqB0-267" target="kj8fbqeVFcNUevWfHqB0-282" edge="1">
          <mxGeometry relative="1" as="geometry">
            <mxPoint x="-314" y="4400" as="sourcePoint" />
          </mxGeometry>
        </mxCell>
        <mxCell id="kj8fbqeVFcNUevWfHqB0-300" value="n" style="curved=1;startArrow=none;endArrow=none;exitX=0.5;exitY=1;entryX=0.5;entryY=0;rounded=0;exitDx=0;exitDy=0;entryDx=0;entryDy=0;fontSize=22;html=1;fontFamily=KaiTi;" parent="1" source="kj8fbqeVFcNUevWfHqB0-282" target="kj8fbqeVFcNUevWfHqB0-273" edge="1">
          <mxGeometry relative="1" as="geometry" />
        </mxCell>
        <mxCell id="kj8fbqeVFcNUevWfHqB0-301" value="1" style="curved=1;startArrow=none;endArrow=none;exitX=0.5;exitY=1;entryX=0.5;entryY=0;rounded=0;fontSize=22;html=1;fontFamily=KaiTi;" parent="1" source="kj8fbqeVFcNUevWfHqB0-274" target="kj8fbqeVFcNUevWfHqB0-283" edge="1">
          <mxGeometry relative="1" as="geometry" />
        </mxCell>
        <mxCell id="kj8fbqeVFcNUevWfHqB0-302" value="n" style="curved=1;startArrow=none;endArrow=none;exitX=0.5;exitY=1;entryX=0.05;entryY=0.01;rounded=0;fontSize=22;html=1;fontFamily=KaiTi;" parent="1" source="kj8fbqeVFcNUevWfHqB0-283" target="kj8fbqeVFcNUevWfHqB0-275" edge="1">
          <mxGeometry relative="1" as="geometry" />
        </mxCell>
        <mxCell id="kj8fbqeVFcNUevWfHqB0-303" value="1" style="curved=1;startArrow=none;endArrow=none;exitX=0.06;exitY=1.01;entryX=0.5;entryY=0;rounded=0;fontSize=22;html=1;fontFamily=KaiTi;" parent="1" source="kj8fbqeVFcNUevWfHqB0-275" target="kj8fbqeVFcNUevWfHqB0-284" edge="1">
          <mxGeometry relative="1" as="geometry" />
        </mxCell>
        <mxCell id="kj8fbqeVFcNUevWfHqB0-304" value="n" style="curved=1;startArrow=none;endArrow=none;exitX=0.5;exitY=1;entryX=0.71;entryY=0;rounded=0;fontSize=22;html=1;fontFamily=KaiTi;" parent="1" source="kj8fbqeVFcNUevWfHqB0-284" target="kj8fbqeVFcNUevWfHqB0-268" edge="1">
          <mxGeometry relative="1" as="geometry" />
        </mxCell>
        <mxCell id="kj8fbqeVFcNUevWfHqB0-305" value="1" style="curved=1;startArrow=none;endArrow=none;exitX=0.45;exitY=1.01;entryX=0.5;entryY=0;rounded=0;fontSize=22;html=1;fontFamily=KaiTi;" parent="1" source="kj8fbqeVFcNUevWfHqB0-275" target="kj8fbqeVFcNUevWfHqB0-285" edge="1">
          <mxGeometry relative="1" as="geometry" />
        </mxCell>
        <mxCell id="kj8fbqeVFcNUevWfHqB0-306" value="1" style="curved=1;startArrow=none;endArrow=none;exitX=0.5;exitY=1;entryX=0.5;entryY=0;rounded=0;fontSize=22;html=1;fontFamily=KaiTi;" parent="1" source="kj8fbqeVFcNUevWfHqB0-285" target="kj8fbqeVFcNUevWfHqB0-276" edge="1">
          <mxGeometry relative="1" as="geometry" />
        </mxCell>
        <mxCell id="kj8fbqeVFcNUevWfHqB0-307" value="1" style="curved=1;startArrow=none;endArrow=none;exitX=0.5;exitY=0.99;entryX=0.5;entryY=0;rounded=0;fontSize=22;html=1;fontFamily=KaiTi;" parent="1" source="kj8fbqeVFcNUevWfHqB0-269" target="kj8fbqeVFcNUevWfHqB0-286" edge="1">
          <mxGeometry relative="1" as="geometry" />
        </mxCell>
        <mxCell id="kj8fbqeVFcNUevWfHqB0-308" value="n" style="curved=1;startArrow=none;endArrow=none;exitX=0.5;exitY=1;entryX=0.5;entryY=0;rounded=0;fontSize=22;html=1;fontFamily=KaiTi;" parent="1" source="kj8fbqeVFcNUevWfHqB0-286" target="kj8fbqeVFcNUevWfHqB0-277" edge="1">
          <mxGeometry relative="1" as="geometry" />
        </mxCell>
        <mxCell id="kj8fbqeVFcNUevWfHqB0-309" value="n" style="curved=1;startArrow=none;endArrow=none;exitX=0.26;exitY=1;entryX=0.5;entryY=0;rounded=0;fontSize=22;html=1;fontFamily=KaiTi;" parent="1" source="kj8fbqeVFcNUevWfHqB0-277" target="kj8fbqeVFcNUevWfHqB0-287" edge="1">
          <mxGeometry relative="1" as="geometry" />
        </mxCell>
        <mxCell id="kj8fbqeVFcNUevWfHqB0-310" value="n" style="curved=1;startArrow=none;endArrow=none;exitX=0.5;exitY=1;entryX=0.63;entryY=0.01;rounded=0;fontSize=22;html=1;fontFamily=KaiTi;" parent="1" source="kj8fbqeVFcNUevWfHqB0-287" target="kj8fbqeVFcNUevWfHqB0-275" edge="1">
          <mxGeometry relative="1" as="geometry" />
        </mxCell>
        <mxCell id="kj8fbqeVFcNUevWfHqB0-311" value="1" style="curved=1;startArrow=none;endArrow=none;exitX=1;exitY=0.79;entryX=0.5;entryY=0;rounded=0;fontSize=22;html=1;fontFamily=KaiTi;" parent="1" source="kj8fbqeVFcNUevWfHqB0-270" target="kj8fbqeVFcNUevWfHqB0-288" edge="1">
          <mxGeometry relative="1" as="geometry" />
        </mxCell>
        <mxCell id="kj8fbqeVFcNUevWfHqB0-312" value="n" style="curved=1;startArrow=none;endArrow=none;exitX=0.5;exitY=1;entryX=0.77;entryY=0;rounded=0;fontSize=22;html=1;fontFamily=KaiTi;" parent="1" source="kj8fbqeVFcNUevWfHqB0-288" target="kj8fbqeVFcNUevWfHqB0-271" edge="1">
          <mxGeometry relative="1" as="geometry" />
        </mxCell>
        <mxCell id="kj8fbqeVFcNUevWfHqB0-313" value="1" style="curved=1;startArrow=none;endArrow=none;exitX=0.5;exitY=0.99;entryX=0.5;entryY=0;rounded=0;fontSize=22;html=1;fontFamily=KaiTi;" parent="1" source="kj8fbqeVFcNUevWfHqB0-270" target="kj8fbqeVFcNUevWfHqB0-289" edge="1">
          <mxGeometry relative="1" as="geometry" />
        </mxCell>
        <mxCell id="kj8fbqeVFcNUevWfHqB0-314" value="n" style="curved=1;startArrow=none;endArrow=none;exitX=0.5;exitY=1;entryX=0.72;entryY=0;rounded=0;fontSize=22;html=1;fontFamily=KaiTi;" parent="1" source="kj8fbqeVFcNUevWfHqB0-289" target="kj8fbqeVFcNUevWfHqB0-272" edge="1">
          <mxGeometry relative="1" as="geometry" />
        </mxCell>
        <mxCell id="kj8fbqeVFcNUevWfHqB0-315" value="" style="curved=1;startArrow=none;endArrow=none;exitX=0.5;exitY=1;entryX=0.5;entryY=0;rounded=0;fontSize=22;html=1;fontFamily=KaiTi;" parent="1" source="kj8fbqeVFcNUevWfHqB0-271" target="kj8fbqeVFcNUevWfHqB0-290" edge="1">
          <mxGeometry relative="1" as="geometry" />
        </mxCell>
        <mxCell id="kj8fbqeVFcNUevWfHqB0-316" value="1" style="edgeLabel;html=1;align=center;verticalAlign=middle;resizable=0;points=[];fontSize=22;fontFamily=KaiTi;" parent="kj8fbqeVFcNUevWfHqB0-315" vertex="1" connectable="0">
          <mxGeometry x="0.1823" relative="1" as="geometry">
            <mxPoint as="offset" />
          </mxGeometry>
        </mxCell>
        <mxCell id="kj8fbqeVFcNUevWfHqB0-317" value="n" style="curved=1;startArrow=none;endArrow=none;exitX=0;exitY=0.5;entryX=1;entryY=0.5;rounded=0;entryDx=0;entryDy=0;exitDx=0;exitDy=0;fontSize=22;html=1;fontFamily=KaiTi;" parent="1" source="kj8fbqeVFcNUevWfHqB0-290" target="kj8fbqeVFcNUevWfHqB0-273" edge="1">
          <mxGeometry relative="1" as="geometry" />
        </mxCell>
        <mxCell id="kj8fbqeVFcNUevWfHqB0-318" value="开始" style="strokeWidth=2;whiteSpace=wrap;html=1;shape=mxgraph.flowchart.terminator;fontSize=14;fontFamily=KaiTi;" parent="1" vertex="1">
          <mxGeometry x="-1372.5" y="4517" width="120" height="60" as="geometry" />
        </mxCell>
        <mxCell id="kj8fbqeVFcNUevWfHqB0-319" value="管理员用户登录系统后台" style="shape=label;fixedSize=1;strokeWidth=2;whiteSpace=wrap;rounded=0;html=1;fontSize=14;fontFamily=KaiTi;" parent="1" vertex="1">
          <mxGeometry x="-1458" y="4613" width="290" height="39" as="geometry" />
        </mxCell>
        <mxCell id="kj8fbqeVFcNUevWfHqB0-320" value="进入器材信息管理模块，点击添加按钮" style="rounded=0;whiteSpace=wrap;arcSize=50;strokeWidth=2;html=1;fontSize=14;fontFamily=KaiTi;" parent="1" vertex="1">
          <mxGeometry x="-1458" y="4682" width="290" height="59" as="geometry" />
        </mxCell>
        <mxCell id="kj8fbqeVFcNUevWfHqB0-321" value="填写商品基本信息（分类、名称、简介等）" style="shape=label;fixedSize=1;strokeWidth=2;whiteSpace=wrap;rounded=0;html=1;fontSize=14;fontFamily=KaiTi;" parent="1" vertex="1">
          <mxGeometry x="-1477" y="4771" width="326" height="111" as="geometry" />
        </mxCell>
        <mxCell id="kj8fbqeVFcNUevWfHqB0-322" value="点击保存按钮，提交商品信息到数据库" style="rounded=0;whiteSpace=wrap;arcSize=50;strokeWidth=2;html=1;fontSize=14;fontFamily=KaiTi;" parent="1" vertex="1">
          <mxGeometry x="-1429" y="4908" width="231" height="63" as="geometry" />
        </mxCell>
        <mxCell id="kj8fbqeVFcNUevWfHqB0-323" value="系统提示新增成功，上架完成" style="shape=label;fixedSize=1;strokeWidth=2;whiteSpace=wrap;rounded=0;html=1;fontSize=14;fontFamily=KaiTi;" parent="1" vertex="1">
          <mxGeometry x="-1453" y="4997" width="278" height="63" as="geometry" />
        </mxCell>
        <mxCell id="kj8fbqeVFcNUevWfHqB0-324" value="结束" style="strokeWidth=2;whiteSpace=wrap;html=1;shape=mxgraph.flowchart.terminator;fontSize=14;fontFamily=KaiTi;" parent="1" vertex="1">
          <mxGeometry x="-1373.5" y="5088" width="120" height="51" as="geometry" />
        </mxCell>
        <mxCell id="kj8fbqeVFcNUevWfHqB0-325" value="" style="curved=1;startArrow=none;endArrow=block;exitX=0.49;exitY=1;entryX=0.5;entryY=0;rounded=0;fontSize=14;fontFamily=KaiTi;" parent="1" source="kj8fbqeVFcNUevWfHqB0-318" target="kj8fbqeVFcNUevWfHqB0-319" edge="1">
          <mxGeometry relative="1" as="geometry">
            <Array as="points" />
          </mxGeometry>
        </mxCell>
        <mxCell id="kj8fbqeVFcNUevWfHqB0-326" value="" style="curved=1;startArrow=none;endArrow=block;exitX=0.5;exitY=1;entryX=0.5;entryY=0;rounded=0;fontSize=14;fontFamily=KaiTi;" parent="1" source="kj8fbqeVFcNUevWfHqB0-319" target="kj8fbqeVFcNUevWfHqB0-320" edge="1">
          <mxGeometry relative="1" as="geometry">
            <Array as="points" />
          </mxGeometry>
        </mxCell>
        <mxCell id="kj8fbqeVFcNUevWfHqB0-327" value="" style="curved=1;startArrow=none;endArrow=block;exitX=0.5;exitY=1;entryX=0.5;entryY=0;rounded=0;fontSize=14;fontFamily=KaiTi;" parent="1" source="kj8fbqeVFcNUevWfHqB0-320" target="kj8fbqeVFcNUevWfHqB0-321" edge="1">
          <mxGeometry relative="1" as="geometry">
            <Array as="points" />
          </mxGeometry>
        </mxCell>
        <mxCell id="kj8fbqeVFcNUevWfHqB0-328" value="" style="curved=1;startArrow=none;endArrow=block;exitX=0.5;exitY=1;entryX=0.5;entryY=0;rounded=0;fontSize=14;fontFamily=KaiTi;" parent="1" source="kj8fbqeVFcNUevWfHqB0-321" target="kj8fbqeVFcNUevWfHqB0-322" edge="1">
          <mxGeometry relative="1" as="geometry">
            <Array as="points" />
          </mxGeometry>
        </mxCell>
        <mxCell id="kj8fbqeVFcNUevWfHqB0-329" value="" style="curved=1;startArrow=none;endArrow=block;exitX=0.5;exitY=1;entryX=0.5;entryY=0;rounded=0;fontSize=14;fontFamily=KaiTi;" parent="1" source="kj8fbqeVFcNUevWfHqB0-322" target="kj8fbqeVFcNUevWfHqB0-323" edge="1">
          <mxGeometry relative="1" as="geometry">
            <Array as="points" />
          </mxGeometry>
        </mxCell>
        <mxCell id="kj8fbqeVFcNUevWfHqB0-330" value="" style="curved=1;startArrow=none;endArrow=block;exitX=0.5;exitY=1;entryX=0.49;entryY=0;rounded=0;fontSize=14;fontFamily=KaiTi;" parent="1" source="kj8fbqeVFcNUevWfHqB0-323" target="kj8fbqeVFcNUevWfHqB0-324" edge="1">
          <mxGeometry relative="1" as="geometry">
            <Array as="points" />
          </mxGeometry>
        </mxCell>
        <mxCell id="kj8fbqeVFcNUevWfHqB0-331" value="开始" style="strokeWidth=2;whiteSpace=wrap;rounded=1;html=1;shape=mxgraph.flowchart.terminator;fontSize=14;fontFamily=KaiTi;" parent="1" vertex="1">
          <mxGeometry x="-1372.5" y="3601" width="120" height="50" as="geometry" />
        </mxCell>
        <mxCell id="kj8fbqeVFcNUevWfHqB0-332" value="管理员用户登录系统后台" style="shape=label;fixedSize=1;strokeWidth=2;whiteSpace=wrap;rounded=0;html=1;fontSize=14;fontFamily=KaiTi;" parent="1" vertex="1">
          <mxGeometry x="-1427.5" y="3693" width="230" height="39" as="geometry" />
        </mxCell>
        <mxCell id="kj8fbqeVFcNUevWfHqB0-333" value="进入轮播图配置模块，查看当前轮播图列表" style="rounded=0;whiteSpace=wrap;arcSize=12;strokeWidth=2;shape=label;html=1;size=0.23;fontSize=14;fontFamily=KaiTi;" parent="1" vertex="1">
          <mxGeometry x="-1429" y="3757" width="231" height="63" as="geometry" />
        </mxCell>
        <mxCell id="kj8fbqeVFcNUevWfHqB0-334" value="选择操作" style="rhombus;strokeWidth=2;whiteSpace=wrap;fontSize=14;fontFamily=KaiTi;" parent="1" vertex="1">
          <mxGeometry x="-1387.5" y="3842" width="146" height="87" as="geometry" />
        </mxCell>
        <mxCell id="kj8fbqeVFcNUevWfHqB0-335" value="新增轮播图" style="rounded=0;whiteSpace=wrap;arcSize=50;strokeWidth=2;shape=label;html=1;fixedSize=1;fontSize=14;fontFamily=KaiTi;" parent="1" vertex="1">
          <mxGeometry x="-1631" y="4013" width="105" height="39" as="geometry" />
        </mxCell>
        <mxCell id="kj8fbqeVFcNUevWfHqB0-336" value="编辑已有轮播图" style="rounded=0;whiteSpace=wrap;arcSize=50;strokeWidth=2;shape=label;html=1;fixedSize=1;fontSize=14;fontFamily=KaiTi;" parent="1" vertex="1">
          <mxGeometry x="-1476" y="4013" width="137" height="39" as="geometry" />
        </mxCell>
        <mxCell id="kj8fbqeVFcNUevWfHqB0-337" value="删除已有轮播图" style="rounded=0;whiteSpace=wrap;arcSize=50;strokeWidth=2;html=1;shape=label;fontSize=14;fontFamily=KaiTi;" parent="1" vertex="1">
          <mxGeometry x="-1289" y="4013" width="137" height="39" as="geometry" />
        </mxCell>
        <mxCell id="kj8fbqeVFcNUevWfHqB0-338" value="批量操作轮播图" style="rounded=0;whiteSpace=wrap;arcSize=50;strokeWidth=2;html=1;shape=label;fontSize=14;fontFamily=KaiTi;" parent="1" vertex="1">
          <mxGeometry x="-1103" y="4013" width="137" height="39" as="geometry" />
        </mxCell>
        <mxCell id="kj8fbqeVFcNUevWfHqB0-339" value="轮播图展示内容更新" style="shape=label;fixedSize=1;strokeWidth=2;whiteSpace=wrap;rounded=0;html=1;fontSize=14;fontFamily=KaiTi;" parent="1" vertex="1">
          <mxGeometry x="-1413" y="4102" width="198" height="39" as="geometry" />
        </mxCell>
        <mxCell id="kj8fbqeVFcNUevWfHqB0-340" value="结束" style="strokeWidth=2;whiteSpace=wrap;html=1;shape=mxgraph.flowchart.terminator;fontSize=14;fontFamily=KaiTi;" parent="1" vertex="1">
          <mxGeometry x="-1374.5" y="4175" width="120" height="50" as="geometry" />
        </mxCell>
        <mxCell id="kj8fbqeVFcNUevWfHqB0-341" value="" style="curved=1;startArrow=none;endArrow=block;exitX=0.5;exitY=1;entryX=0.5;entryY=0;rounded=0;fontSize=14;fontFamily=KaiTi;" parent="1" source="kj8fbqeVFcNUevWfHqB0-331" target="kj8fbqeVFcNUevWfHqB0-332" edge="1">
          <mxGeometry relative="1" as="geometry" />
        </mxCell>
        <mxCell id="kj8fbqeVFcNUevWfHqB0-342" value="" style="curved=1;startArrow=none;endArrow=block;exitX=0.5;exitY=1;entryX=0.5;entryY=0;rounded=0;fontSize=14;fontFamily=KaiTi;" parent="1" source="kj8fbqeVFcNUevWfHqB0-332" target="kj8fbqeVFcNUevWfHqB0-333" edge="1">
          <mxGeometry relative="1" as="geometry" />
        </mxCell>
        <mxCell id="kj8fbqeVFcNUevWfHqB0-343" value="" style="curved=1;startArrow=none;endArrow=block;exitX=0.5;exitY=1;entryX=0.5;entryY=0;rounded=0;fontSize=14;fontFamily=KaiTi;" parent="1" source="kj8fbqeVFcNUevWfHqB0-333" target="kj8fbqeVFcNUevWfHqB0-334" edge="1">
          <mxGeometry relative="1" as="geometry" />
        </mxCell>
        <mxCell id="kj8fbqeVFcNUevWfHqB0-344" value="" style="curved=1;startArrow=none;endArrow=block;exitX=0;exitY=0.66;entryX=0.5;entryY=0;rounded=0;fontSize=14;fontFamily=KaiTi;" parent="1" source="kj8fbqeVFcNUevWfHqB0-334" target="kj8fbqeVFcNUevWfHqB0-335" edge="1">
          <mxGeometry relative="1" as="geometry" />
        </mxCell>
        <mxCell id="kj8fbqeVFcNUevWfHqB0-345" value="" style="curved=1;startArrow=none;endArrow=block;exitX=0.5;exitY=1;entryX=0;entryY=0.07;rounded=0;fontSize=14;fontFamily=KaiTi;" parent="1" source="kj8fbqeVFcNUevWfHqB0-335" target="kj8fbqeVFcNUevWfHqB0-339" edge="1">
          <mxGeometry relative="1" as="geometry" />
        </mxCell>
        <mxCell id="kj8fbqeVFcNUevWfHqB0-346" value="" style="curved=1;startArrow=none;endArrow=block;exitX=0;exitY=0.95;entryX=0.5;entryY=0;rounded=0;fontSize=14;fontFamily=KaiTi;" parent="1" source="kj8fbqeVFcNUevWfHqB0-334" target="kj8fbqeVFcNUevWfHqB0-336" edge="1">
          <mxGeometry relative="1" as="geometry" />
        </mxCell>
        <mxCell id="kj8fbqeVFcNUevWfHqB0-347" value="" style="curved=1;startArrow=none;endArrow=block;exitX=0.5;exitY=1;entryX=0.29;entryY=0;rounded=0;fontSize=14;fontFamily=KaiTi;" parent="1" source="kj8fbqeVFcNUevWfHqB0-336" target="kj8fbqeVFcNUevWfHqB0-339" edge="1">
          <mxGeometry relative="1" as="geometry" />
        </mxCell>
        <mxCell id="kj8fbqeVFcNUevWfHqB0-348" value="" style="curved=1;startArrow=none;endArrow=block;exitX=1;exitY=0.95;entryX=0.5;entryY=0;rounded=0;fontSize=14;fontFamily=KaiTi;" parent="1" source="kj8fbqeVFcNUevWfHqB0-334" target="kj8fbqeVFcNUevWfHqB0-337" edge="1">
          <mxGeometry relative="1" as="geometry" />
        </mxCell>
        <mxCell id="kj8fbqeVFcNUevWfHqB0-349" value="" style="curved=1;startArrow=none;endArrow=block;exitX=0.5;exitY=1;entryX=0.7;entryY=0;rounded=0;fontSize=14;fontFamily=KaiTi;" parent="1" source="kj8fbqeVFcNUevWfHqB0-337" target="kj8fbqeVFcNUevWfHqB0-339" edge="1">
          <mxGeometry relative="1" as="geometry" />
        </mxCell>
        <mxCell id="kj8fbqeVFcNUevWfHqB0-350" value="" style="curved=1;startArrow=none;endArrow=block;exitX=1;exitY=0.65;entryX=0.5;entryY=0;rounded=0;fontSize=14;fontFamily=KaiTi;" parent="1" source="kj8fbqeVFcNUevWfHqB0-334" target="kj8fbqeVFcNUevWfHqB0-338" edge="1">
          <mxGeometry relative="1" as="geometry" />
        </mxCell>
        <mxCell id="kj8fbqeVFcNUevWfHqB0-351" value="" style="curved=1;startArrow=none;endArrow=block;exitX=0.5;exitY=1;entryX=1;entryY=0.1;rounded=0;fontSize=14;fontFamily=KaiTi;" parent="1" source="kj8fbqeVFcNUevWfHqB0-338" target="kj8fbqeVFcNUevWfHqB0-339" edge="1">
          <mxGeometry relative="1" as="geometry" />
        </mxCell>
        <mxCell id="kj8fbqeVFcNUevWfHqB0-352" value="" style="curved=1;startArrow=none;endArrow=block;exitX=0.5;exitY=1;entryX=0.5;entryY=0;rounded=0;fontSize=14;fontFamily=KaiTi;" parent="1" source="kj8fbqeVFcNUevWfHqB0-339" target="kj8fbqeVFcNUevWfHqB0-340" edge="1">
          <mxGeometry relative="1" as="geometry" />
        </mxCell>
        <mxCell id="kj8fbqeVFcNUevWfHqB0-353" value="开始" style="strokeWidth=2;whiteSpace=wrap;rounded=1;html=1;shape=mxgraph.flowchart.terminator;fontSize=14;fontFamily=KaiTi;" parent="1" vertex="1">
          <mxGeometry x="-1353" y="5573" width="120" height="50" as="geometry" />
        </mxCell>
        <mxCell id="kj8fbqeVFcNUevWfHqB0-354" value="客户端用户登录进入系统" style="shape=label;fixedSize=1;strokeWidth=2;whiteSpace=wrap;html=1;rounded=0;arcSize=14;size=0.23;absoluteArcSize=1;fontSize=14;fontFamily=KaiTi;" parent="1" vertex="1">
          <mxGeometry x="-1408" y="5647" width="230" height="39" as="geometry" />
        </mxCell>
        <mxCell id="kj8fbqeVFcNUevWfHqB0-355" value="浏览器材商品" style="rounded=0;whiteSpace=wrap;arcSize=14;strokeWidth=2;shape=label;html=1;size=0.23;absoluteArcSize=1;fixedSize=1;fontSize=14;fontFamily=KaiTi;" parent="1" vertex="1">
          <mxGeometry x="-1408" y="5715" width="231" height="63" as="geometry" />
        </mxCell>
        <mxCell id="kj8fbqeVFcNUevWfHqB0-356" value="在商品详情页点击“加入购物车”，确认商品信息，点击去结算" style="rounded=0;whiteSpace=wrap;arcSize=14;strokeWidth=2;shape=label;html=1;size=0.23;absoluteArcSize=1;fixedSize=1;fontSize=14;fontFamily=KaiTi;" parent="1" vertex="1">
          <mxGeometry x="-1408" y="5803" width="231" height="63" as="geometry" />
        </mxCell>
        <mxCell id="kj8fbqeVFcNUevWfHqB0-357" value="核对订单信息，选择支付方式完成支付" style="rounded=0;whiteSpace=wrap;arcSize=14;strokeWidth=2;shape=label;html=1;size=0.23;absoluteArcSize=1;fixedSize=1;fontSize=14;fontFamily=KaiTi;" parent="1" vertex="1">
          <mxGeometry x="-1408" y="5898" width="231" height="63" as="geometry" />
        </mxCell>
        <mxCell id="kj8fbqeVFcNUevWfHqB0-358" value="支付成功后，系统生成订单" style="rounded=0;whiteSpace=wrap;arcSize=14;strokeWidth=2;shape=label;html=1;size=0.23;absoluteArcSize=1;fixedSize=1;fontSize=14;fontFamily=KaiTi;" parent="1" vertex="1">
          <mxGeometry x="-1408.5" y="5993" width="231" height="52" as="geometry" />
        </mxCell>
        <mxCell id="kj8fbqeVFcNUevWfHqB0-359" value="用户可以在“我的订单”模块查看订单状态" style="rounded=0;whiteSpace=wrap;arcSize=14;strokeWidth=2;shape=label;html=1;size=0.23;absoluteArcSize=1;fixedSize=1;fontSize=14;fontFamily=KaiTi;" parent="1" vertex="1">
          <mxGeometry x="-1408.5" y="6076" width="231" height="63" as="geometry" />
        </mxCell>
        <mxCell id="kj8fbqeVFcNUevWfHqB0-360" value="结束" style="strokeWidth=2;whiteSpace=wrap;rounded=1;html=1;shape=mxgraph.flowchart.terminator;fontSize=14;fontFamily=KaiTi;" parent="1" vertex="1">
          <mxGeometry x="-1353" y="6174" width="120" height="50" as="geometry" />
        </mxCell>
        <mxCell id="kj8fbqeVFcNUevWfHqB0-361" value="" style="curved=1;startArrow=none;endArrow=block;exitX=0.5;exitY=1;entryX=0.5;entryY=0;rounded=0;fontSize=14;fontFamily=KaiTi;" parent="1" source="kj8fbqeVFcNUevWfHqB0-353" target="kj8fbqeVFcNUevWfHqB0-354" edge="1">
          <mxGeometry relative="1" as="geometry">
            <Array as="points" />
          </mxGeometry>
        </mxCell>
        <mxCell id="kj8fbqeVFcNUevWfHqB0-362" value="" style="curved=1;startArrow=none;endArrow=block;exitX=0.5;exitY=1;entryX=0.5;entryY=0;rounded=0;fontSize=14;fontFamily=KaiTi;" parent="1" source="kj8fbqeVFcNUevWfHqB0-354" target="kj8fbqeVFcNUevWfHqB0-355" edge="1">
          <mxGeometry relative="1" as="geometry">
            <Array as="points" />
          </mxGeometry>
        </mxCell>
        <mxCell id="kj8fbqeVFcNUevWfHqB0-363" value="" style="curved=1;startArrow=none;endArrow=block;exitX=0.5;exitY=1;entryX=0.5;entryY=0;rounded=0;fontSize=14;fontFamily=KaiTi;" parent="1" source="kj8fbqeVFcNUevWfHqB0-355" target="kj8fbqeVFcNUevWfHqB0-356" edge="1">
          <mxGeometry relative="1" as="geometry">
            <Array as="points" />
          </mxGeometry>
        </mxCell>
        <mxCell id="kj8fbqeVFcNUevWfHqB0-364" value="" style="curved=1;startArrow=none;endArrow=block;exitX=0.5;exitY=1;entryX=0.5;entryY=0;rounded=0;entryDx=0;entryDy=0;fontSize=14;fontFamily=KaiTi;" parent="1" source="kj8fbqeVFcNUevWfHqB0-356" target="kj8fbqeVFcNUevWfHqB0-357" edge="1">
          <mxGeometry relative="1" as="geometry">
            <Array as="points" />
            <mxPoint x="-1292.5" y="5916" as="targetPoint" />
          </mxGeometry>
        </mxCell>
        <mxCell id="kj8fbqeVFcNUevWfHqB0-365" value="" style="curved=1;startArrow=none;endArrow=block;exitX=0.5;exitY=1;entryX=0.5;entryY=0;rounded=0;entryDx=0;entryDy=0;fontSize=14;fontFamily=KaiTi;" parent="1" source="kj8fbqeVFcNUevWfHqB0-357" target="kj8fbqeVFcNUevWfHqB0-358" edge="1">
          <mxGeometry relative="1" as="geometry">
            <Array as="points" />
            <mxPoint x="-1292.5" y="6005" as="targetPoint" />
          </mxGeometry>
        </mxCell>
        <mxCell id="kj8fbqeVFcNUevWfHqB0-366" value="" style="curved=1;startArrow=none;endArrow=block;exitX=0.5;exitY=1;entryX=0.5;entryY=0;rounded=0;fontSize=14;fontFamily=KaiTi;" parent="1" source="kj8fbqeVFcNUevWfHqB0-358" target="kj8fbqeVFcNUevWfHqB0-359" edge="1">
          <mxGeometry relative="1" as="geometry">
            <Array as="points" />
          </mxGeometry>
        </mxCell>
        <mxCell id="kj8fbqeVFcNUevWfHqB0-367" value="" style="curved=1;startArrow=none;endArrow=block;exitX=0.5;exitY=1;entryX=0.5;entryY=0;rounded=0;fontSize=14;fontFamily=KaiTi;" parent="1" source="kj8fbqeVFcNUevWfHqB0-359" target="kj8fbqeVFcNUevWfHqB0-360" edge="1">
          <mxGeometry relative="1" as="geometry">
            <Array as="points" />
          </mxGeometry>
        </mxCell>
        <UserObject label="" plantUmlData="{&quot;data&quot;:&quot;@startuml\nskinparam defaultFontName 楷体\nleft to right direction\nactor \&quot;未注册访客\&quot; as Visitor\nactor \&quot;注册用户\&quot; as User\n\nrectangle \&quot;客户端系统\&quot; {\n    (浏览商品信息) as ViewGoods\n    (商品筛选与搜索) as SearchGoods\n    (购物车管理) as CartManagement\n    (订单下单) as PlaceOrder\n    (个人中心管理) as AccountManagement\n    (论坛互动) as PostForum\n    (注册登录) as RegisterLogin\n}\n\nVisitor --&gt; ViewGoods\nVisitor --&gt; SearchGoods\nVisitor --&gt; RegisterLogin\n\nUser --&gt; ViewGoods\nUser --&gt; SearchGoods\nUser --&gt; CartManagement\nUser --&gt; PlaceOrder\nUser --&gt; AccountManagement\nUser --&gt; PostForum\n@enduml&quot;,&quot;format&quot;:&quot;svg&quot;}" id="kj8fbqeVFcNUevWfHqB0-368">
          <mxCell style="shape=image;noLabel=1;verticalAlign=top;aspect=fixed;imageAspect=0;image=data:image/svg+xml,PHN2ZyB4bWxucz0iaHR0cDovL3d3dy53My5vcmcvMjAwMC9zdmciIHhtbG5zOnhsaW5rPSJodHRwOi8vd3d3LnczLm9yZy8xOTk5L3hsaW5rIiBjb250ZW50U3R5bGVUeXBlPSJ0ZXh0L2NzcyIgZGF0YS1kaWFncmFtLXR5cGU9IkRFU0NSSVBUSU9OIiBoZWlnaHQ9IjQ3OHB4IiBwcmVzZXJ2ZUFzcGVjdFJhdGlvPSJub25lIiBzdHlsZT0id2lkdGg6Mjk3cHg7aGVpZ2h0OjQ3OHB4O2JhY2tncm91bmQ6I0ZGRkZGRjsiIHZlcnNpb249IjEuMSIgdmlld0JveD0iMCAwIDI5NyA0NzgiIHdpZHRoPSIyOTdweCIgem9vbUFuZFBhbj0ibWFnbmlmeSI+PGRlZnMvPjxnPjwhLS1jbHVzdGVyID8/Pz8/LS0+PGcgY2xhc3M9ImNsdXN0ZXIiIGRhdGEtZW50aXR5PSImIzIzNDU4OyYjMjUxNDM7JiMzMTQ3MTsmIzMxOTk1OyYjMzI0Nzk7IiBkYXRhLXNvdXJjZS1saW5lPSI2IiBkYXRhLXVpZD0iZW50MDAwNCIgaWQ9ImNsdXN0ZXJfJiMyMzQ1ODsmIzI1MTQzOyYjMzE0NzE7JiMzMTk5NTsmIzMyNDc5OyI+PHJlY3QgZmlsbD0ibm9uZSIgaGVpZ2h0PSI0NjUiIHJ4PSIyLjUiIHJ5PSIyLjUiIHN0eWxlPSJzdHJva2U6IzE4MTgxODtzdHJva2Utd2lkdGg6MTsiIHdpZHRoPSIxNzEiIHg9IjEyMCIgeT0iNyIvPjx0ZXh0IGZpbGw9IiMwMDAwMDAiIGZvbnQtZmFtaWx5PSImIzI2OTk5OyYjMjAzMDc7IiBmb250LXNpemU9IjE0IiBmb250LXdlaWdodD0iYm9sZCIgbGVuZ3RoQWRqdXN0PSJzcGFjaW5nIiB0ZXh0TGVuZ3RoPSI3MCIgeD0iMTcwLjUiIHk9IjIyLjIzNDQiPiYjMjM0NTg7JiMyNTE0MzsmIzMxNDcxOyYjMzE5OTU7JiMzMjQ3OTs8L3RleHQ+PC9nPjxnIGNsYXNzPSJlbnRpdHkiIGRhdGEtZW50aXR5PSJWaWV3R29vZHMiIGRhdGEtc291cmNlLWxpbmU9IjciIGRhdGEtdWlkPSJlbnQwMDA1IiBpZD0iZW50aXR5X1ZpZXdHb29kcyI+PGVsbGlwc2UgY3g9IjIwNS4zODc4IiBjeT0iMTE4LjE3NzYiIGZpbGw9IiNGMUYxRjEiIHJ4PSI2My44ODc4IiByeT0iMTUuMTc3NiIgc3R5bGU9InN0cm9rZTojMTgxODE4O3N0cm9rZS13aWR0aDowLjU7Ii8+PHRleHQgZmlsbD0iIzAwMDAwMCIgZm9udC1mYW1pbHk9IiYjMjY5OTk7JiMyMDMwNzsiIGZvbnQtc2l6ZT0iMTQiIGxlbmd0aEFkanVzdD0ic3BhY2luZyIgdGV4dExlbmd0aD0iODQiIHg9IjE2My4zODc4IiB5PSIxMjEuOTE5NyI+JiMyNzk4MzsmIzM1MjcyOyYjMjE4MzA7JiMyMTY5NzsmIzIwNDQ5OyYjMjQ2ODc7PC90ZXh0PjwvZz48ZyBjbGFzcz0iZW50aXR5IiBkYXRhLWVudGl0eT0iU2VhcmNoR29vZHMiIGRhdGEtc291cmNlLWxpbmU9IjgiIGRhdGEtdWlkPSJlbnQwMDA2IiBpZD0iZW50aXR5X1NlYXJjaEdvb2RzIj48ZWxsaXBzZSBjeD0iMjA1LjU0NTYiIGN5PSIxODQuODA5MSIgZmlsbD0iI0YxRjFGMSIgcng9IjY5LjU0NTYiIHJ5PSIxNi4zMDkxIiBzdHlsZT0ic3Ryb2tlOiMxODE4MTg7c3Ryb2tlLXdpZHRoOjAuNTsiLz48dGV4dCBmaWxsPSIjMDAwMDAwIiBmb250LWZhbWlseT0iJiMyNjk5OTsmIzIwMzA3OyIgZm9udC1zaXplPSIxNCIgbGVuZ3RoQWRqdXN0PSJzcGFjaW5nIiB0ZXh0TGVuZ3RoPSI5OCIgeD0iMTU2LjU0NTYiIHk9IjE4OC41NTEzIj4mIzIxODMwOyYjMjE2OTc7JiMzMTU3OTsmIzM2ODczOyYjMTk5ODI7JiMyNTYyODsmIzMyMDM0OzwvdGV4dD48L2c+PGcgY2xhc3M9ImVudGl0eSIgZGF0YS1lbnRpdHk9IkNhcnRNYW5hZ2VtZW50IiBkYXRhLXNvdXJjZS1saW5lPSI5IiBkYXRhLXVpZD0iZW50MDAwNyIgaWQ9ImVudGl0eV9DYXJ0TWFuYWdlbWVudCI+PGVsbGlwc2UgY3g9IjIwNS41MzY3IiBjeT0iMzc5LjEwNzMiIGZpbGw9IiNGMUYxRjEiIHJ4PSI1OC41MzY3IiByeT0iMTQuMTA3MyIgc3R5bGU9InN0cm9rZTojMTgxODE4O3N0cm9rZS13aWR0aDowLjU7Ii8+PHRleHQgZmlsbD0iIzAwMDAwMCIgZm9udC1mYW1pbHk9IiYjMjY5OTk7JiMyMDMwNzsiIGZvbnQtc2l6ZT0iMTQiIGxlbmd0aEFkanVzdD0ic3BhY2luZyIgdGV4dExlbmd0aD0iNzAiIHg9IjE3MC41MzY3IiB5PSIzODIuODQ5NSI+JiMzNjE0MTsmIzI5Mjg5OyYjMzY3MTA7JiMzMTY0OTsmIzI5NzAyOzwvdGV4dD48L2c+PGcgY2xhc3M9ImVudGl0eSIgZGF0YS1lbnRpdHk9IlBsYWNlT3JkZXIiIGRhdGEtc291cmNlLWxpbmU9IjEwIiBkYXRhLXVpZD0iZW50MDAwOCIgaWQ9ImVudGl0eV9QbGFjZU9yZGVyIj48ZWxsaXBzZSBjeD0iMjA1LjU4MzMiIGN5PSI0NDIuMDk1NiIgZmlsbD0iI0YxRjFGMSIgcng9IjUxLjA4MzMiIHJ5PSIxMy41OTU2IiBzdHlsZT0ic3Ryb2tlOiMxODE4MTg7c3Ryb2tlLXdpZHRoOjAuNTsiLz48dGV4dCBmaWxsPSIjMDAwMDAwIiBmb250LWZhbWlseT0iJiMyNjk5OTsmIzIwMzA3OyIgZm9udC1zaXplPSIxNCIgbGVuZ3RoQWRqdXN0PSJzcGFjaW5nIiB0ZXh0TGVuZ3RoPSI1NiIgeD0iMTc3LjU4MzMiIHk9IjQ0NS44Mzc3Ij4mIzM1NzQ2OyYjMjEzMzM7JiMxOTk3OTsmIzIxMzMzOzwvdGV4dD48L2c+PGcgY2xhc3M9ImVudGl0eSIgZGF0YS1lbnRpdHk9IkFjY291bnRNYW5hZ2VtZW50IiBkYXRhLXNvdXJjZS1saW5lPSIxMSIgZGF0YS11aWQ9ImVudDAwMDkiIGlkPSJlbnRpdHlfQWNjb3VudE1hbmFnZW1lbnQiPjxlbGxpcHNlIGN4PSIyMDUuMzg3OCIgY3k9IjI1Mi4xNzc2IiBmaWxsPSIjRjFGMUYxIiByeD0iNjMuODg3OCIgcnk9IjE1LjE3NzYiIHN0eWxlPSJzdHJva2U6IzE4MTgxODtzdHJva2Utd2lkdGg6MC41OyIvPjx0ZXh0IGZpbGw9IiMwMDAwMDAiIGZvbnQtZmFtaWx5PSImIzI2OTk5OyYjMjAzMDc7IiBmb250LXNpemU9IjE0IiBsZW5ndGhBZGp1c3Q9InNwYWNpbmciIHRleHRMZW5ndGg9Ijg0IiB4PSIxNjMuMzg3OCIgeT0iMjU1LjkxOTciPiYjMjAwMTA7JiMyMDE1NDsmIzIwMDEzOyYjMjQ1MTU7JiMzMTY0OTsmIzI5NzAyOzwvdGV4dD48L2c+PGcgY2xhc3M9ImVudGl0eSIgZGF0YS1lbnRpdHk9IlBvc3RGb3J1bSIgZGF0YS1zb3VyY2UtbGluZT0iMTIiIGRhdGEtdWlkPSJlbnQwMDEwIiBpZD0iZW50aXR5X1Bvc3RGb3J1bSI+PGVsbGlwc2UgY3g9IjIwNS41ODMzIiBjeT0iMzE2LjA5NTYiIGZpbGw9IiNGMUYxRjEiIHJ4PSI1MS4wODMzIiByeT0iMTMuNTk1NiIgc3R5bGU9InN0cm9rZTojMTgxODE4O3N0cm9rZS13aWR0aDowLjU7Ii8+PHRleHQgZmlsbD0iIzAwMDAwMCIgZm9udC1mYW1pbHk9IiYjMjY5OTk7JiMyMDMwNzsiIGZvbnQtc2l6ZT0iMTQiIGxlbmd0aEFkanVzdD0ic3BhY2luZyIgdGV4dExlbmd0aD0iNTYiIHg9IjE3Ny41ODMzIiB5PSIzMTkuODM3NyI+JiMzNTc3MDsmIzIyMzYzOyYjMjAxMTQ7JiMyMTE2MDs8L3RleHQ+PC9nPjxnIGNsYXNzPSJlbnRpdHkiIGRhdGEtZW50aXR5PSJSZWdpc3RlckxvZ2luIiBkYXRhLXNvdXJjZS1saW5lPSIxMyIgZGF0YS11aWQ9ImVudDAwMTEiIGlkPSJlbnRpdHlfUmVnaXN0ZXJMb2dpbiI+PGVsbGlwc2UgY3g9IjIwNS41ODMzIiBjeT0iNTQuMDk1NiIgZmlsbD0iI0YxRjFGMSIgcng9IjUxLjA4MzMiIHJ5PSIxMy41OTU2IiBzdHlsZT0ic3Ryb2tlOiMxODE4MTg7c3Ryb2tlLXdpZHRoOjAuNTsiLz48dGV4dCBmaWxsPSIjMDAwMDAwIiBmb250LWZhbWlseT0iJiMyNjk5OTsmIzIwMzA3OyIgZm9udC1zaXplPSIxNCIgbGVuZ3RoQWRqdXN0PSJzcGFjaW5nIiB0ZXh0TGVuZ3RoPSI1NiIgeD0iMTc3LjU4MzMiIHk9IjU3LjgzNzciPiYjMjc4ODA7JiMyMDg3NjsmIzMwMzMxOyYjMjQ0MDU7PC90ZXh0PjwvZz48IS0tZW50aXR5IFZpc2l0b3ItLT48ZyBjbGFzcz0iZW50aXR5IiBkYXRhLWVudGl0eT0iVmlzaXRvciIgZGF0YS1zb3VyY2UtbGluZT0iMyIgZGF0YS11aWQ9ImVudDAwMDIiIGlkPSJlbnRpdHlfVmlzaXRvciI+PGVsbGlwc2UgY3g9IjQxIiBjeT0iODkiIGZpbGw9IiNGMUYxRjEiIHJ4PSI4IiByeT0iOCIgc3R5bGU9InN0cm9rZTojMTgxODE4O3N0cm9rZS13aWR0aDowLjU7Ii8+PHBhdGggZD0iTTQxLDk3IEw0MSwxMjQgTTI4LDEwNSBMNTQsMTA1IE00MSwxMjQgTDI4LDEzOSBNNDEsMTI0IEw1NCwxMzkiIGZpbGw9Im5vbmUiIHN0eWxlPSJzdHJva2U6IzE4MTgxODtzdHJva2Utd2lkdGg6MC41OyIvPjx0ZXh0IGZpbGw9IiMwMDAwMDAiIGZvbnQtZmFtaWx5PSImIzI2OTk5OyYjMjAzMDc7IiBmb250LXNpemU9IjE0IiBsZW5ndGhBZGp1c3Q9InNwYWNpbmciIHRleHRMZW5ndGg9IjcwIiB4PSI2IiB5PSIxNTMuNzM0NCI+JiMyNjQxMDsmIzI3ODgwOyYjMjA4NzY7JiMzNTc3NTsmIzIzNDU4OzwvdGV4dD48L2c+PCEtLWVudGl0eSBVc2VyLS0+PGcgY2xhc3M9ImVudGl0eSIgZGF0YS1lbnRpdHk9IlVzZXIiIGRhdGEtc291cmNlLWxpbmU9IjQiIGRhdGEtdWlkPSJlbnQwMDAzIiBpZD0iZW50aXR5X1VzZXIiPjxlbGxpcHNlIGN4PSI0MSIgY3k9IjI1NSIgZmlsbD0iI0YxRjFGMSIgcng9IjgiIHJ5PSI4IiBzdHlsZT0ic3Ryb2tlOiMxODE4MTg7c3Ryb2tlLXdpZHRoOjAuNTsiLz48cGF0aCBkPSJNNDEsMjYzIEw0MSwyOTAgTTI4LDI3MSBMNTQsMjcxIE00MSwyOTAgTDI4LDMwNSBNNDEsMjkwIEw1NCwzMDUiIGZpbGw9Im5vbmUiIHN0eWxlPSJzdHJva2U6IzE4MTgxODtzdHJva2Utd2lkdGg6MC41OyIvPjx0ZXh0IGZpbGw9IiMwMDAwMDAiIGZvbnQtZmFtaWx5PSImIzI2OTk5OyYjMjAzMDc7IiBmb250LXNpemU9IjE0IiBsZW5ndGhBZGp1c3Q9InNwYWNpbmciIHRleHRMZW5ndGg9IjU2IiB4PSIxMyIgeT0iMzE5LjczNDQiPiYjMjc4ODA7JiMyMDg3NjsmIzI5OTkyOyYjMjUxNDM7PC90ZXh0PjwvZz48IS0tbGluayBWaXNpdG9yIHRvIFZpZXdHb29kcy0tPjxnIGNsYXNzPSJsaW5rIiBkYXRhLWVudGl0eS0xPSJWaXNpdG9yIiBkYXRhLWVudGl0eS0yPSJWaWV3R29vZHMiIGRhdGEtc291cmNlLWxpbmU9IjE2IiBkYXRhLXVpZD0ibG5rMTIiIGlkPSJsaW5rX1Zpc2l0b3JfVmlld0dvb2RzIj48cGF0aCBkPSJNNzYuMDcsMTE4IEM5NC45NiwxMTggMTEzLjA2LDExOCAxMzUuMjcsMTE4IiBmaWxsPSJub25lIiBpZD0iVmlzaXRvci10by1WaWV3R29vZHMiIHN0eWxlPSJzdHJva2U6IzE4MTgxODtzdHJva2Utd2lkdGg6MTsiLz48cG9seWdvbiBmaWxsPSIjMTgxODE4IiBwb2ludHM9IjE0MS4yNywxMTgsMTMyLjI3LDExNCwxMzYuMjcsMTE4LDEzMi4yNywxMjIsMTQxLjI3LDExOCIgc3R5bGU9InN0cm9rZTojMTgxODE4O3N0cm9rZS13aWR0aDoxOyIvPjwvZz48IS0tbGluayBWaXNpdG9yIHRvIFNlYXJjaEdvb2RzLS0+PGcgY2xhc3M9ImxpbmsiIGRhdGEtZW50aXR5LTE9IlZpc2l0b3IiIGRhdGEtZW50aXR5LTI9IlNlYXJjaEdvb2RzIiBkYXRhLXNvdXJjZS1saW5lPSIxNyIgZGF0YS11aWQ9ImxuazEzIiBpZD0ibGlua19WaXNpdG9yX1NlYXJjaEdvb2RzIj48cGF0aCBkPSJNNzYuMzMsMTM0LjI1IEM4Ny42MiwxMzkuNDUgMTAwLjI4LDE0NS4xMSAxMTIsMTUwIEMxMjkuNzUsMTU3LjQgMTQ0LjA0NDQsMTYyLjk0MzggMTYwLjg0NDQsMTY5LjE3MzgiIGZpbGw9Im5vbmUiIGlkPSJWaXNpdG9yLXRvLVNlYXJjaEdvb2RzIiBzdHlsZT0ic3Ryb2tlOiMxODE4MTg7c3Ryb2tlLXdpZHRoOjE7Ii8+PHBvbHlnb24gZmlsbD0iIzE4MTgxOCIgcG9pbnRzPSIxNjYuNDcsMTcxLjI2LDE1OS40MjIzLDE2NC4zODAzLDE2MS43ODIsMTY5LjUyMTUsMTU2LjY0MDgsMTcxLjg4MTIsMTY2LjQ3LDE3MS4yNiIgc3R5bGU9InN0cm9rZTojMTgxODE4O3N0cm9rZS13aWR0aDoxOyIvPjwvZz48IS0tbGluayBWaXNpdG9yIHRvIFJlZ2lzdGVyTG9naW4tLT48ZyBjbGFzcz0ibGluayIgZGF0YS1lbnRpdHktMT0iVmlzaXRvciIgZGF0YS1lbnRpdHktMj0iUmVnaXN0ZXJMb2dpbiIgZGF0YS1zb3VyY2UtbGluZT0iMTgiIGRhdGEtdWlkPSJsbmsxNCIgaWQ9ImxpbmtfVmlzaXRvcl9SZWdpc3RlckxvZ2luIj48cGF0aCBkPSJNNzYuMTgsMTAwLjkxIEM4Ny40Niw5NS41MyAxMDAuMTYsODkuNzYgMTEyLDg1IEMxMzEuMzMsNzcuMjQgMTQ3LjcyMzYsNzEuNjAyOCAxNjUuNDczNiw2NS45NDI4IiBmaWxsPSJub25lIiBpZD0iVmlzaXRvci10by1SZWdpc3RlckxvZ2luIiBzdHlsZT0ic3Ryb2tlOiMxODE4MTg7c3Ryb2tlLXdpZHRoOjE7Ii8+PHBvbHlnb24gZmlsbD0iIzE4MTgxOCIgcG9pbnRzPSIxNzEuMTksNjQuMTIsMTYxLjQwMDIsNjMuMDQzMywxNjYuNDI2Myw2NS42MzksMTYzLjgzMDYsNzAuNjY1MiwxNzEuMTksNjQuMTIiIHN0eWxlPSJzdHJva2U6IzE4MTgxODtzdHJva2Utd2lkdGg6MTsiLz48L2c+PCEtLWxpbmsgVXNlciB0byBWaWV3R29vZHMtLT48ZyBjbGFzcz0ibGluayIgZGF0YS1lbnRpdHktMT0iVXNlciIgZGF0YS1lbnRpdHktMj0iVmlld0dvb2RzIiBkYXRhLXNvdXJjZS1saW5lPSIyMCIgZGF0YS11aWQ9ImxuazE1IiBpZD0ibGlua19Vc2VyX1ZpZXdHb29kcyI+PHBhdGggZD0iTTUzLjI5LDI0Ni40NyBDNjMuOTksMjE2LjggODIuODMsMTc2LjMgMTEyLDE1MSBDMTI0LjQ5LDE0MC4xNiAxMzUuMDg3NSwxMzQuNjM1MSAxNTAuNTI3NSwxMjkuNjc1MSIgZmlsbD0ibm9uZSIgaWQ9IlVzZXItdG8tVmlld0dvb2RzIiBzdHlsZT0ic3Ryb2tlOiMxODE4MTg7c3Ryb2tlLXdpZHRoOjE7Ii8+PHBvbHlnb24gZmlsbD0iIzE4MTgxOCIgcG9pbnRzPSIxNTYuMjQsMTI3Ljg0LDE0Ni40NDc5LDEyNi43ODQzLDE1MS40Nzk2LDEyOS4zNjkyLDE0OC44OTQ3LDEzNC40MDEsMTU2LjI0LDEyNy44NCIgc3R5bGU9InN0cm9rZTojMTgxODE4O3N0cm9rZS13aWR0aDoxOyIvPjwvZz48IS0tbGluayBVc2VyIHRvIFNlYXJjaEdvb2RzLS0+PGcgY2xhc3M9ImxpbmsiIGRhdGEtZW50aXR5LTE9IlVzZXIiIGRhdGEtZW50aXR5LTI9IlNlYXJjaEdvb2RzIiBkYXRhLXNvdXJjZS1saW5lPSIyMSIgZGF0YS11aWQ9ImxuazE2IiBpZD0ibGlua19Vc2VyX1NlYXJjaEdvb2RzIj48cGF0aCBkPSJNNjkuMTYsMjU0IEM4MS4zNCwyNDEuODggOTYuNDUsMjI4LjU0IDExMiwyMTkgQzEyNi41OCwyMTAuMDUgMTM4LjIxNjMsMjA0Ljg2MTYgMTUzLjg4NjMsMTk5LjQ3MTYiIGZpbGw9Im5vbmUiIGlkPSJVc2VyLXRvLVNlYXJjaEdvb2RzIiBzdHlsZT0ic3Ryb2tlOiMxODE4MTg7c3Ryb2tlLXdpZHRoOjE7Ii8+PHBvbHlnb24gZmlsbD0iIzE4MTgxOCIgcG9pbnRzPSIxNTkuNTYsMTk3LjUyLDE0OS43NDgzLDE5Ni42NjQ5LDE1NC44MzE5LDE5OS4xNDYzLDE1Mi4zNTA1LDIwNC4yMjk5LDE1OS41NiwxOTcuNTIiIHN0eWxlPSJzdHJva2U6IzE4MTgxODtzdHJva2Utd2lkdGg6MTsiLz48L2c+PCEtLWxpbmsgVXNlciB0byBDYXJ0TWFuYWdlbWVudC0tPjxnIGNsYXNzPSJsaW5rIiBkYXRhLWVudGl0eS0xPSJVc2VyIiBkYXRhLWVudGl0eS0yPSJDYXJ0TWFuYWdlbWVudCIgZGF0YS1zb3VyY2UtbGluZT0iMjIiIGRhdGEtdWlkPSJsbmsxNyIgaWQ9ImxpbmtfVXNlcl9DYXJ0TWFuYWdlbWVudCI+PHBhdGggZD0iTTY5LjIyLDMxMy4xOCBDODEuNDEsMzI0Ljk1IDk2LjUxLDMzNy44NiAxMTIsMzQ3IEMxMjguMSwzNTYuNSAxNDEuNzA0NSwzNjEuOTc4MSAxNTguNTM0NSwzNjcuMTQ4MSIgZmlsbD0ibm9uZSIgaWQ9IlVzZXItdG8tQ2FydE1hbmFnZW1lbnQiIHN0eWxlPSJzdHJva2U6IzE4MTgxODtzdHJva2Utd2lkdGg6MTsiLz48cG9seWdvbiBmaWxsPSIjMTgxODE4IiBwb2ludHM9IjE2NC4yNywzNjguOTEsMTU2Ljg0MTQsMzYyLjQ0MzUsMTU5LjQ5MDQsMzY3LjQ0MTgsMTU0LjQ5MjIsMzcwLjA5MDgsMTY0LjI3LDM2OC45MSIgc3R5bGU9InN0cm9rZTojMTgxODE4O3N0cm9rZS13aWR0aDoxOyIvPjwvZz48IS0tbGluayBVc2VyIHRvIFBsYWNlT3JkZXItLT48ZyBjbGFzcz0ibGluayIgZGF0YS1lbnRpdHktMT0iVXNlciIgZGF0YS1lbnRpdHktMj0iUGxhY2VPcmRlciIgZGF0YS1zb3VyY2UtbGluZT0iMjMiIGRhdGEtdWlkPSJsbmsxOCIgaWQ9ImxpbmtfVXNlcl9QbGFjZU9yZGVyIj48cGF0aCBkPSJNNTQuNTEsMzIxLjY1IEM2NS41NywzNDkuNiA4NC4zMSwzODYuNzUgMTEyLDQxMCBDMTI2LjQ1LDQyMi4xMyAxMzkuOTc1OCw0MjguMTU1NCAxNTcuMjA1OCw0MzIuOTA1NCIgZmlsbD0ibm9uZSIgaWQ9IlVzZXItdG8tUGxhY2VPcmRlciIgc3R5bGU9InN0cm9rZTojMTgxODE4O3N0cm9rZS13aWR0aDoxOyIvPjxwb2x5Z29uIGZpbGw9IiMxODE4MTgiIHBvaW50cz0iMTYyLjk5LDQzNC41LDE1NS4zNzY3LDQyOC4yNTE5LDE1OC4xNjk4LDQzMy4xNzEyLDE1My4yNTA2LDQzNS45NjQyLDE2Mi45OSw0MzQuNSIgc3R5bGU9InN0cm9rZTojMTgxODE4O3N0cm9rZS13aWR0aDoxOyIvPjwvZz48IS0tbGluayBVc2VyIHRvIEFjY291bnRNYW5hZ2VtZW50LS0+PGcgY2xhc3M9ImxpbmsiIGRhdGEtZW50aXR5LTE9IlVzZXIiIGRhdGEtZW50aXR5LTI9IkFjY291bnRNYW5hZ2VtZW50IiBkYXRhLXNvdXJjZS1saW5lPSIyNCIgZGF0YS11aWQ9ImxuazE5IiBpZD0ibGlua19Vc2VyX0FjY291bnRNYW5hZ2VtZW50Ij48cGF0aCBkPSJNNjkuMiwyNzguNjQgQzkyLjc4LDI3NCAxMjEuNTkzMywyNjguMzMwNyAxNDkuOTQzMywyNjIuNzQwNyIgZmlsbD0ibm9uZSIgaWQ9IlVzZXItdG8tQWNjb3VudE1hbmFnZW1lbnQiIHN0eWxlPSJzdHJva2U6IzE4MTgxODtzdHJva2Utd2lkdGg6MTsiLz48cG9seWdvbiBmaWxsPSIjMTgxODE4IiBwb2ludHM9IjE1NS44MywyNjEuNTgsMTQ2LjIyNjIsMjU5LjM5NjYsMTUwLjkyNDUsMjYyLjU0NzMsMTQ3Ljc3MzgsMjY3LjI0NTUsMTU1LjgzLDI2MS41OCIgc3R5bGU9InN0cm9rZTojMTgxODE4O3N0cm9rZS13aWR0aDoxOyIvPjwvZz48IS0tbGluayBVc2VyIHRvIFBvc3RGb3J1bS0tPjxnIGNsYXNzPSJsaW5rIiBkYXRhLWVudGl0eS0xPSJVc2VyIiBkYXRhLWVudGl0eS0yPSJQb3N0Rm9ydW0iIGRhdGEtc291cmNlLWxpbmU9IjI1IiBkYXRhLXVpZD0ibG5rMjAiIGlkPSJsaW5rX1VzZXJfUG9zdEZvcnVtIj48cGF0aCBkPSJNNjkuMiwyODkuMzYgQzk1LjEzLDI5NC40NiAxMjguNjEyNywzMDEuMDYyNCAxNTguMjEyNywzMDYuODgyNCIgZmlsbD0ibm9uZSIgaWQ9IlVzZXItdG8tUG9zdEZvcnVtIiBzdHlsZT0ic3Ryb2tlOiMxODE4MTg7c3Ryb2tlLXdpZHRoOjE7Ii8+PHBvbHlnb24gZmlsbD0iIzE4MTgxOCIgcG9pbnRzPSIxNjQuMSwzMDguMDQsMTU2LjA0MDgsMzAyLjM3ODgsMTU5LjE5MzksMzA3LjA3NTQsMTU0LjQ5NzQsMzEwLjIyODUsMTY0LjEsMzA4LjA0IiBzdHlsZT0ic3Ryb2tlOiMxODE4MTg7c3Ryb2tlLXdpZHRoOjE7Ii8+PC9nPjwhLS1TUkM9W1JQMUZJeUNtMENObC1ISVg5cHRpQW1XWXdDTF9BN2VGUlRPTGtxUkkzMHlZRThJbi1OU3VUdjBmaWU0dzktaUVjd25xWjdzUGZBZFZtZ3dUakt2cHdFNnpOcnh3ZGRyV004VThlWnBLUzFPTEpCUEFCQlE5eVhad3BxQy1oVzRKUG5iYTE1OTNwcDZlNkhJaHAyME1HMmVaNTJoLUd5VmxqcU5mQ2QwY21jYWY0RGJtdHgyRHE0b0dvOVR0UlJ5eVpGbXo2ckMwZmE3OHFhcUNiVjFZd0NkdGRrb0Z2RVg5V1NTMFhjVjFfeFc5TmlrWU5YQXI4ZnlxX005bENTeDdIc2s0UTdQQ25SeGlEWnZGQXpvenpnaUZTajJBbTVzQ2c5ZkJlUzZXQW9qbG1WWDVFYXJQQktORzJnOWkwcmI4bnRiaWlIZGRqQ0hMZFJpTnVKVTJqYXNhdVlzZ1hKeVUwVHBqU0NfWlJiVENwYjlQb3dmQTJqT19TUHZ1UjczbExmb3R1cFhZWHFGSkdkeE1DcnhlVllKNnlOQ3hNM1RpWGthd3FHcUJkMDBtY25IY0Nha2YtY2FydEpNal91dTJxLXRkS1g4ZjdQNjhTX0NhVWNnSEhGalJfbVZfUmxtNV0tLT48L2c+PC9zdmc+;fontSize=14;fontFamily=KaiTi;" parent="1" vertex="1">
            <mxGeometry x="-2394" y="4950" width="297" height="478" as="geometry" />
          </mxCell>
        </UserObject>
        <mxCell id="kj8fbqeVFcNUevWfHqB0-369" value="A" style="whiteSpace=wrap;strokeWidth=2;fontSize=14;fontFamily=KaiTi;" parent="1" vertex="1">
          <mxGeometry x="79" y="6245" width="69" height="54" as="geometry" />
        </mxCell>
        <mxCell id="kj8fbqeVFcNUevWfHqB0-370" value="B" style="whiteSpace=wrap;strokeWidth=2;fontSize=14;fontFamily=KaiTi;" parent="1" vertex="1">
          <mxGeometry x="20" y="6349" width="69" height="54" as="geometry" />
        </mxCell>
        <mxCell id="kj8fbqeVFcNUevWfHqB0-371" value="C" style="whiteSpace=wrap;strokeWidth=2;fontSize=14;fontFamily=KaiTi;" parent="1" vertex="1">
          <mxGeometry x="139" y="6349" width="70" height="54" as="geometry" />
        </mxCell>
        <mxCell id="kj8fbqeVFcNUevWfHqB0-372" value="D" style="whiteSpace=wrap;strokeWidth=2;fontSize=14;fontFamily=KaiTi;" parent="1" vertex="1">
          <mxGeometry x="79" y="6453" width="70" height="54" as="geometry" />
        </mxCell>
        <mxCell id="kj8fbqeVFcNUevWfHqB0-373" value="" style="curved=1;startArrow=none;endArrow=block;exitX=0.06;exitY=1;entryX=0.5;entryY=0;rounded=0;fontSize=14;fontFamily=KaiTi;" parent="1" source="kj8fbqeVFcNUevWfHqB0-369" target="kj8fbqeVFcNUevWfHqB0-370" edge="1">
          <mxGeometry relative="1" as="geometry">
            <Array as="points">
              <mxPoint x="55" y="6324" />
            </Array>
          </mxGeometry>
        </mxCell>
        <mxCell id="kj8fbqeVFcNUevWfHqB0-374" value="" style="curved=1;startArrow=none;endArrow=block;exitX=0.96;exitY=1;entryX=0.5;entryY=0;rounded=0;fontSize=14;fontFamily=KaiTi;" parent="1" source="kj8fbqeVFcNUevWfHqB0-369" target="kj8fbqeVFcNUevWfHqB0-371" edge="1">
          <mxGeometry relative="1" as="geometry">
            <Array as="points">
              <mxPoint x="174" y="6324" />
            </Array>
          </mxGeometry>
        </mxCell>
        <mxCell id="kj8fbqeVFcNUevWfHqB0-375" value="" style="curved=1;startArrow=none;endArrow=block;exitX=0.5;exitY=1;entryX=0.06;entryY=0;rounded=0;fontSize=14;fontFamily=KaiTi;" parent="1" source="kj8fbqeVFcNUevWfHqB0-370" target="kj8fbqeVFcNUevWfHqB0-372" edge="1">
          <mxGeometry relative="1" as="geometry">
            <Array as="points">
              <mxPoint x="55" y="6428" />
            </Array>
          </mxGeometry>
        </mxCell>
        <mxCell id="kj8fbqeVFcNUevWfHqB0-376" value="" style="curved=1;startArrow=none;endArrow=block;exitX=0.5;exitY=1;entryX=0.95;entryY=0;rounded=0;fontSize=14;fontFamily=KaiTi;" parent="1" source="kj8fbqeVFcNUevWfHqB0-371" target="kj8fbqeVFcNUevWfHqB0-372" edge="1">
          <mxGeometry relative="1" as="geometry">
            <Array as="points">
              <mxPoint x="174" y="6428" />
            </Array>
          </mxGeometry>
        </mxCell>
        <UserObject label="" plantUmlData="{&quot;data&quot;:&quot;@startuml\nskinparam defaultFontName 楷体\nleft to right direction\n\nactor \&quot;管理员\&quot; as Admin\nrectangle \&quot;后台管理系统\&quot; {\n    (轮播图管理) as ManageBanners\n    (热销器材管理) as ManageCategories\n    (最新上架配置) as ManageGoods\n    (为你推荐配置) as ConfigureHotGoods\n    (器材分类与器材信息管理) as ConfigureNewGoods\n    (器材订单管理) as ManageRecommendations\n    (用户管理) as ManageUsers\n    (系统管理) as ChangePassword\n}\n\nAdmin --&gt; ManageBanners\nAdmin --&gt; ManageCategories\nAdmin --&gt; ManageGoods\nAdmin --&gt; ConfigureHotGoods\nAdmin --&gt; ConfigureNewGoods\nAdmin --&gt; ManageRecommendations\nAdmin --&gt; ManageUsers\nAdmin --&gt; ChangePassword\n@enduml&quot;,&quot;format&quot;:&quot;svg&quot;}" id="kj8fbqeVFcNUevWfHqB0-377">
          <mxCell style="shape=image;noLabel=1;verticalAlign=top;aspect=fixed;imageAspect=0;image=data:image/svg+xml,PHN2ZyB4bWxucz0iaHR0cDovL3d3dy53My5vcmcvMjAwMC9zdmciIHhtbG5zOnhsaW5rPSJodHRwOi8vd3d3LnczLm9yZy8xOTk5L3hsaW5rIiBjb250ZW50U3R5bGVUeXBlPSJ0ZXh0L2NzcyIgZGF0YS1kaWFncmFtLXR5cGU9IkRFU0NSSVBUSU9OIiBoZWlnaHQ9IjU1MnB4IiBwcmVzZXJ2ZUFzcGVjdFJhdGlvPSJub25lIiBzdHlsZT0id2lkdGg6MzE4cHg7aGVpZ2h0OjU1MnB4O2JhY2tncm91bmQ6I0ZGRkZGRjsiIHZlcnNpb249IjEuMSIgdmlld0JveD0iMCAwIDMxOCA1NTIiIHdpZHRoPSIzMThweCIgem9vbUFuZFBhbj0ibWFnbmlmeSI+PGRlZnMvPjxnPjwhLS1jbHVzdGVyID8/Pz8/Py0tPjxnIGNsYXNzPSJjbHVzdGVyIiBkYXRhLWVudGl0eT0iJiMyMTUxODsmIzIxNDg4OyYjMzE2NDk7JiMyOTcwMjsmIzMxOTk1OyYjMzI0Nzk7IiBkYXRhLXNvdXJjZS1saW5lPSI1IiBkYXRhLXVpZD0iZW50MDAwMyIgaWQ9ImNsdXN0ZXJfJiMyMTUxODsmIzIxNDg4OyYjMzE2NDk7JiMyOTcwMjsmIzMxOTk1OyYjMzI0Nzk7Ij48cmVjdCBmaWxsPSJub25lIiBoZWlnaHQ9IjUzOSIgcng9IjIuNSIgcnk9IjIuNSIgc3R5bGU9InN0cm9rZTojMTgxODE4O3N0cm9rZS13aWR0aDoxOyIgd2lkdGg9IjIyMCIgeD0iOTIiIHk9IjciLz48dGV4dCBmaWxsPSIjMDAwMDAwIiBmb250LWZhbWlseT0iJiMyNjk5OTsmIzIwMzA3OyIgZm9udC1zaXplPSIxNCIgZm9udC13ZWlnaHQ9ImJvbGQiIGxlbmd0aEFkanVzdD0ic3BhY2luZyIgdGV4dExlbmd0aD0iODQiIHg9IjE2MCIgeT0iMjIuMjM0NCI+JiMyMTUxODsmIzIxNDg4OyYjMzE2NDk7JiMyOTcwMjsmIzMxOTk1OyYjMzI0Nzk7PC90ZXh0PjwvZz48ZyBjbGFzcz0iZW50aXR5IiBkYXRhLWVudGl0eT0iTWFuYWdlQmFubmVycyIgZGF0YS1zb3VyY2UtbGluZT0iNiIgZGF0YS11aWQ9ImVudDAwMDQiIGlkPSJlbnRpdHlfTWFuYWdlQmFubmVycyI+PGVsbGlwc2UgY3g9IjIwMi4wMzY3IiBjeT0iNTQuMTA3MyIgZmlsbD0iI0YxRjFGMSIgcng9IjU4LjUzNjciIHJ5PSIxNC4xMDczIiBzdHlsZT0ic3Ryb2tlOiMxODE4MTg7c3Ryb2tlLXdpZHRoOjAuNTsiLz48dGV4dCBmaWxsPSIjMDAwMDAwIiBmb250LWZhbWlseT0iJiMyNjk5OTsmIzIwMzA3OyIgZm9udC1zaXplPSIxNCIgbGVuZ3RoQWRqdXN0PSJzcGFjaW5nIiB0ZXh0TGVuZ3RoPSI3MCIgeD0iMTY3LjAzNjciIHk9IjU3Ljg0OTUiPiYjMzY3MTg7JiMyNTc3MzsmIzIyMjcwOyYjMzE2NDk7JiMyOTcwMjs8L3RleHQ+PC9nPjxnIGNsYXNzPSJlbnRpdHkiIGRhdGEtZW50aXR5PSJNYW5hZ2VDYXRlZ29yaWVzIiBkYXRhLXNvdXJjZS1saW5lPSI3IiBkYXRhLXVpZD0iZW50MDAwNSIgaWQ9ImVudGl0eV9NYW5hZ2VDYXRlZ29yaWVzIj48ZWxsaXBzZSBjeD0iMjAxLjg4NzgiIGN5PSIxMTguMTc3NiIgZmlsbD0iI0YxRjFGMSIgcng9IjYzLjg4NzgiIHJ5PSIxNS4xNzc2IiBzdHlsZT0ic3Ryb2tlOiMxODE4MTg7c3Ryb2tlLXdpZHRoOjAuNTsiLz48dGV4dCBmaWxsPSIjMDAwMDAwIiBmb250LWZhbWlseT0iJiMyNjk5OTsmIzIwMzA3OyIgZm9udC1zaXplPSIxNCIgbGVuZ3RoQWRqdXN0PSJzcGFjaW5nIiB0ZXh0TGVuZ3RoPSI4NCIgeD0iMTU5Ljg4NzgiIHk9IjEyMS45MTk3Ij4mIzI4OTA5OyYjMzgxNDQ7JiMyMjEyMDsmIzI2NDQ4OyYjMzE2NDk7JiMyOTcwMjs8L3RleHQ+PC9nPjxnIGNsYXNzPSJlbnRpdHkiIGRhdGEtZW50aXR5PSJNYW5hZ2VHb29kcyIgZGF0YS1zb3VyY2UtbGluZT0iOCIgZGF0YS11aWQ9ImVudDAwMDYiIGlkPSJlbnRpdHlfTWFuYWdlR29vZHMiPjxlbGxpcHNlIGN4PSIyMDEuODg3OCIgY3k9IjE4My4xNzc2IiBmaWxsPSIjRjFGMUYxIiByeD0iNjMuODg3OCIgcnk9IjE1LjE3NzYiIHN0eWxlPSJzdHJva2U6IzE4MTgxODtzdHJva2Utd2lkdGg6MC41OyIvPjx0ZXh0IGZpbGw9IiMwMDAwMDAiIGZvbnQtZmFtaWx5PSImIzI2OTk5OyYjMjAzMDc7IiBmb250LXNpemU9IjE0IiBsZW5ndGhBZGp1c3Q9InNwYWNpbmciIHRleHRMZW5ndGg9Ijg0IiB4PSIxNTkuODg3OCIgeT0iMTg2LjkxOTciPiYjMjYzNjg7JiMyNjAzMjsmIzE5OTc4OyYjMjY1NTA7JiMzNzE5NzsmIzMyNjIyOzwvdGV4dD48L2c+PGcgY2xhc3M9ImVudGl0eSIgZGF0YS1lbnRpdHk9IkNvbmZpZ3VyZUhvdEdvb2RzIiBkYXRhLXNvdXJjZS1saW5lPSI5IiBkYXRhLXVpZD0iZW50MDAwNyIgaWQ9ImVudGl0eV9Db25maWd1cmVIb3RHb29kcyI+PGVsbGlwc2UgY3g9IjIwMS44ODc4IiBjeT0iMjQ4LjE3NzYiIGZpbGw9IiNGMUYxRjEiIHJ4PSI2My44ODc4IiByeT0iMTUuMTc3NiIgc3R5bGU9InN0cm9rZTojMTgxODE4O3N0cm9rZS13aWR0aDowLjU7Ii8+PHRleHQgZmlsbD0iIzAwMDAwMCIgZm9udC1mYW1pbHk9IiYjMjY5OTk7JiMyMDMwNzsiIGZvbnQtc2l6ZT0iMTQiIGxlbmd0aEFkanVzdD0ic3BhY2luZyIgdGV4dExlbmd0aD0iODQiIHg9IjE1OS44ODc4IiB5PSIyNTEuOTE5NyI+JiMyMDAyNjsmIzIwMzIwOyYjMjU1MTI7JiMzMzYxNjsmIzM3MTk3OyYjMzI2MjI7PC90ZXh0PjwvZz48ZyBjbGFzcz0iZW50aXR5IiBkYXRhLWVudGl0eT0iQ29uZmlndXJlTmV3R29vZHMiIGRhdGEtc291cmNlLWxpbmU9IjEwIiBkYXRhLXVpZD0iZW50MDAwOCIgaWQ9ImVudGl0eV9Db25maWd1cmVOZXdHb29kcyI+PGVsbGlwc2UgY3g9IjIwMi4wNjIyIiBjeT0iMzE5LjIxMjQiIGZpbGw9IiNGMUYxRjEiIHJ4PSI5NC4wNjIyIiByeT0iMjEuMjEyNCIgc3R5bGU9InN0cm9rZTojMTgxODE4O3N0cm9rZS13aWR0aDowLjU7Ii8+PHRleHQgZmlsbD0iIzAwMDAwMCIgZm9udC1mYW1pbHk9IiYjMjY5OTk7JiMyMDMwNzsiIGZvbnQtc2l6ZT0iMTQiIGxlbmd0aEFkanVzdD0ic3BhY2luZyIgdGV4dExlbmd0aD0iMTU0IiB4PSIxMjUuMDYyMiIgeT0iMzIyLjk1NDYiPiYjMjIxMjA7JiMyNjQ0ODsmIzIwOTk4OyYjMzE4Njc7JiMxOTk4MjsmIzIyMTIwOyYjMjY0NDg7JiMyMDQ0OTsmIzI0Njg3OyYjMzE2NDk7JiMyOTcwMjs8L3RleHQ+PC9nPjxnIGNsYXNzPSJlbnRpdHkiIGRhdGEtZW50aXR5PSJNYW5hZ2VSZWNvbW1lbmRhdGlvbnMiIGRhdGEtc291cmNlLWxpbmU9IjExIiBkYXRhLXVpZD0iZW50MDAwOSIgaWQ9ImVudGl0eV9NYW5hZ2VSZWNvbW1lbmRhdGlvbnMiPjxlbGxpcHNlIGN4PSIyMDEuODg3OCIgY3k9IjM5MC4xNzc2IiBmaWxsPSIjRjFGMUYxIiByeD0iNjMuODg3OCIgcnk9IjE1LjE3NzYiIHN0eWxlPSJzdHJva2U6IzE4MTgxODtzdHJva2Utd2lkdGg6MC41OyIvPjx0ZXh0IGZpbGw9IiMwMDAwMDAiIGZvbnQtZmFtaWx5PSImIzI2OTk5OyYjMjAzMDc7IiBmb250LXNpemU9IjE0IiBsZW5ndGhBZGp1c3Q9InNwYWNpbmciIHRleHRMZW5ndGg9Ijg0IiB4PSIxNTkuODg3OCIgeT0iMzkzLjkxOTciPiYjMjIxMjA7JiMyNjQ0ODsmIzM1NzQ2OyYjMjEzMzM7JiMzMTY0OTsmIzI5NzAyOzwvdGV4dD48L2c+PGcgY2xhc3M9ImVudGl0eSIgZGF0YS1lbnRpdHk9Ik1hbmFnZVVzZXJzIiBkYXRhLXNvdXJjZS1saW5lPSIxMiIgZGF0YS11aWQ9ImVudDAwMTAiIGlkPSJlbnRpdHlfTWFuYWdlVXNlcnMiPjxlbGxpcHNlIGN4PSIyMDIuMDgzMyIgY3k9IjQ1NC4wOTU2IiBmaWxsPSIjRjFGMUYxIiByeD0iNTEuMDgzMyIgcnk9IjEzLjU5NTYiIHN0eWxlPSJzdHJva2U6IzE4MTgxODtzdHJva2Utd2lkdGg6MC41OyIvPjx0ZXh0IGZpbGw9IiMwMDAwMDAiIGZvbnQtZmFtaWx5PSImIzI2OTk5OyYjMjAzMDc7IiBmb250LXNpemU9IjE0IiBsZW5ndGhBZGp1c3Q9InNwYWNpbmciIHRleHRMZW5ndGg9IjU2IiB4PSIxNzQuMDgzMyIgeT0iNDU3LjgzNzciPiYjMjk5OTI7JiMyNTE0MzsmIzMxNjQ5OyYjMjk3MDI7PC90ZXh0PjwvZz48ZyBjbGFzcz0iZW50aXR5IiBkYXRhLWVudGl0eT0iQ2hhbmdlUGFzc3dvcmQiIGRhdGEtc291cmNlLWxpbmU9IjEzIiBkYXRhLXVpZD0iZW50MDAxMSIgaWQ9ImVudGl0eV9DaGFuZ2VQYXNzd29yZCI+PGVsbGlwc2UgY3g9IjIwMi4wODMzIiBjeT0iNTE2LjA5NTYiIGZpbGw9IiNGMUYxRjEiIHJ4PSI1MS4wODMzIiByeT0iMTMuNTk1NiIgc3R5bGU9InN0cm9rZTojMTgxODE4O3N0cm9rZS13aWR0aDowLjU7Ii8+PHRleHQgZmlsbD0iIzAwMDAwMCIgZm9udC1mYW1pbHk9IiYjMjY5OTk7JiMyMDMwNzsiIGZvbnQtc2l6ZT0iMTQiIGxlbmd0aEFkanVzdD0ic3BhY2luZyIgdGV4dExlbmd0aD0iNTYiIHg9IjE3NC4wODMzIiB5PSI1MTkuODM3NyI+JiMzMTk5NTsmIzMyNDc5OyYjMzE2NDk7JiMyOTcwMjs8L3RleHQ+PC9nPjwhLS1lbnRpdHkgQWRtaW4tLT48ZyBjbGFzcz0iZW50aXR5IiBkYXRhLWVudGl0eT0iQWRtaW4iIGRhdGEtc291cmNlLWxpbmU9IjQiIGRhdGEtdWlkPSJlbnQwMDAyIiBpZD0iZW50aXR5X0FkbWluIj48ZWxsaXBzZSBjeD0iMjciIGN5PSIyNTUiIGZpbGw9IiNGMUYxRjEiIHJ4PSI4IiByeT0iOCIgc3R5bGU9InN0cm9rZTojMTgxODE4O3N0cm9rZS13aWR0aDowLjU7Ii8+PHBhdGggZD0iTTI3LDI2MyBMMjcsMjkwIE0xNCwyNzEgTDQwLDI3MSBNMjcsMjkwIEwxNCwzMDUgTTI3LDI5MCBMNDAsMzA1IiBmaWxsPSJub25lIiBzdHlsZT0ic3Ryb2tlOiMxODE4MTg7c3Ryb2tlLXdpZHRoOjAuNTsiLz48dGV4dCBmaWxsPSIjMDAwMDAwIiBmb250LWZhbWlseT0iJiMyNjk5OTsmIzIwMzA3OyIgZm9udC1zaXplPSIxNCIgbGVuZ3RoQWRqdXN0PSJzcGFjaW5nIiB0ZXh0TGVuZ3RoPSI0MiIgeD0iNiIgeT0iMzE5LjczNDQiPiYjMzE2NDk7JiMyOTcwMjsmIzIxNTkyOzwvdGV4dD48L2c+PCEtLWxpbmsgQWRtaW4gdG8gTWFuYWdlQmFubmVycy0tPjxnIGNsYXNzPSJsaW5rIiBkYXRhLWVudGl0eS0xPSJBZG1pbiIgZGF0YS1lbnRpdHktMj0iTWFuYWdlQmFubmVycyIgZGF0YS1zb3VyY2UtbGluZT0iMTYiIGRhdGEtdWlkPSJsbmsxMiIgaWQ9ImxpbmtfQWRtaW5fTWFuYWdlQmFubmVycyI+PHBhdGggZD0iTTI4LDI0Ni4yMSBDMzAuMSwyMDEuNTIgNDAuNTMsMTI3LjgxIDg0LDg1IEMxMDAuMDksNjkuMTUgMTE3LjM5ODcsNjIuMjIzNyAxMzguOTA4Nyw1OC4yNzM3IiBmaWxsPSJub25lIiBpZD0iQWRtaW4tdG8tTWFuYWdlQmFubmVycyIgc3R5bGU9InN0cm9rZTojMTgxODE4O3N0cm9rZS13aWR0aDoxOyIvPjxwb2x5Z29uIGZpbGw9IiMxODE4MTgiIHBvaW50cz0iMTQ0LjgxLDU3LjE5LDEzNS4yMzU2LDU0Ljg4MTMsMTM5Ljg5MjIsNTguMDkzMSwxMzYuNjgwNSw2Mi43NDk4LDE0NC44MSw1Ny4xOSIgc3R5bGU9InN0cm9rZTojMTgxODE4O3N0cm9rZS13aWR0aDoxOyIvPjwvZz48IS0tbGluayBBZG1pbiB0byBNYW5hZ2VDYXRlZ29yaWVzLS0+PGcgY2xhc3M9ImxpbmsiIGRhdGEtZW50aXR5LTE9IkFkbWluIiBkYXRhLWVudGl0eS0yPSJNYW5hZ2VDYXRlZ29yaWVzIiBkYXRhLXNvdXJjZS1saW5lPSIxNyIgZGF0YS11aWQ9ImxuazEzIiBpZD0ibGlua19BZG1pbl9NYW5hZ2VDYXRlZ29yaWVzIj48cGF0aCBkPSJNMzQuMzgsMjQ2LjM0IEM0MS40NCwyMTYuMTIgNTUuNzgsMTc0LjggODQsMTUwIEMxMDAuMDYsMTM1Ljg5IDExNS45MDg4LDEyOS4yMjMzIDEzNi4yNzg4LDEyNC43NjMzIiBmaWxsPSJub25lIiBpZD0iQWRtaW4tdG8tTWFuYWdlQ2F0ZWdvcmllcyIgc3R5bGU9InN0cm9rZTojMTgxODE4O3N0cm9rZS13aWR0aDoxOyIvPjxwb2x5Z29uIGZpbGw9IiMxODE4MTgiIHBvaW50cz0iMTQyLjE0LDEyMy40OCwxMzIuNDkyNywxMjEuNDk3NSwxMzcuMjU1NywxMjQuNTQ5NCwxMzQuMjAzOCwxMjkuMzEyNCwxNDIuMTQsMTIzLjQ4IiBzdHlsZT0ic3Ryb2tlOiMxODE4MTg7c3Ryb2tlLXdpZHRoOjE7Ii8+PC9nPjwhLS1saW5rIEFkbWluIHRvIE1hbmFnZUdvb2RzLS0+PGcgY2xhc3M9ImxpbmsiIGRhdGEtZW50aXR5LTE9IkFkbWluIiBkYXRhLWVudGl0eS0yPSJNYW5hZ2VHb29kcyIgZGF0YS1zb3VyY2UtbGluZT0iMTgiIGRhdGEtdWlkPSJsbmsxNCIgaWQ9ImxpbmtfQWRtaW5fTWFuYWdlR29vZHMiPjxwYXRoIGQ9Ik00OC4yNiwyNTAuOTYgQzU3LjY3LDIzOC4wNiA2OS45MiwyMjQuMTkgODQsMjE1IEMxMDIuNjEsMjAyLjg2IDExOS44OTc4LDE5Ni42MTM2IDE0MC42Nzc4LDE5MS45MTM2IiBmaWxsPSJub25lIiBpZD0iQWRtaW4tdG8tTWFuYWdlR29vZHMiIHN0eWxlPSJzdHJva2U6IzE4MTgxODtzdHJva2Utd2lkdGg6MTsiLz48cG9seWdvbiBmaWxsPSIjMTgxODE4IiBwb2ludHM9IjE0Ni41MywxOTAuNTksMTM2Ljg2OTMsMTg4LjY3NCwxNDEuNjUzMiwxOTEuNjkzLDEzOC42MzQyLDE5Ni40NzY5LDE0Ni41MywxOTAuNTkiIHN0eWxlPSJzdHJva2U6IzE4MTgxODtzdHJva2Utd2lkdGg6MTsiLz48L2c+PCEtLWxpbmsgQWRtaW4gdG8gQ29uZmlndXJlSG90R29vZHMtLT48ZyBjbGFzcz0ibGluayIgZGF0YS1lbnRpdHktMT0iQWRtaW4iIGRhdGEtZW50aXR5LTI9IkNvbmZpZ3VyZUhvdEdvb2RzIiBkYXRhLXNvdXJjZS1saW5lPSIxOSIgZGF0YS11aWQ9ImxuazE1IiBpZD0ibGlua19BZG1pbl9Db25maWd1cmVIb3RHb29kcyI+PHBhdGggZD0iTTQ4LjE4LDI3OS44IEM3My44NSwyNzQuNDYgMTEzLjEyNTYsMjY2LjI4MTQgMTQ3LjcwNTYsMjU5LjA5MTQiIGZpbGw9Im5vbmUiIGlkPSJBZG1pbi10by1Db25maWd1cmVIb3RHb29kcyIgc3R5bGU9InN0cm9rZTojMTgxODE4O3N0cm9rZS13aWR0aDoxOyIvPjxwb2x5Z29uIGZpbGw9IiMxODE4MTgiIHBvaW50cz0iMTUzLjU4LDI1Ny44NywxNDMuOTU0MiwyNTUuNzg1OSwxNDguNjg0NywyNTguODg3OCwxNDUuNTgyNywyNjMuNjE4NCwxNTMuNTgsMjU3Ljg3IiBzdHlsZT0ic3Ryb2tlOiMxODE4MTg7c3Ryb2tlLXdpZHRoOjE7Ii8+PC9nPjwhLS1saW5rIEFkbWluIHRvIENvbmZpZ3VyZU5ld0dvb2RzLS0+PGcgY2xhc3M9ImxpbmsiIGRhdGEtZW50aXR5LTE9IkFkbWluIiBkYXRhLWVudGl0eS0yPSJDb25maWd1cmVOZXdHb29kcyIgZGF0YS1zb3VyY2UtbGluZT0iMjAiIGRhdGEtdWlkPSJsbmsxNiIgaWQ9ImxpbmtfQWRtaW5fQ29uZmlndXJlTmV3R29vZHMiPjxwYXRoIGQ9Ik00OC4xOCwyODguMDggQzY4LjY4LDI5Mi4yMyA5NS43MTkyLDI5Ny43MDAxIDEyNS43NjkyLDMwMy43ODAxIiBmaWxsPSJub25lIiBpZD0iQWRtaW4tdG8tQ29uZmlndXJlTmV3R29vZHMiIHN0eWxlPSJzdHJva2U6IzE4MTgxODtzdHJva2Utd2lkdGg6MTsiLz48cG9seWdvbiBmaWxsPSIjMTgxODE4IiBwb2ludHM9IjEzMS42NSwzMDQuOTcsMTIzLjYyMiwyOTkuMjY0NiwxMjYuNzQ5MywzMDMuOTc4NCwxMjIuMDM1NSwzMDcuMTA1OCwxMzEuNjUsMzA0Ljk3IiBzdHlsZT0ic3Ryb2tlOiMxODE4MTg7c3Ryb2tlLXdpZHRoOjE7Ii8+PC9nPjwhLS1saW5rIEFkbWluIHRvIE1hbmFnZVJlY29tbWVuZGF0aW9ucy0tPjxnIGNsYXNzPSJsaW5rIiBkYXRhLWVudGl0eS0xPSJBZG1pbiIgZGF0YS1lbnRpdHktMj0iTWFuYWdlUmVjb21tZW5kYXRpb25zIiBkYXRhLXNvdXJjZS1saW5lPSIyMSIgZGF0YS11aWQ9ImxuazE3IiBpZD0ibGlua19BZG1pbl9NYW5hZ2VSZWNvbW1lbmRhdGlvbnMiPjxwYXRoIGQ9Ik00OC4xOSwzMTkuMjggQzU3LjUyLDMzMi44MiA2OS43MiwzNDcuMzIgODQsMzU3IEMxMDIuNjEsMzY5LjYxIDEyMC4xMzM4LDM3Ni4wOSAxNDEuMDkzOCwzODAuOTMiIGZpbGw9Im5vbmUiIGlkPSJBZG1pbi10by1NYW5hZ2VSZWNvbW1lbmRhdGlvbnMiIHN0eWxlPSJzdHJva2U6IzE4MTgxODtzdHJva2Utd2lkdGg6MTsiLz48cG9seWdvbiBmaWxsPSIjMTgxODE4IiBwb2ludHM9IjE0Ni45NCwzODIuMjgsMTM5LjA3MDcsMzc2LjM1NzYsMTQyLjA2ODIsMzgxLjE1NSwxMzcuMjcwOCwzODQuMTUyNSwxNDYuOTQsMzgyLjI4IiBzdHlsZT0ic3Ryb2tlOiMxODE4MTg7c3Ryb2tlLXdpZHRoOjE7Ii8+PC9nPjwhLS1saW5rIEFkbWluIHRvIE1hbmFnZVVzZXJzLS0+PGcgY2xhc3M9ImxpbmsiIGRhdGEtZW50aXR5LTE9IkFkbWluIiBkYXRhLWVudGl0eS0yPSJNYW5hZ2VVc2VycyIgZGF0YS1zb3VyY2UtbGluZT0iMjIiIGRhdGEtdWlkPSJsbmsxOCIgaWQ9ImxpbmtfQWRtaW5fTWFuYWdlVXNlcnMiPjxwYXRoIGQ9Ik0zMy44LDMyMS41MiBDNDAuNTcsMzUyLjcyIDU0LjgxLDM5Ni4wOCA4NCw0MjIgQzEwMi43NCw0MzguNjQgMTIzLjQyMzMsNDQ1LjcyMzYgMTQ2LjUyMzMsNDQ5LjYxMzYiIGZpbGw9Im5vbmUiIGlkPSJBZG1pbi10by1NYW5hZ2VVc2VycyIgc3R5bGU9InN0cm9rZTojMTgxODE4O3N0cm9rZS13aWR0aDoxOyIvPjxwb2x5Z29uIGZpbGw9IiMxODE4MTgiIHBvaW50cz0iMTUyLjQ0LDQ1MC42MSwxNDQuMjI5Miw0NDUuMTcxLDE0Ny41MDk0LDQ0OS43Nzk3LDE0Mi45MDA3LDQ1My4wNTk5LDE1Mi40NCw0NTAuNjEiIHN0eWxlPSJzdHJva2U6IzE4MTgxODtzdHJva2Utd2lkdGg6MTsiLz48L2c+PCEtLWxpbmsgQWRtaW4gdG8gQ2hhbmdlUGFzc3dvcmQtLT48ZyBjbGFzcz0ibGluayIgZGF0YS1lbnRpdHktMT0iQWRtaW4iIGRhdGEtZW50aXR5LTI9IkNoYW5nZVBhc3N3b3JkIiBkYXRhLXNvdXJjZS1saW5lPSIyMyIgZGF0YS11aWQ9ImxuazE5IiBpZD0ibGlua19BZG1pbl9DaGFuZ2VQYXNzd29yZCI+PHBhdGggZD0iTTI3Ljg2LDMyMS43NiBDMjkuOCwzNjYuODUgNDAuMDUsNDQxLjYxIDg0LDQ4NSBDMTAxLjcyLDUwMi41IDEyMi4xNjYyLDUwOS41NTExIDE0NS4zOTYyLDUxMy4wMzExIiBmaWxsPSJub25lIiBpZD0iQWRtaW4tdG8tQ2hhbmdlUGFzc3dvcmQiIHN0eWxlPSJzdHJva2U6IzE4MTgxODtzdHJva2Utd2lkdGg6MTsiLz48cG9seWdvbiBmaWxsPSIjMTgxODE4IiBwb2ludHM9IjE1MS4zMyw1MTMuOTIsMTQzLjAyMTksNTA4LjYzMDgsMTQ2LjM4NTIsNTEzLjE3OTIsMTQxLjgzNjcsNTE2LjU0MjUsMTUxLjMzLDUxMy45MiIgc3R5bGU9InN0cm9rZTojMTgxODE4O3N0cm9rZS13aWR0aDoxOyIvPjwvZz48IS0tU1JDPVtSUDdWSVc5MTVDUmx2b2M2bFFlQk5vNGVlUmY5OGtXMTFkVFNYem9QYzF0bjhXOFo0V2NxaElvQV9jYUdVRURjMTJkOXJpbGlwRWZSZjh4ZmpqbFNwVmItUHl4dmxkN3MyRHI3N0RkR24zYktCOFhySGFLNnNIWWdicnhXTnU4MnBXYWU2RUo0b1dqZTRld3BXWjBBMENlQW5nNEhVZ3RHaFNacDZtQ1kxd3dRRGc1V21ZMWc1SjBxZjVrTlBycURYVS0zU0YxYW0wQzBuc1RmdzdsZ2VZRmxsaEl3RkVkVkdYSFBVMHJIWWhjWmlWMnVDc2dLdk1yUkZSVzlDZXE0alhXZFUwUWgteEF3eFdSektfTnVDSmdmWFJ1TldKU09Dc1RTcUZ5Q19BUWdqdVNyRHlBYjZTcUhneVpuOVhDSE1XLU5yS2h1RFdad1ROcURsYmxndzNNb3FSbXZXcWs5dmc3dEI2ak5ZVnJ0UzlSUERnT2NjZUp3d3haSExqTFVXanJyNWZiQ2F1cEVwZV9wbmpsOFNLZ0NjLTBHV0ViRm01SGc5UFBmbDF2OUMydmY0dWpnQ2ZyX2pCZHYtNmpuZ3Q1VHN1a3ktQ1ZJM20wMF0tLT48L2c+PC9zdmc+;fontSize=14;fontFamily=KaiTi;" parent="1" vertex="1">
            <mxGeometry x="-637" y="5669" width="318" height="552" as="geometry" />
          </mxCell>
        </UserObject>
        <mxCell id="kj8fbqeVFcNUevWfHqB0-378" style="edgeStyle=orthogonalEdgeStyle;rounded=0;orthogonalLoop=1;jettySize=auto;html=1;exitX=0.5;exitY=1;exitDx=0;exitDy=0;entryX=0.5;entryY=0;entryDx=0;entryDy=0;endArrow=none;fontSize=24;fontFamily=KaiTi;strokeWidth=2;" parent="1" source="kj8fbqeVFcNUevWfHqB0-384" target="kj8fbqeVFcNUevWfHqB0-400" edge="1">
          <mxGeometry relative="1" as="geometry" />
        </mxCell>
        <mxCell id="kj8fbqeVFcNUevWfHqB0-379" style="edgeStyle=orthogonalEdgeStyle;rounded=0;orthogonalLoop=1;jettySize=auto;html=1;exitX=0.5;exitY=1;exitDx=0;exitDy=0;entryX=0.5;entryY=0;entryDx=0;entryDy=0;endArrow=none;fontSize=24;fontFamily=KaiTi;strokeWidth=2;" parent="1" source="kj8fbqeVFcNUevWfHqB0-384" target="kj8fbqeVFcNUevWfHqB0-405" edge="1">
          <mxGeometry relative="1" as="geometry" />
        </mxCell>
        <mxCell id="kj8fbqeVFcNUevWfHqB0-380" style="edgeStyle=orthogonalEdgeStyle;rounded=0;orthogonalLoop=1;jettySize=auto;html=1;exitX=0.5;exitY=1;exitDx=0;exitDy=0;entryX=0.5;entryY=0;entryDx=0;entryDy=0;endArrow=none;fontSize=24;fontFamily=KaiTi;strokeWidth=2;" parent="1" source="kj8fbqeVFcNUevWfHqB0-384" target="kj8fbqeVFcNUevWfHqB0-410" edge="1">
          <mxGeometry relative="1" as="geometry" />
        </mxCell>
        <mxCell id="kj8fbqeVFcNUevWfHqB0-381" style="edgeStyle=orthogonalEdgeStyle;rounded=0;orthogonalLoop=1;jettySize=auto;html=1;exitX=0.5;exitY=1;exitDx=0;exitDy=0;entryX=0.5;entryY=0;entryDx=0;entryDy=0;endArrow=none;fontSize=24;fontFamily=KaiTi;strokeWidth=2;" parent="1" source="kj8fbqeVFcNUevWfHqB0-384" target="kj8fbqeVFcNUevWfHqB0-413" edge="1">
          <mxGeometry relative="1" as="geometry" />
        </mxCell>
        <mxCell id="kj8fbqeVFcNUevWfHqB0-382" style="edgeStyle=orthogonalEdgeStyle;rounded=0;orthogonalLoop=1;jettySize=auto;html=1;exitX=0.5;exitY=1;exitDx=0;exitDy=0;entryX=0.5;entryY=0;entryDx=0;entryDy=0;endArrow=none;fontSize=24;fontFamily=KaiTi;strokeWidth=2;" parent="1" source="kj8fbqeVFcNUevWfHqB0-384" target="kj8fbqeVFcNUevWfHqB0-417" edge="1">
          <mxGeometry relative="1" as="geometry" />
        </mxCell>
        <mxCell id="kj8fbqeVFcNUevWfHqB0-383" style="edgeStyle=orthogonalEdgeStyle;rounded=0;orthogonalLoop=1;jettySize=auto;html=1;exitX=0.5;exitY=1;exitDx=0;exitDy=0;entryX=0.5;entryY=0;entryDx=0;entryDy=0;endArrow=none;fontSize=24;fontFamily=KaiTi;strokeWidth=2;" parent="1" source="kj8fbqeVFcNUevWfHqB0-384" target="kj8fbqeVFcNUevWfHqB0-420" edge="1">
          <mxGeometry relative="1" as="geometry" />
        </mxCell>
        <mxCell id="kj8fbqeVFcNUevWfHqB0-384" value="管理员模块" style="whiteSpace=wrap;strokeWidth=2;fontSize=24;fontFamily=KaiTi;" parent="1" vertex="1">
          <mxGeometry x="2928" y="7474" width="140" height="54" as="geometry" />
        </mxCell>
        <mxCell id="kj8fbqeVFcNUevWfHqB0-385" style="edgeStyle=orthogonalEdgeStyle;rounded=0;orthogonalLoop=1;jettySize=auto;html=1;exitX=0.5;exitY=1;exitDx=0;exitDy=0;entryX=0.5;entryY=0;entryDx=0;entryDy=0;endArrow=none;fontSize=14;fontFamily=KaiTi;" parent="1" source="kj8fbqeVFcNUevWfHqB0-388" target="kj8fbqeVFcNUevWfHqB0-421" edge="1">
          <mxGeometry relative="1" as="geometry" />
        </mxCell>
        <mxCell id="kj8fbqeVFcNUevWfHqB0-386" style="edgeStyle=orthogonalEdgeStyle;rounded=0;orthogonalLoop=1;jettySize=auto;html=1;exitX=0.5;exitY=1;exitDx=0;exitDy=0;entryX=0.5;entryY=0;entryDx=0;entryDy=0;endArrow=none;fontSize=14;fontFamily=KaiTi;" parent="1" source="kj8fbqeVFcNUevWfHqB0-388" target="kj8fbqeVFcNUevWfHqB0-422" edge="1">
          <mxGeometry relative="1" as="geometry" />
        </mxCell>
        <mxCell id="kj8fbqeVFcNUevWfHqB0-387" style="edgeStyle=orthogonalEdgeStyle;rounded=0;orthogonalLoop=1;jettySize=auto;html=1;exitX=0.5;exitY=1;exitDx=0;exitDy=0;endArrow=none;fontSize=14;fontFamily=KaiTi;" parent="1" source="kj8fbqeVFcNUevWfHqB0-388" target="kj8fbqeVFcNUevWfHqB0-423" edge="1">
          <mxGeometry relative="1" as="geometry" />
        </mxCell>
        <mxCell id="kj8fbqeVFcNUevWfHqB0-388" value="首页轮播图管理" style="strokeWidth=2;horizontal=1;flipV=0;whiteSpace=wrap;fontSize=14;fontFamily=KaiTi;" parent="1" vertex="1">
          <mxGeometry x="816" y="7586" width="50" height="120" as="geometry" />
        </mxCell>
        <mxCell id="kj8fbqeVFcNUevWfHqB0-389" style="edgeStyle=orthogonalEdgeStyle;rounded=0;orthogonalLoop=1;jettySize=auto;html=1;exitX=0.5;exitY=1;exitDx=0;exitDy=0;entryX=0.5;entryY=0;entryDx=0;entryDy=0;endArrow=none;fontSize=14;fontFamily=KaiTi;" parent="1" source="kj8fbqeVFcNUevWfHqB0-392" target="kj8fbqeVFcNUevWfHqB0-424" edge="1">
          <mxGeometry relative="1" as="geometry" />
        </mxCell>
        <mxCell id="kj8fbqeVFcNUevWfHqB0-390" style="edgeStyle=orthogonalEdgeStyle;rounded=0;orthogonalLoop=1;jettySize=auto;html=1;exitX=0.5;exitY=1;exitDx=0;exitDy=0;entryX=0.5;entryY=0;entryDx=0;entryDy=0;endArrow=none;fontSize=14;fontFamily=KaiTi;" parent="1" source="kj8fbqeVFcNUevWfHqB0-392" target="kj8fbqeVFcNUevWfHqB0-425" edge="1">
          <mxGeometry relative="1" as="geometry" />
        </mxCell>
        <mxCell id="kj8fbqeVFcNUevWfHqB0-391" style="edgeStyle=orthogonalEdgeStyle;rounded=0;orthogonalLoop=1;jettySize=auto;html=1;exitX=0.5;exitY=1;exitDx=0;exitDy=0;entryX=0.5;entryY=0;entryDx=0;entryDy=0;endArrow=none;fontSize=14;fontFamily=KaiTi;" parent="1" source="kj8fbqeVFcNUevWfHqB0-392" target="kj8fbqeVFcNUevWfHqB0-426" edge="1">
          <mxGeometry relative="1" as="geometry" />
        </mxCell>
        <mxCell id="kj8fbqeVFcNUevWfHqB0-392" value="热销二手器材管理" style="whiteSpace=wrap;strokeWidth=2;fontSize=14;fontFamily=KaiTi;" parent="1" vertex="1">
          <mxGeometry x="989" y="7586" width="50" height="120" as="geometry" />
        </mxCell>
        <mxCell id="kj8fbqeVFcNUevWfHqB0-393" style="edgeStyle=orthogonalEdgeStyle;rounded=0;orthogonalLoop=1;jettySize=auto;html=1;exitX=0.5;exitY=1;exitDx=0;exitDy=0;entryX=0.5;entryY=0;entryDx=0;entryDy=0;endArrow=none;fontSize=14;fontFamily=KaiTi;" parent="1" source="kj8fbqeVFcNUevWfHqB0-396" target="kj8fbqeVFcNUevWfHqB0-428" edge="1">
          <mxGeometry relative="1" as="geometry" />
        </mxCell>
        <mxCell id="kj8fbqeVFcNUevWfHqB0-394" style="edgeStyle=orthogonalEdgeStyle;rounded=0;orthogonalLoop=1;jettySize=auto;html=1;exitX=0.5;exitY=1;exitDx=0;exitDy=0;entryX=0.5;entryY=0;entryDx=0;entryDy=0;endArrow=none;fontSize=14;fontFamily=KaiTi;" parent="1" source="kj8fbqeVFcNUevWfHqB0-396" target="kj8fbqeVFcNUevWfHqB0-429" edge="1">
          <mxGeometry relative="1" as="geometry" />
        </mxCell>
        <mxCell id="kj8fbqeVFcNUevWfHqB0-395" style="edgeStyle=orthogonalEdgeStyle;rounded=0;orthogonalLoop=1;jettySize=auto;html=1;exitX=0.5;exitY=1;exitDx=0;exitDy=0;entryX=0.5;entryY=0;entryDx=0;entryDy=0;endArrow=none;fontSize=14;fontFamily=KaiTi;" parent="1" source="kj8fbqeVFcNUevWfHqB0-396" target="kj8fbqeVFcNUevWfHqB0-427" edge="1">
          <mxGeometry relative="1" as="geometry" />
        </mxCell>
        <mxCell id="kj8fbqeVFcNUevWfHqB0-396" value="最新上线二手器材管理" style="whiteSpace=wrap;strokeWidth=2;fontSize=14;fontFamily=KaiTi;" parent="1" vertex="1">
          <mxGeometry x="1165" y="7586" width="50" height="120" as="geometry" />
        </mxCell>
        <mxCell id="kj8fbqeVFcNUevWfHqB0-397" style="edgeStyle=orthogonalEdgeStyle;rounded=0;orthogonalLoop=1;jettySize=auto;html=1;exitX=0.5;exitY=1;exitDx=0;exitDy=0;entryX=0.5;entryY=0;entryDx=0;entryDy=0;endArrow=none;fontSize=24;fontFamily=KaiTi;strokeWidth=2;" parent="1" source="kj8fbqeVFcNUevWfHqB0-400" target="kj8fbqeVFcNUevWfHqB0-430" edge="1">
          <mxGeometry relative="1" as="geometry" />
        </mxCell>
        <mxCell id="kj8fbqeVFcNUevWfHqB0-398" style="edgeStyle=orthogonalEdgeStyle;rounded=0;orthogonalLoop=1;jettySize=auto;html=1;exitX=0.5;exitY=1;exitDx=0;exitDy=0;entryX=0.5;entryY=0;entryDx=0;entryDy=0;endArrow=none;fontSize=24;fontFamily=KaiTi;strokeWidth=2;" parent="1" source="kj8fbqeVFcNUevWfHqB0-400" target="kj8fbqeVFcNUevWfHqB0-431" edge="1">
          <mxGeometry relative="1" as="geometry" />
        </mxCell>
        <mxCell id="kj8fbqeVFcNUevWfHqB0-399" style="edgeStyle=orthogonalEdgeStyle;rounded=0;orthogonalLoop=1;jettySize=auto;html=1;exitX=0.5;exitY=1;exitDx=0;exitDy=0;entryX=0.5;entryY=0;entryDx=0;entryDy=0;endArrow=none;fontSize=24;fontFamily=KaiTi;strokeWidth=2;" parent="1" source="kj8fbqeVFcNUevWfHqB0-400" target="kj8fbqeVFcNUevWfHqB0-432" edge="1">
          <mxGeometry relative="1" as="geometry" />
        </mxCell>
        <mxCell id="kj8fbqeVFcNUevWfHqB0-400" value="系统推荐管理" style="whiteSpace=wrap;strokeWidth=2;fontSize=24;fontFamily=KaiTi;" parent="1" vertex="1">
          <mxGeometry x="2612.5" y="7604" width="50" height="120" as="geometry" />
        </mxCell>
        <mxCell id="kj8fbqeVFcNUevWfHqB0-401" style="edgeStyle=orthogonalEdgeStyle;rounded=0;orthogonalLoop=1;jettySize=auto;html=1;exitX=0.5;exitY=1;exitDx=0;exitDy=0;entryX=0.5;entryY=0;entryDx=0;entryDy=0;endArrow=none;fontSize=24;fontFamily=KaiTi;strokeWidth=2;" parent="1" source="kj8fbqeVFcNUevWfHqB0-405" target="kj8fbqeVFcNUevWfHqB0-433" edge="1">
          <mxGeometry relative="1" as="geometry" />
        </mxCell>
        <mxCell id="kj8fbqeVFcNUevWfHqB0-402" style="edgeStyle=orthogonalEdgeStyle;rounded=0;orthogonalLoop=1;jettySize=auto;html=1;exitX=0.5;exitY=1;exitDx=0;exitDy=0;entryX=0.5;entryY=0;entryDx=0;entryDy=0;endArrow=none;fontSize=24;fontFamily=KaiTi;strokeWidth=2;" parent="1" source="kj8fbqeVFcNUevWfHqB0-405" target="kj8fbqeVFcNUevWfHqB0-434" edge="1">
          <mxGeometry relative="1" as="geometry" />
        </mxCell>
        <mxCell id="kj8fbqeVFcNUevWfHqB0-403" style="edgeStyle=orthogonalEdgeStyle;rounded=0;orthogonalLoop=1;jettySize=auto;html=1;exitX=0.5;exitY=1;exitDx=0;exitDy=0;entryX=0.5;entryY=0;entryDx=0;entryDy=0;endArrow=none;fontSize=24;fontFamily=KaiTi;strokeWidth=2;" parent="1" source="kj8fbqeVFcNUevWfHqB0-405" target="kj8fbqeVFcNUevWfHqB0-435" edge="1">
          <mxGeometry relative="1" as="geometry" />
        </mxCell>
        <mxCell id="kj8fbqeVFcNUevWfHqB0-404" style="edgeStyle=orthogonalEdgeStyle;rounded=0;orthogonalLoop=1;jettySize=auto;html=1;exitX=0.5;exitY=1;exitDx=0;exitDy=0;entryX=0.5;entryY=0;entryDx=0;entryDy=0;endArrow=none;fontSize=24;fontFamily=KaiTi;strokeWidth=2;" parent="1" source="kj8fbqeVFcNUevWfHqB0-405" target="kj8fbqeVFcNUevWfHqB0-436" edge="1">
          <mxGeometry relative="1" as="geometry" />
        </mxCell>
        <mxCell id="kj8fbqeVFcNUevWfHqB0-405" value="分类管理" style="whiteSpace=wrap;strokeWidth=2;fontSize=24;fontFamily=KaiTi;" parent="1" vertex="1">
          <mxGeometry x="2772" y="7604" width="50" height="120" as="geometry" />
        </mxCell>
        <mxCell id="kj8fbqeVFcNUevWfHqB0-406" style="edgeStyle=orthogonalEdgeStyle;rounded=0;orthogonalLoop=1;jettySize=auto;html=1;exitX=0.5;exitY=1;exitDx=0;exitDy=0;entryX=0.5;entryY=0;entryDx=0;entryDy=0;endArrow=none;fontSize=24;fontFamily=KaiTi;strokeWidth=2;" parent="1" source="kj8fbqeVFcNUevWfHqB0-410" target="kj8fbqeVFcNUevWfHqB0-437" edge="1">
          <mxGeometry relative="1" as="geometry" />
        </mxCell>
        <mxCell id="kj8fbqeVFcNUevWfHqB0-407" style="edgeStyle=orthogonalEdgeStyle;rounded=0;orthogonalLoop=1;jettySize=auto;html=1;exitX=0.5;exitY=1;exitDx=0;exitDy=0;entryX=0.5;entryY=0;entryDx=0;entryDy=0;endArrow=none;fontSize=24;fontFamily=KaiTi;strokeWidth=2;" parent="1" source="kj8fbqeVFcNUevWfHqB0-410" target="kj8fbqeVFcNUevWfHqB0-438" edge="1">
          <mxGeometry relative="1" as="geometry" />
        </mxCell>
        <mxCell id="kj8fbqeVFcNUevWfHqB0-408" style="edgeStyle=orthogonalEdgeStyle;rounded=0;orthogonalLoop=1;jettySize=auto;html=1;exitX=0.5;exitY=1;exitDx=0;exitDy=0;entryX=0.5;entryY=0;entryDx=0;entryDy=0;endArrow=none;fontSize=24;fontFamily=KaiTi;strokeWidth=2;" parent="1" source="kj8fbqeVFcNUevWfHqB0-410" target="kj8fbqeVFcNUevWfHqB0-439" edge="1">
          <mxGeometry relative="1" as="geometry" />
        </mxCell>
        <mxCell id="kj8fbqeVFcNUevWfHqB0-409" style="edgeStyle=orthogonalEdgeStyle;rounded=0;orthogonalLoop=1;jettySize=auto;html=1;exitX=0.5;exitY=1;exitDx=0;exitDy=0;entryX=0.5;entryY=0;entryDx=0;entryDy=0;endArrow=none;fontSize=24;fontFamily=KaiTi;strokeWidth=2;" parent="1" source="kj8fbqeVFcNUevWfHqB0-410" target="kj8fbqeVFcNUevWfHqB0-440" edge="1">
          <mxGeometry relative="1" as="geometry" />
        </mxCell>
        <mxCell id="kj8fbqeVFcNUevWfHqB0-410" value="商品信息管理" style="whiteSpace=wrap;strokeWidth=2;fontSize=24;fontFamily=KaiTi;" parent="1" vertex="1">
          <mxGeometry x="2947" y="7604" width="50" height="120" as="geometry" />
        </mxCell>
        <mxCell id="kj8fbqeVFcNUevWfHqB0-411" style="edgeStyle=orthogonalEdgeStyle;rounded=0;orthogonalLoop=1;jettySize=auto;html=1;exitX=0.5;exitY=1;exitDx=0;exitDy=0;entryX=0.5;entryY=0;entryDx=0;entryDy=0;endArrow=none;fontSize=24;fontFamily=KaiTi;strokeWidth=2;" parent="1" source="kj8fbqeVFcNUevWfHqB0-413" target="kj8fbqeVFcNUevWfHqB0-441" edge="1">
          <mxGeometry relative="1" as="geometry" />
        </mxCell>
        <mxCell id="kj8fbqeVFcNUevWfHqB0-412" style="edgeStyle=orthogonalEdgeStyle;rounded=0;orthogonalLoop=1;jettySize=auto;html=1;exitX=0.5;exitY=1;exitDx=0;exitDy=0;entryX=0.5;entryY=0;entryDx=0;entryDy=0;endArrow=none;fontSize=24;fontFamily=KaiTi;strokeWidth=2;" parent="1" source="kj8fbqeVFcNUevWfHqB0-413" target="kj8fbqeVFcNUevWfHqB0-442" edge="1">
          <mxGeometry relative="1" as="geometry" />
        </mxCell>
        <mxCell id="kj8fbqeVFcNUevWfHqB0-413" value="用户管理" style="whiteSpace=wrap;strokeWidth=2;fontSize=24;fontFamily=KaiTi;" parent="1" vertex="1">
          <mxGeometry x="3083" y="7604" width="50" height="120" as="geometry" />
        </mxCell>
        <mxCell id="kj8fbqeVFcNUevWfHqB0-414" style="edgeStyle=orthogonalEdgeStyle;rounded=0;orthogonalLoop=1;jettySize=auto;html=1;exitX=0.5;exitY=1;exitDx=0;exitDy=0;entryX=0.5;entryY=0;entryDx=0;entryDy=0;endArrow=none;fontSize=24;fontFamily=KaiTi;strokeWidth=2;" parent="1" source="kj8fbqeVFcNUevWfHqB0-417" target="kj8fbqeVFcNUevWfHqB0-443" edge="1">
          <mxGeometry relative="1" as="geometry" />
        </mxCell>
        <mxCell id="kj8fbqeVFcNUevWfHqB0-415" style="edgeStyle=orthogonalEdgeStyle;rounded=0;orthogonalLoop=1;jettySize=auto;html=1;exitX=0.5;exitY=1;exitDx=0;exitDy=0;entryX=0.5;entryY=0;entryDx=0;entryDy=0;endArrow=none;fontSize=24;fontFamily=KaiTi;strokeWidth=2;" parent="1" source="kj8fbqeVFcNUevWfHqB0-417" target="kj8fbqeVFcNUevWfHqB0-444" edge="1">
          <mxGeometry relative="1" as="geometry" />
        </mxCell>
        <mxCell id="kj8fbqeVFcNUevWfHqB0-416" style="edgeStyle=orthogonalEdgeStyle;rounded=0;orthogonalLoop=1;jettySize=auto;html=1;exitX=0.5;exitY=1;exitDx=0;exitDy=0;entryX=0.5;entryY=0;entryDx=0;entryDy=0;endArrow=none;fontSize=24;fontFamily=KaiTi;strokeWidth=2;" parent="1" source="kj8fbqeVFcNUevWfHqB0-417" target="kj8fbqeVFcNUevWfHqB0-445" edge="1">
          <mxGeometry relative="1" as="geometry" />
        </mxCell>
        <mxCell id="kj8fbqeVFcNUevWfHqB0-417" value="订单管理" style="whiteSpace=wrap;strokeWidth=2;fontSize=24;fontFamily=KaiTi;" parent="1" vertex="1">
          <mxGeometry x="3196.5" y="7604" width="50" height="120" as="geometry" />
        </mxCell>
        <mxCell id="kj8fbqeVFcNUevWfHqB0-418" style="edgeStyle=orthogonalEdgeStyle;rounded=0;orthogonalLoop=1;jettySize=auto;html=1;exitX=0.5;exitY=1;exitDx=0;exitDy=0;entryX=0.5;entryY=0;entryDx=0;entryDy=0;endArrow=none;fontSize=24;fontFamily=KaiTi;strokeWidth=2;" parent="1" source="kj8fbqeVFcNUevWfHqB0-420" target="kj8fbqeVFcNUevWfHqB0-446" edge="1">
          <mxGeometry relative="1" as="geometry" />
        </mxCell>
        <mxCell id="kj8fbqeVFcNUevWfHqB0-419" style="edgeStyle=orthogonalEdgeStyle;rounded=0;orthogonalLoop=1;jettySize=auto;html=1;exitX=0.5;exitY=1;exitDx=0;exitDy=0;entryX=0.5;entryY=0;entryDx=0;entryDy=0;endArrow=none;fontSize=24;fontFamily=KaiTi;strokeWidth=2;" parent="1" source="kj8fbqeVFcNUevWfHqB0-420" target="kj8fbqeVFcNUevWfHqB0-447" edge="1">
          <mxGeometry relative="1" as="geometry" />
        </mxCell>
        <mxCell id="kj8fbqeVFcNUevWfHqB0-420" value="系统管理" style="whiteSpace=wrap;strokeWidth=2;fontSize=24;fontFamily=KaiTi;" parent="1" vertex="1">
          <mxGeometry x="3314" y="7604" width="50" height="120" as="geometry" />
        </mxCell>
        <mxCell id="kj8fbqeVFcNUevWfHqB0-421" value="增删改操作" style="whiteSpace=wrap;strokeWidth=2;fontSize=14;fontFamily=KaiTi;" parent="1" vertex="1">
          <mxGeometry x="753" y="7781" width="50" height="120" as="geometry" />
        </mxCell>
        <mxCell id="kj8fbqeVFcNUevWfHqB0-422" value="批量操作" style="strokeWidth=2;horizontal=1;fontSize=14;fontFamily=KaiTi;" parent="1" vertex="1">
          <mxGeometry x="811.5" y="7779" width="50" height="120" as="geometry" />
        </mxCell>
        <mxCell id="kj8fbqeVFcNUevWfHqB0-423" value="分页管理" style="whiteSpace=wrap;strokeWidth=2;fontSize=14;fontFamily=KaiTi;" parent="1" vertex="1">
          <mxGeometry x="872" y="7779" width="50" height="120" as="geometry" />
        </mxCell>
        <mxCell id="kj8fbqeVFcNUevWfHqB0-424" value="增删改操作" style="whiteSpace=wrap;strokeWidth=2;fontSize=14;fontFamily=KaiTi;" parent="1" vertex="1">
          <mxGeometry x="932" y="7779" width="50" height="120" as="geometry" />
        </mxCell>
        <mxCell id="kj8fbqeVFcNUevWfHqB0-425" value="批量操作" style="whiteSpace=wrap;strokeWidth=2;fontSize=14;fontFamily=KaiTi;" parent="1" vertex="1">
          <mxGeometry x="989" y="7779" width="50" height="120" as="geometry" />
        </mxCell>
        <mxCell id="kj8fbqeVFcNUevWfHqB0-426" value="分页管理" style="whiteSpace=wrap;strokeWidth=2;fontSize=14;fontFamily=KaiTi;" parent="1" vertex="1">
          <mxGeometry x="1046" y="7779" width="50" height="120" as="geometry" />
        </mxCell>
        <mxCell id="kj8fbqeVFcNUevWfHqB0-427" value="增删改操作" style="whiteSpace=wrap;strokeWidth=2;fontSize=14;fontFamily=KaiTi;" parent="1" vertex="1">
          <mxGeometry x="1105" y="7779" width="50" height="120" as="geometry" />
        </mxCell>
        <mxCell id="kj8fbqeVFcNUevWfHqB0-428" value="批量操作" style="whiteSpace=wrap;strokeWidth=2;fontSize=14;fontFamily=KaiTi;" parent="1" vertex="1">
          <mxGeometry x="1165" y="7779" width="50" height="120" as="geometry" />
        </mxCell>
        <mxCell id="kj8fbqeVFcNUevWfHqB0-429" value="分页管理" style="whiteSpace=wrap;strokeWidth=2;fontSize=14;fontFamily=KaiTi;" parent="1" vertex="1">
          <mxGeometry x="1224" y="7779" width="50" height="120" as="geometry" />
        </mxCell>
        <mxCell id="kj8fbqeVFcNUevWfHqB0-430" value="增删改操作" style="whiteSpace=wrap;strokeWidth=2;fontSize=24;fontFamily=KaiTi;textDirection=vertical-rl;" parent="1" vertex="1">
          <mxGeometry x="2572" y="7799" width="35" height="157" as="geometry" />
        </mxCell>
        <mxCell id="kj8fbqeVFcNUevWfHqB0-431" value="批量操作" style="whiteSpace=wrap;strokeWidth=2;fontSize=24;fontFamily=KaiTi;textDirection=vertical-rl;" parent="1" vertex="1">
          <mxGeometry x="2620" y="7799" width="35" height="157" as="geometry" />
        </mxCell>
        <mxCell id="kj8fbqeVFcNUevWfHqB0-432" value="分页管理" style="whiteSpace=wrap;strokeWidth=2;fontSize=24;fontFamily=KaiTi;textDirection=vertical-rl;" parent="1" vertex="1">
          <mxGeometry x="2667" y="7799" width="35" height="155" as="geometry" />
        </mxCell>
        <mxCell id="kj8fbqeVFcNUevWfHqB0-433" value="增删改操作" style="whiteSpace=wrap;strokeWidth=2;fontSize=24;fontFamily=KaiTi;textDirection=vertical-rl;" parent="1" vertex="1">
          <mxGeometry x="2712" y="7798" width="35" height="155" as="geometry" />
        </mxCell>
        <mxCell id="kj8fbqeVFcNUevWfHqB0-434" value="批量操作" style="whiteSpace=wrap;strokeWidth=2;fontSize=24;fontFamily=KaiTi;textDirection=vertical-rl;" parent="1" vertex="1">
          <mxGeometry x="2757" y="7798" width="35" height="155" as="geometry" />
        </mxCell>
        <mxCell id="kj8fbqeVFcNUevWfHqB0-435" value="分页管理" style="whiteSpace=wrap;strokeWidth=2;fontSize=24;fontFamily=KaiTi;textDirection=vertical-rl;" parent="1" vertex="1">
          <mxGeometry x="2802" y="7798" width="35" height="155" as="geometry" />
        </mxCell>
        <mxCell id="kj8fbqeVFcNUevWfHqB0-436" value="下级分类管理" style="whiteSpace=wrap;strokeWidth=2;fontSize=24;fontFamily=KaiTi;textDirection=vertical-rl;" parent="1" vertex="1">
          <mxGeometry x="2847" y="7798" width="35" height="155" as="geometry" />
        </mxCell>
        <mxCell id="kj8fbqeVFcNUevWfHqB0-437" value="增删改操作" style="whiteSpace=wrap;strokeWidth=2;fontSize=24;fontFamily=KaiTi;textDirection=vertical-rl;" parent="1" vertex="1">
          <mxGeometry x="2889" y="7797" width="35" height="155" as="geometry" />
        </mxCell>
        <mxCell id="kj8fbqeVFcNUevWfHqB0-438" value="批量操作" style="whiteSpace=wrap;strokeWidth=2;fontSize=24;fontFamily=KaiTi;textDirection=vertical-rl;" parent="1" vertex="1">
          <mxGeometry x="2932" y="7797" width="35" height="155" as="geometry" />
        </mxCell>
        <mxCell id="kj8fbqeVFcNUevWfHqB0-439" value="分页管理" style="whiteSpace=wrap;strokeWidth=2;fontSize=24;fontFamily=KaiTi;textDirection=vertical-rl;" parent="1" vertex="1">
          <mxGeometry x="2977" y="7797" width="35" height="155" as="geometry" />
        </mxCell>
        <mxCell id="kj8fbqeVFcNUevWfHqB0-440" value="上架下架" style="whiteSpace=wrap;strokeWidth=2;fontSize=24;fontFamily=KaiTi;textDirection=vertical-rl;" parent="1" vertex="1">
          <mxGeometry x="3022" y="7797" width="35" height="155" as="geometry" />
        </mxCell>
        <mxCell id="kj8fbqeVFcNUevWfHqB0-441" value="批量禁用操作" style="whiteSpace=wrap;strokeWidth=2;fontSize=24;fontFamily=KaiTi;textDirection=vertical-rl;" parent="1" vertex="1">
          <mxGeometry x="3068" y="7798" width="35" height="155" as="geometry" />
        </mxCell>
        <mxCell id="kj8fbqeVFcNUevWfHqB0-442" value="解除禁用操作" style="whiteSpace=wrap;strokeWidth=2;fontSize=24;fontFamily=KaiTi;textDirection=vertical-rl;" parent="1" vertex="1">
          <mxGeometry x="3114" y="7798" width="35" height="155" as="geometry" />
        </mxCell>
        <mxCell id="kj8fbqeVFcNUevWfHqB0-443" value="查看订单信息" style="whiteSpace=wrap;strokeWidth=2;fontSize=24;fontFamily=KaiTi;textDirection=vertical-rl;" parent="1" vertex="1">
          <mxGeometry x="3158" y="7797" width="35" height="155" as="geometry" />
        </mxCell>
        <mxCell id="kj8fbqeVFcNUevWfHqB0-444" value="修改订单状态" style="whiteSpace=wrap;strokeWidth=2;fontSize=24;fontFamily=KaiTi;textDirection=vertical-rl;" parent="1" vertex="1">
          <mxGeometry x="3204" y="7797" width="35" height="155" as="geometry" />
        </mxCell>
        <mxCell id="kj8fbqeVFcNUevWfHqB0-445" value="关闭订单" style="whiteSpace=wrap;strokeWidth=2;fontSize=24;fontFamily=KaiTi;textDirection=vertical-rl;" parent="1" vertex="1">
          <mxGeometry x="3253" y="7797" width="35" height="155" as="geometry" />
        </mxCell>
        <mxCell id="kj8fbqeVFcNUevWfHqB0-446" value="修改密码" style="whiteSpace=wrap;strokeWidth=2;fontSize=24;fontFamily=KaiTi;textDirection=vertical-rl;" parent="1" vertex="1">
          <mxGeometry x="3297" y="7797" width="35" height="155" as="geometry" />
        </mxCell>
        <mxCell id="kj8fbqeVFcNUevWfHqB0-447" value="安全退出" style="whiteSpace=wrap;strokeWidth=2;fontSize=24;fontFamily=KaiTi;textDirection=vertical-rl;" parent="1" vertex="1">
          <mxGeometry x="3349" y="7797" width="35" height="155" as="geometry" />
        </mxCell>
        <mxCell id="kj8fbqeVFcNUevWfHqB0-448" style="edgeStyle=orthogonalEdgeStyle;rounded=0;orthogonalLoop=1;jettySize=auto;html=1;exitX=0.5;exitY=1;exitDx=0;exitDy=0;entryX=0.5;entryY=0;entryDx=0;entryDy=0;endArrow=none;fontSize=24;fontFamily=KaiTi;strokeWidth=2;" parent="1" source="kj8fbqeVFcNUevWfHqB0-456" target="kj8fbqeVFcNUevWfHqB0-457" edge="1">
          <mxGeometry relative="1" as="geometry" />
        </mxCell>
        <mxCell id="kj8fbqeVFcNUevWfHqB0-449" style="edgeStyle=orthogonalEdgeStyle;rounded=0;orthogonalLoop=1;jettySize=auto;html=1;exitX=0.5;exitY=1;exitDx=0;exitDy=0;entryX=0.5;entryY=0;entryDx=0;entryDy=0;endArrow=none;fontSize=24;fontFamily=KaiTi;strokeWidth=2;" parent="1" source="kj8fbqeVFcNUevWfHqB0-456" target="kj8fbqeVFcNUevWfHqB0-461" edge="1">
          <mxGeometry relative="1" as="geometry" />
        </mxCell>
        <mxCell id="kj8fbqeVFcNUevWfHqB0-450" style="edgeStyle=orthogonalEdgeStyle;rounded=0;orthogonalLoop=1;jettySize=auto;html=1;exitX=0.5;exitY=1;exitDx=0;exitDy=0;entryX=0.5;entryY=0;entryDx=0;entryDy=0;endArrow=none;fontSize=24;fontFamily=KaiTi;strokeWidth=2;" parent="1" source="kj8fbqeVFcNUevWfHqB0-456" target="kj8fbqeVFcNUevWfHqB0-464" edge="1">
          <mxGeometry relative="1" as="geometry" />
        </mxCell>
        <mxCell id="kj8fbqeVFcNUevWfHqB0-451" style="edgeStyle=orthogonalEdgeStyle;rounded=0;orthogonalLoop=1;jettySize=auto;html=1;exitX=0.5;exitY=1;exitDx=0;exitDy=0;entryX=0.5;entryY=0;entryDx=0;entryDy=0;endArrow=none;fontSize=24;fontFamily=KaiTi;strokeWidth=2;" parent="1" source="kj8fbqeVFcNUevWfHqB0-456" target="kj8fbqeVFcNUevWfHqB0-468" edge="1">
          <mxGeometry relative="1" as="geometry" />
        </mxCell>
        <mxCell id="kj8fbqeVFcNUevWfHqB0-452" style="edgeStyle=orthogonalEdgeStyle;rounded=0;orthogonalLoop=1;jettySize=auto;html=1;exitX=0.5;exitY=1;exitDx=0;exitDy=0;entryX=0.5;entryY=0;entryDx=0;entryDy=0;endArrow=none;fontSize=24;fontFamily=KaiTi;strokeWidth=2;" parent="1" source="kj8fbqeVFcNUevWfHqB0-456" target="kj8fbqeVFcNUevWfHqB0-471" edge="1">
          <mxGeometry relative="1" as="geometry" />
        </mxCell>
        <mxCell id="kj8fbqeVFcNUevWfHqB0-453" style="edgeStyle=orthogonalEdgeStyle;rounded=0;orthogonalLoop=1;jettySize=auto;html=1;exitX=0.5;exitY=1;exitDx=0;exitDy=0;entryX=0.5;entryY=0;entryDx=0;entryDy=0;endArrow=none;fontSize=24;fontFamily=KaiTi;strokeWidth=2;" parent="1" source="kj8fbqeVFcNUevWfHqB0-456" target="kj8fbqeVFcNUevWfHqB0-474" edge="1">
          <mxGeometry relative="1" as="geometry" />
        </mxCell>
        <mxCell id="kj8fbqeVFcNUevWfHqB0-454" style="edgeStyle=orthogonalEdgeStyle;rounded=0;orthogonalLoop=1;jettySize=auto;html=1;exitX=0.5;exitY=1;exitDx=0;exitDy=0;entryX=0.5;entryY=0;entryDx=0;entryDy=0;endArrow=none;fontSize=24;fontFamily=KaiTi;strokeWidth=2;" parent="1" source="kj8fbqeVFcNUevWfHqB0-456" target="kj8fbqeVFcNUevWfHqB0-475" edge="1">
          <mxGeometry relative="1" as="geometry">
            <Array as="points">
              <mxPoint x="3724" y="7566" />
              <mxPoint x="3936" y="7566" />
            </Array>
          </mxGeometry>
        </mxCell>
        <mxCell id="kj8fbqeVFcNUevWfHqB0-455" style="edgeStyle=orthogonalEdgeStyle;rounded=0;orthogonalLoop=1;jettySize=auto;html=1;exitX=0.5;exitY=1;exitDx=0;exitDy=0;entryX=0.5;entryY=0;entryDx=0;entryDy=0;endArrow=none;fontSize=24;fontFamily=KaiTi;strokeWidth=2;" parent="1" source="kj8fbqeVFcNUevWfHqB0-456" target="kj8fbqeVFcNUevWfHqB0-479" edge="1">
          <mxGeometry relative="1" as="geometry" />
        </mxCell>
        <mxCell id="kj8fbqeVFcNUevWfHqB0-456" value="客户端模块" style="whiteSpace=wrap;strokeWidth=2;fontSize=24;fontFamily=KaiTi;" parent="1" vertex="1">
          <mxGeometry x="3638.5" y="7474" width="172" height="54" as="geometry" />
        </mxCell>
        <mxCell id="kj8fbqeVFcNUevWfHqB0-457" value="浏览器材信息" style="whiteSpace=wrap;strokeWidth=2;fontSize=24;fontFamily=KaiTi;" parent="1" vertex="1">
          <mxGeometry x="3377" y="7604" width="50" height="120" as="geometry" />
        </mxCell>
        <mxCell id="kj8fbqeVFcNUevWfHqB0-458" style="edgeStyle=orthogonalEdgeStyle;rounded=0;orthogonalLoop=1;jettySize=auto;html=1;exitX=0.5;exitY=1;exitDx=0;exitDy=0;entryX=0.5;entryY=0;entryDx=0;entryDy=0;endArrow=none;fontSize=24;fontFamily=KaiTi;strokeWidth=2;" parent="1" source="kj8fbqeVFcNUevWfHqB0-461" target="kj8fbqeVFcNUevWfHqB0-480" edge="1">
          <mxGeometry relative="1" as="geometry" />
        </mxCell>
        <mxCell id="kj8fbqeVFcNUevWfHqB0-459" style="edgeStyle=orthogonalEdgeStyle;rounded=0;orthogonalLoop=1;jettySize=auto;html=1;exitX=0.5;exitY=1;exitDx=0;exitDy=0;entryX=0.5;entryY=0;entryDx=0;entryDy=0;endArrow=none;fontSize=24;fontFamily=KaiTi;strokeWidth=2;" parent="1" source="kj8fbqeVFcNUevWfHqB0-461" target="kj8fbqeVFcNUevWfHqB0-481" edge="1">
          <mxGeometry relative="1" as="geometry" />
        </mxCell>
        <mxCell id="kj8fbqeVFcNUevWfHqB0-460" style="edgeStyle=orthogonalEdgeStyle;rounded=0;orthogonalLoop=1;jettySize=auto;html=1;exitX=0.5;exitY=1;exitDx=0;exitDy=0;entryX=0.5;entryY=0;entryDx=0;entryDy=0;endArrow=none;fontSize=24;fontFamily=KaiTi;strokeWidth=2;" parent="1" source="kj8fbqeVFcNUevWfHqB0-461" target="kj8fbqeVFcNUevWfHqB0-482" edge="1">
          <mxGeometry relative="1" as="geometry" />
        </mxCell>
        <mxCell id="kj8fbqeVFcNUevWfHqB0-461" value="商品搜索与筛选" style="whiteSpace=wrap;strokeWidth=2;fontSize=24;fontFamily=KaiTi;" parent="1" vertex="1">
          <mxGeometry x="3435" y="7604" width="50" height="120" as="geometry" />
        </mxCell>
        <mxCell id="kj8fbqeVFcNUevWfHqB0-462" style="edgeStyle=orthogonalEdgeStyle;rounded=0;orthogonalLoop=1;jettySize=auto;html=1;exitX=0.5;exitY=1;exitDx=0;exitDy=0;entryX=0.5;entryY=0;entryDx=0;entryDy=0;endArrow=none;fontSize=24;fontFamily=KaiTi;strokeWidth=2;" parent="1" source="kj8fbqeVFcNUevWfHqB0-464" target="kj8fbqeVFcNUevWfHqB0-483" edge="1">
          <mxGeometry relative="1" as="geometry" />
        </mxCell>
        <mxCell id="kj8fbqeVFcNUevWfHqB0-463" style="edgeStyle=orthogonalEdgeStyle;rounded=0;orthogonalLoop=1;jettySize=auto;html=1;exitX=0.5;exitY=1;exitDx=0;exitDy=0;entryX=0.5;entryY=0;entryDx=0;entryDy=0;endArrow=none;fontSize=24;fontFamily=KaiTi;strokeWidth=2;" parent="1" source="kj8fbqeVFcNUevWfHqB0-464" target="kj8fbqeVFcNUevWfHqB0-484" edge="1">
          <mxGeometry relative="1" as="geometry" />
        </mxCell>
        <mxCell id="kj8fbqeVFcNUevWfHqB0-464" value="购物车功能" style="whiteSpace=wrap;strokeWidth=2;fontSize=24;fontFamily=KaiTi;" parent="1" vertex="1">
          <mxGeometry x="3542" y="7604" width="50" height="120" as="geometry" />
        </mxCell>
        <mxCell id="kj8fbqeVFcNUevWfHqB0-465" style="edgeStyle=orthogonalEdgeStyle;rounded=0;orthogonalLoop=1;jettySize=auto;html=1;exitX=0.5;exitY=1;exitDx=0;exitDy=0;entryX=0.5;entryY=0;entryDx=0;entryDy=0;endArrow=none;fontSize=24;fontFamily=KaiTi;strokeWidth=2;" parent="1" source="kj8fbqeVFcNUevWfHqB0-468" target="kj8fbqeVFcNUevWfHqB0-485" edge="1">
          <mxGeometry relative="1" as="geometry" />
        </mxCell>
        <mxCell id="kj8fbqeVFcNUevWfHqB0-466" style="edgeStyle=orthogonalEdgeStyle;rounded=0;orthogonalLoop=1;jettySize=auto;html=1;exitX=0.5;exitY=1;exitDx=0;exitDy=0;entryX=0.5;entryY=0;entryDx=0;entryDy=0;endArrow=none;fontSize=24;fontFamily=KaiTi;strokeWidth=2;" parent="1" source="kj8fbqeVFcNUevWfHqB0-468" target="kj8fbqeVFcNUevWfHqB0-486" edge="1">
          <mxGeometry relative="1" as="geometry" />
        </mxCell>
        <mxCell id="kj8fbqeVFcNUevWfHqB0-467" style="edgeStyle=orthogonalEdgeStyle;rounded=0;orthogonalLoop=1;jettySize=auto;html=1;exitX=0.5;exitY=1;exitDx=0;exitDy=0;entryX=0.5;entryY=0;entryDx=0;entryDy=0;endArrow=none;fontSize=24;fontFamily=KaiTi;strokeWidth=2;" parent="1" source="kj8fbqeVFcNUevWfHqB0-468" target="kj8fbqeVFcNUevWfHqB0-487" edge="1">
          <mxGeometry relative="1" as="geometry" />
        </mxCell>
        <mxCell id="kj8fbqeVFcNUevWfHqB0-468" value="订单管理" style="whiteSpace=wrap;strokeWidth=2;fontSize=24;fontFamily=KaiTi;" parent="1" vertex="1">
          <mxGeometry x="3652.5" y="7604" width="50" height="120" as="geometry" />
        </mxCell>
        <mxCell id="kj8fbqeVFcNUevWfHqB0-469" style="edgeStyle=orthogonalEdgeStyle;rounded=0;orthogonalLoop=1;jettySize=auto;html=1;exitX=0.5;exitY=1;exitDx=0;exitDy=0;entryX=0.5;entryY=0;entryDx=0;entryDy=0;endArrow=none;fontSize=24;fontFamily=KaiTi;strokeWidth=2;" parent="1" source="kj8fbqeVFcNUevWfHqB0-471" target="kj8fbqeVFcNUevWfHqB0-488" edge="1">
          <mxGeometry relative="1" as="geometry" />
        </mxCell>
        <mxCell id="kj8fbqeVFcNUevWfHqB0-470" style="edgeStyle=orthogonalEdgeStyle;rounded=0;orthogonalLoop=1;jettySize=auto;html=1;exitX=0.5;exitY=1;exitDx=0;exitDy=0;entryX=0.5;entryY=0;entryDx=0;entryDy=0;endArrow=none;fontSize=24;fontFamily=KaiTi;strokeWidth=2;" parent="1" source="kj8fbqeVFcNUevWfHqB0-471" target="kj8fbqeVFcNUevWfHqB0-489" edge="1">
          <mxGeometry relative="1" as="geometry" />
        </mxCell>
        <mxCell id="kj8fbqeVFcNUevWfHqB0-471" value="个人中心管理" style="whiteSpace=wrap;strokeWidth=2;fontSize=24;fontFamily=KaiTi;" parent="1" vertex="1">
          <mxGeometry x="3764" y="7604" width="50" height="120" as="geometry" />
        </mxCell>
        <mxCell id="kj8fbqeVFcNUevWfHqB0-472" style="edgeStyle=orthogonalEdgeStyle;rounded=0;orthogonalLoop=1;jettySize=auto;html=1;exitX=0.5;exitY=1;exitDx=0;exitDy=0;entryX=0.5;entryY=0;entryDx=0;entryDy=0;endArrow=none;fontSize=24;fontFamily=KaiTi;strokeWidth=2;" parent="1" source="kj8fbqeVFcNUevWfHqB0-474" target="kj8fbqeVFcNUevWfHqB0-490" edge="1">
          <mxGeometry relative="1" as="geometry" />
        </mxCell>
        <mxCell id="kj8fbqeVFcNUevWfHqB0-473" style="edgeStyle=orthogonalEdgeStyle;rounded=0;orthogonalLoop=1;jettySize=auto;html=1;exitX=0.5;exitY=1;exitDx=0;exitDy=0;entryX=0.5;entryY=0;entryDx=0;entryDy=0;endArrow=none;fontSize=24;fontFamily=KaiTi;strokeWidth=2;" parent="1" source="kj8fbqeVFcNUevWfHqB0-474" target="kj8fbqeVFcNUevWfHqB0-491" edge="1">
          <mxGeometry relative="1" as="geometry" />
        </mxCell>
        <mxCell id="kj8fbqeVFcNUevWfHqB0-474" value="注册与登录" style="whiteSpace=wrap;strokeWidth=2;fontSize=24;fontFamily=KaiTi;" parent="1" vertex="1">
          <mxGeometry x="3850" y="7604" width="50" height="120" as="geometry" />
        </mxCell>
        <mxCell id="kj8fbqeVFcNUevWfHqB0-475" value="支付功能" style="whiteSpace=wrap;strokeWidth=2;fontSize=24;fontFamily=KaiTi;" parent="1" vertex="1">
          <mxGeometry x="3911" y="7604" width="50" height="120" as="geometry" />
        </mxCell>
        <mxCell id="kj8fbqeVFcNUevWfHqB0-476" style="edgeStyle=orthogonalEdgeStyle;rounded=0;orthogonalLoop=1;jettySize=auto;html=1;exitX=0.5;exitY=1;exitDx=0;exitDy=0;entryX=0.5;entryY=0;entryDx=0;entryDy=0;endArrow=none;fontSize=24;fontFamily=KaiTi;strokeWidth=2;" parent="1" source="kj8fbqeVFcNUevWfHqB0-479" target="kj8fbqeVFcNUevWfHqB0-492" edge="1">
          <mxGeometry relative="1" as="geometry" />
        </mxCell>
        <mxCell id="kj8fbqeVFcNUevWfHqB0-477" style="edgeStyle=orthogonalEdgeStyle;rounded=0;orthogonalLoop=1;jettySize=auto;html=1;exitX=0.5;exitY=1;exitDx=0;exitDy=0;entryX=0.5;entryY=0;entryDx=0;entryDy=0;endArrow=none;fontSize=24;fontFamily=KaiTi;strokeWidth=2;" parent="1" source="kj8fbqeVFcNUevWfHqB0-479" target="kj8fbqeVFcNUevWfHqB0-493" edge="1">
          <mxGeometry relative="1" as="geometry" />
        </mxCell>
        <mxCell id="kj8fbqeVFcNUevWfHqB0-478" style="edgeStyle=orthogonalEdgeStyle;rounded=0;orthogonalLoop=1;jettySize=auto;html=1;exitX=0.5;exitY=1;exitDx=0;exitDy=0;endArrow=none;fontSize=24;fontFamily=KaiTi;strokeWidth=2;" parent="1" source="kj8fbqeVFcNUevWfHqB0-479" target="kj8fbqeVFcNUevWfHqB0-494" edge="1">
          <mxGeometry relative="1" as="geometry" />
        </mxCell>
        <mxCell id="kj8fbqeVFcNUevWfHqB0-479" value="论坛功能" style="whiteSpace=wrap;strokeWidth=2;fontSize=24;fontFamily=KaiTi;" parent="1" vertex="1">
          <mxGeometry x="3972" y="7604" width="50" height="120" as="geometry" />
        </mxCell>
        <mxCell id="kj8fbqeVFcNUevWfHqB0-480" value="按分类搜索" style="whiteSpace=wrap;strokeWidth=2;fontSize=24;fontFamily=KaiTi;textDirection=vertical-rl;" parent="1" vertex="1">
          <mxGeometry x="3400" y="7797" width="35" height="155" as="geometry" />
        </mxCell>
        <mxCell id="kj8fbqeVFcNUevWfHqB0-481" value="按价格排序" style="whiteSpace=wrap;strokeWidth=2;fontSize=24;fontFamily=KaiTi;textDirection=vertical-rl;" parent="1" vertex="1">
          <mxGeometry x="3442.5" y="7797" width="35" height="155" as="geometry" />
        </mxCell>
        <mxCell id="kj8fbqeVFcNUevWfHqB0-482" value="按推荐排序" style="whiteSpace=wrap;strokeWidth=2;fontSize=24;fontFamily=KaiTi;textDirection=vertical-rl;" parent="1" vertex="1">
          <mxGeometry x="3485" y="7797" width="35" height="155" as="geometry" />
        </mxCell>
        <mxCell id="kj8fbqeVFcNUevWfHqB0-483" value="编辑商品信息" style="whiteSpace=wrap;strokeWidth=2;fontSize=24;fontFamily=KaiTi;textDirection=vertical-rl;" parent="1" vertex="1">
          <mxGeometry x="3528" y="7798" width="35" height="155" as="geometry" />
        </mxCell>
        <mxCell id="kj8fbqeVFcNUevWfHqB0-484" value="删除商品" style="whiteSpace=wrap;strokeWidth=2;fontSize=24;fontFamily=KaiTi;textDirection=vertical-rl;" parent="1" vertex="1">
          <mxGeometry x="3573" y="7798" width="35" height="155" as="geometry" />
        </mxCell>
        <mxCell id="kj8fbqeVFcNUevWfHqB0-485" value="提交订单" style="whiteSpace=wrap;strokeWidth=2;fontSize=24;fontFamily=KaiTi;textDirection=vertical-rl;" parent="1" vertex="1">
          <mxGeometry x="3615" y="7798" width="35" height="155" as="geometry" />
        </mxCell>
        <mxCell id="kj8fbqeVFcNUevWfHqB0-486" value="查看订单" style="whiteSpace=wrap;strokeWidth=2;fontSize=24;fontFamily=KaiTi;textDirection=vertical-rl;" parent="1" vertex="1">
          <mxGeometry x="3660" y="7798" width="35" height="155" as="geometry" />
        </mxCell>
        <mxCell id="kj8fbqeVFcNUevWfHqB0-487" value="商品评价" style="whiteSpace=wrap;strokeWidth=2;fontSize=24;fontFamily=KaiTi;textDirection=vertical-rl;" parent="1" vertex="1">
          <mxGeometry x="3707" y="7798" width="35" height="155" as="geometry" />
        </mxCell>
        <mxCell id="kj8fbqeVFcNUevWfHqB0-488" value="修改个人信息" style="whiteSpace=wrap;strokeWidth=2;fontSize=24;fontFamily=KaiTi;textDirection=vertical-rl;" parent="1" vertex="1">
          <mxGeometry x="3749" y="7798" width="35" height="155" as="geometry" />
        </mxCell>
        <mxCell id="kj8fbqeVFcNUevWfHqB0-489" value="修改收货信息" style="whiteSpace=wrap;strokeWidth=2;fontSize=24;fontFamily=KaiTi;textDirection=vertical-rl;" parent="1" vertex="1">
          <mxGeometry x="3794" y="7798" width="35" height="155" as="geometry" />
        </mxCell>
        <mxCell id="kj8fbqeVFcNUevWfHqB0-490" value="手机号注册" style="whiteSpace=wrap;strokeWidth=2;fontSize=24;fontFamily=KaiTi;textDirection=vertical-rl;" parent="1" vertex="1">
          <mxGeometry x="3837" y="7797" width="35" height="155" as="geometry" />
        </mxCell>
        <mxCell id="kj8fbqeVFcNUevWfHqB0-491" value="账号登录" style="whiteSpace=wrap;strokeWidth=2;fontSize=24;fontFamily=KaiTi;textDirection=vertical-rl;" parent="1" vertex="1">
          <mxGeometry x="3882" y="7797" width="35" height="155" as="geometry" />
        </mxCell>
        <mxCell id="kj8fbqeVFcNUevWfHqB0-492" value="发帖" style="whiteSpace=wrap;strokeWidth=2;fontSize=24;fontFamily=KaiTi;textDirection=vertical-rl;" parent="1" vertex="1">
          <mxGeometry x="3928" y="7797" width="35" height="155" as="geometry" />
        </mxCell>
        <mxCell id="kj8fbqeVFcNUevWfHqB0-493" value="评论" style="whiteSpace=wrap;strokeWidth=2;fontSize=24;fontFamily=KaiTi;textDirection=vertical-rl;" parent="1" vertex="1">
          <mxGeometry x="3972" y="7797" width="35" height="155" as="geometry" />
        </mxCell>
        <mxCell id="kj8fbqeVFcNUevWfHqB0-494" value="点赞" style="whiteSpace=wrap;strokeWidth=2;fontSize=24;fontFamily=KaiTi;textDirection=vertical-rl;" parent="1" vertex="1">
          <mxGeometry x="4016" y="7797" width="35" height="155" as="geometry" />
        </mxCell>
        <mxCell id="kj8fbqeVFcNUevWfHqB0-495" style="edgeStyle=orthogonalEdgeStyle;rounded=0;orthogonalLoop=1;jettySize=auto;html=1;exitX=0.5;exitY=1;exitDx=0;exitDy=0;endArrow=none;fontSize=24;fontFamily=KaiTi;strokeWidth=2;" parent="1" source="kj8fbqeVFcNUevWfHqB0-497" target="kj8fbqeVFcNUevWfHqB0-384" edge="1">
          <mxGeometry relative="1" as="geometry" />
        </mxCell>
        <mxCell id="kj8fbqeVFcNUevWfHqB0-496" style="edgeStyle=orthogonalEdgeStyle;rounded=0;orthogonalLoop=1;jettySize=auto;html=1;exitX=0.5;exitY=1;exitDx=0;exitDy=0;entryX=0.5;entryY=0;entryDx=0;entryDy=0;endArrow=none;fontSize=24;fontFamily=KaiTi;strokeWidth=2;" parent="1" source="kj8fbqeVFcNUevWfHqB0-497" target="kj8fbqeVFcNUevWfHqB0-456" edge="1">
          <mxGeometry relative="1" as="geometry" />
        </mxCell>
        <mxCell id="kj8fbqeVFcNUevWfHqB0-497" value="基于Spring Boot的二手摄影器材交易系统" style="whiteSpace=wrap;strokeWidth=2;fontSize=24;fontFamily=KaiTi;" parent="1" vertex="1">
          <mxGeometry x="3063" y="7336" width="653" height="54" as="geometry" />
        </mxCell>
        <mxCell id="kj8fbqeVFcNUevWfHqB0-498" value="" style="whiteSpace=wrap;strokeWidth=2;fontSize=17;fontFamily=KaiTi;" parent="1" vertex="1">
          <mxGeometry x="-1220" y="8076" width="319" height="634" as="geometry" />
        </mxCell>
        <mxCell id="kj8fbqeVFcNUevWfHqB0-499" value="视图层 View Layer" style="whiteSpace=wrap;strokeWidth=2;fontSize=17;fontFamily=KaiTi;" parent="1" vertex="1">
          <mxGeometry x="-767" y="8112" width="200" height="60" as="geometry" />
        </mxCell>
        <mxCell id="kj8fbqeVFcNUevWfHqB0-500" value="控制层 Controller Layer" style="whiteSpace=wrap;strokeWidth=2;fontSize=17;fontFamily=KaiTi;" parent="1" vertex="1">
          <mxGeometry x="-769" y="8241" width="200" height="60" as="geometry" />
        </mxCell>
        <mxCell id="kj8fbqeVFcNUevWfHqB0-501" value="服务层 Service Layer" style="whiteSpace=wrap;strokeWidth=2;fontSize=17;fontFamily=KaiTi;" parent="1" vertex="1">
          <mxGeometry x="-769" y="8358" width="200" height="60" as="geometry" />
        </mxCell>
        <mxCell id="kj8fbqeVFcNUevWfHqB0-502" value="数据访问层 DAO Layer" style="whiteSpace=wrap;strokeWidth=2;fontSize=17;fontFamily=KaiTi;" parent="1" vertex="1">
          <mxGeometry x="-769" y="8469" width="200" height="60" as="geometry" />
        </mxCell>
        <mxCell id="kj8fbqeVFcNUevWfHqB0-503" value="实体层 Entity Layer" style="whiteSpace=wrap;strokeWidth=2;fontSize=17;fontFamily=KaiTi;" parent="1" vertex="1">
          <mxGeometry x="-769" y="8594" width="200" height="60" as="geometry" />
        </mxCell>
        <mxCell id="kj8fbqeVFcNUevWfHqB0-504" value="数据库 Database" style="shape=cylinder3;boundedLbl=1;backgroundOutline=1;size=10;strokeWidth=2;whiteSpace=wrap;fontSize=17;fontFamily=KaiTi;" parent="1" vertex="1">
          <mxGeometry x="-729" y="8703" width="120" height="78" as="geometry" />
        </mxCell>
        <mxCell id="kj8fbqeVFcNUevWfHqB0-505" value="采用HTML、CSS、JavaScript、Bootstrap进行页面展示和交互" style="whiteSpace=wrap;strokeWidth=2;fontSize=17;fontFamily=KaiTi;" parent="1" vertex="1">
          <mxGeometry x="-1162" y="8112" width="200" height="60" as="geometry" />
        </mxCell>
        <mxCell id="kj8fbqeVFcNUevWfHqB0-506" value="处理前端请求，调用服务层实现业务逻辑" style="whiteSpace=wrap;strokeWidth=2;fontSize=17;fontFamily=KaiTi;" parent="1" vertex="1">
          <mxGeometry x="-1162" y="8241" width="200" height="60" as="geometry" />
        </mxCell>
        <mxCell id="kj8fbqeVFcNUevWfHqB0-507" value="封装业务逻辑，调用数据访问层" style="whiteSpace=wrap;strokeWidth=2;fontSize=17;fontFamily=KaiTi;" parent="1" vertex="1">
          <mxGeometry x="-1162" y="8358" width="200" height="60" as="geometry" />
        </mxCell>
        <mxCell id="kj8fbqeVFcNUevWfHqB0-508" value="使用MyBatis编写Mapper接口和XML配置文件，操作数据库" style="whiteSpace=wrap;strokeWidth=2;fontSize=17;fontFamily=KaiTi;" parent="1" vertex="1">
          <mxGeometry x="-1162" y="8469" width="200" height="60" as="geometry" />
        </mxCell>
        <mxCell id="kj8fbqeVFcNUevWfHqB0-509" value="将数据库表映射为Java类，便于对象传输与操作" style="whiteSpace=wrap;strokeWidth=2;fontSize=17;fontFamily=KaiTi;" parent="1" vertex="1">
          <mxGeometry x="-1162" y="8594" width="200" height="60" as="geometry" />
        </mxCell>
        <mxCell id="kj8fbqeVFcNUevWfHqB0-510" value="" style="curved=1;startArrow=none;endArrow=block;exitX=0.5;exitY=1;entryX=0.5;entryY=0;rounded=0;exitDx=0;exitDy=0;fontSize=17;fontFamily=KaiTi;" parent="1" source="kj8fbqeVFcNUevWfHqB0-499" target="kj8fbqeVFcNUevWfHqB0-500" edge="1">
          <mxGeometry relative="1" as="geometry" />
        </mxCell>
        <mxCell id="kj8fbqeVFcNUevWfHqB0-511" value="" style="curved=1;startArrow=none;endArrow=block;exitX=0.5;exitY=1;entryX=0.5;entryY=0;rounded=0;exitDx=0;exitDy=0;fontSize=17;fontFamily=KaiTi;" parent="1" source="kj8fbqeVFcNUevWfHqB0-500" target="kj8fbqeVFcNUevWfHqB0-501" edge="1">
          <mxGeometry relative="1" as="geometry" />
        </mxCell>
        <mxCell id="kj8fbqeVFcNUevWfHqB0-512" value="" style="curved=1;startArrow=none;endArrow=block;exitX=0.5;exitY=1;entryX=0.5;entryY=0;rounded=0;exitDx=0;exitDy=0;fontSize=17;fontFamily=KaiTi;" parent="1" source="kj8fbqeVFcNUevWfHqB0-501" target="kj8fbqeVFcNUevWfHqB0-502" edge="1">
          <mxGeometry relative="1" as="geometry" />
        </mxCell>
        <mxCell id="kj8fbqeVFcNUevWfHqB0-513" value="" style="curved=1;startArrow=none;endArrow=block;exitX=0.5;exitY=1;entryX=0.5;entryY=0;rounded=0;exitDx=0;exitDy=0;fontSize=17;fontFamily=KaiTi;" parent="1" source="kj8fbqeVFcNUevWfHqB0-502" target="kj8fbqeVFcNUevWfHqB0-503" edge="1">
          <mxGeometry relative="1" as="geometry" />
        </mxCell>
        <mxCell id="kj8fbqeVFcNUevWfHqB0-514" value="" style="curved=1;startArrow=none;endArrow=block;exitX=0.5;exitY=1;entryX=0.5;entryY=0;rounded=0;exitDx=0;exitDy=0;fontSize=17;fontFamily=KaiTi;" parent="1" source="kj8fbqeVFcNUevWfHqB0-503" target="kj8fbqeVFcNUevWfHqB0-504" edge="1">
          <mxGeometry relative="1" as="geometry" />
        </mxCell>
        <mxCell id="kj8fbqeVFcNUevWfHqB0-515" value="" style="curved=1;dashed=1;dashPattern=2 3;startArrow=none;endArrow=block;exitX=0;exitY=0.5;entryX=1;entryY=0.5;rounded=0;entryDx=0;entryDy=0;exitDx=0;exitDy=0;fontSize=17;fontFamily=KaiTi;" parent="1" source="kj8fbqeVFcNUevWfHqB0-499" target="kj8fbqeVFcNUevWfHqB0-505" edge="1">
          <mxGeometry relative="1" as="geometry" />
        </mxCell>
        <mxCell id="kj8fbqeVFcNUevWfHqB0-516" value="" style="curved=1;dashed=1;dashPattern=2 3;startArrow=none;endArrow=block;entryX=1;entryY=0.5;rounded=0;entryDx=0;entryDy=0;exitX=0;exitY=0.5;exitDx=0;exitDy=0;fontSize=17;fontFamily=KaiTi;" parent="1" source="kj8fbqeVFcNUevWfHqB0-500" target="kj8fbqeVFcNUevWfHqB0-506" edge="1">
          <mxGeometry relative="1" as="geometry">
            <mxPoint x="-835" y="8307" as="sourcePoint" />
          </mxGeometry>
        </mxCell>
        <mxCell id="kj8fbqeVFcNUevWfHqB0-517" value="" style="curved=1;dashed=1;dashPattern=2 3;startArrow=none;endArrow=block;exitX=0;exitY=0.5;entryX=1;entryY=0.5;rounded=0;entryDx=0;entryDy=0;exitDx=0;exitDy=0;fontSize=17;fontFamily=KaiTi;" parent="1" source="kj8fbqeVFcNUevWfHqB0-501" target="kj8fbqeVFcNUevWfHqB0-507" edge="1">
          <mxGeometry relative="1" as="geometry" />
        </mxCell>
        <mxCell id="kj8fbqeVFcNUevWfHqB0-518" value="" style="curved=1;dashed=1;dashPattern=2 3;startArrow=none;endArrow=block;exitX=0;exitY=0.5;entryX=1;entryY=0.5;rounded=0;entryDx=0;entryDy=0;exitDx=0;exitDy=0;fontSize=17;fontFamily=KaiTi;" parent="1" source="kj8fbqeVFcNUevWfHqB0-502" target="kj8fbqeVFcNUevWfHqB0-508" edge="1">
          <mxGeometry relative="1" as="geometry" />
        </mxCell>
        <mxCell id="kj8fbqeVFcNUevWfHqB0-519" value="" style="curved=1;dashed=1;dashPattern=2 3;startArrow=none;endArrow=block;exitX=0;exitY=0.5;entryX=1;entryY=0.5;rounded=0;exitDx=0;exitDy=0;entryDx=0;entryDy=0;fontSize=17;fontFamily=KaiTi;" parent="1" source="kj8fbqeVFcNUevWfHqB0-503" target="kj8fbqeVFcNUevWfHqB0-509" edge="1">
          <mxGeometry relative="1" as="geometry">
            <mxPoint x="-1250.150000000001" y="8706" as="sourcePoint" />
          </mxGeometry>
        </mxCell>
        <mxCell id="kj8fbqeVFcNUevWfHqB0-520" value="&lt;font&gt;系统架构图&lt;/font&gt;" style="text;strokeColor=none;align=center;fillColor=none;html=1;verticalAlign=middle;whiteSpace=wrap;rounded=0;fontSize=17;fontFamily=KaiTi;" parent="1" vertex="1">
          <mxGeometry x="-1041" y="8017" width="344" height="30" as="geometry" />
        </mxCell>
      </root>
    </mxGraphModel>
  </diagram>
</mxfile>
